<svg width="239" height="48" viewBox="0 0 239 48" fill="none" xmlns="http://www.w3.org/2000/svg">
<rect width="239" height="48" rx="6" fill="#3940A0"/>
<path d="M81.792 28H79.248L75.248 22.752V28H73.04V16.8H75.248V21.744L79.088 16.8H81.632L77.488 22.24L81.792 28ZM87.5557 19.776C88.4304 19.776 89.1504 20.0693 89.7158 20.656C90.2918 21.2427 90.5798 22.0533 90.5798 23.088V28H88.5157V23.344C88.5157 22.8107 88.3717 22.4053 88.0837 22.128C87.7957 21.84 87.4117 21.696 86.9317 21.696C86.3984 21.696 85.9717 21.8613 85.6517 22.192C85.3317 22.5227 85.1717 23.0187 85.1717 23.68V28H83.1077V20H85.1717V20.896C85.6731 20.1493 86.4677 19.776 87.5557 19.776ZM99.4781 27.008C98.6568 27.8187 97.6541 28.224 96.4701 28.224C95.2861 28.224 94.2835 27.8187 93.4621 27.008C92.6515 26.1867 92.2461 25.184 92.2461 24C92.2461 22.816 92.6515 21.8187 93.4621 21.008C94.2835 20.1867 95.2861 19.776 96.4701 19.776C97.6541 19.776 98.6568 20.1867 99.4781 21.008C100.299 21.8187 100.71 22.816 100.71 24C100.71 25.184 100.299 26.1867 99.4781 27.008ZM94.9181 25.584C95.3341 26 95.8515 26.208 96.4701 26.208C97.0888 26.208 97.6061 26 98.0221 25.584C98.4381 25.168 98.6461 24.64 98.6461 24C98.6461 23.36 98.4381 22.832 98.0221 22.416C97.6061 22 97.0888 21.792 96.4701 21.792C95.8515 21.792 95.3341 22 94.9181 22.416C94.5128 22.832 94.3101 23.36 94.3101 24C94.3101 24.64 94.5128 25.168 94.9181 25.584ZM111.178 20H113.37L110.826 28H108.858L107.386 23.152L105.914 28H103.946L101.402 20H103.594L104.954 24.912L106.41 20H108.362L109.818 24.928L111.178 20ZM119.25 19.776C120.125 19.776 120.845 20.0693 121.41 20.656C121.986 21.2427 122.274 22.0533 122.274 23.088V28H120.21V23.344C120.21 22.8107 120.066 22.4053 119.778 22.128C119.49 21.84 119.106 21.696 118.626 21.696C118.093 21.696 117.666 21.8613 117.346 22.192C117.026 22.5227 116.866 23.0187 116.866 23.68V28H114.802V20H116.866V20.896C117.367 20.1493 118.162 19.776 119.25 19.776ZM137.524 19.776C138.442 19.776 139.172 20.0747 139.716 20.672C140.271 21.2693 140.548 22.0693 140.548 23.072V28H138.484V23.216C138.484 22.736 138.367 22.3627 138.132 22.096C137.898 21.8293 137.567 21.696 137.14 21.696C136.671 21.696 136.303 21.8507 136.036 22.16C135.78 22.4693 135.652 22.9173 135.652 23.504V28H133.588V23.216C133.588 22.736 133.471 22.3627 133.236 22.096C133.002 21.8293 132.671 21.696 132.244 21.696C131.786 21.696 131.418 21.8507 131.14 22.16C130.874 22.4693 130.74 22.9173 130.74 23.504V28H128.676V20H130.74V20.848C131.22 20.1333 131.962 19.776 132.964 19.776C133.946 19.776 134.671 20.16 135.14 20.928C135.674 20.16 136.468 19.776 137.524 19.776ZM149.437 27.008C148.616 27.8187 147.613 28.224 146.429 28.224C145.245 28.224 144.243 27.8187 143.421 27.008C142.611 26.1867 142.205 25.184 142.205 24C142.205 22.816 142.611 21.8187 143.421 21.008C144.243 20.1867 145.245 19.776 146.429 19.776C147.613 19.776 148.616 20.1867 149.437 21.008C150.259 21.8187 150.669 22.816 150.669 24C150.669 25.184 150.259 26.1867 149.437 27.008ZM144.877 25.584C145.293 26 145.811 26.208 146.429 26.208C147.048 26.208 147.565 26 147.981 25.584C148.397 25.168 148.605 24.64 148.605 24C148.605 23.36 148.397 22.832 147.981 22.416C147.565 22 147.048 21.792 146.429 21.792C145.811 21.792 145.293 22 144.877 22.416C144.472 22.832 144.269 23.36 144.269 24C144.269 24.64 144.472 25.168 144.877 25.584ZM154.505 21.376C154.697 20.864 155.012 20.48 155.449 20.224C155.897 19.968 156.393 19.84 156.937 19.84V22.144C156.308 22.0693 155.743 22.1973 155.241 22.528C154.751 22.8587 154.505 23.408 154.505 24.176V28H152.441V20H154.505V21.376ZM159.912 24.848C160.189 25.8507 160.941 26.352 162.168 26.352C162.957 26.352 163.554 26.0853 163.96 25.552L165.624 26.512C164.834 27.6533 163.672 28.224 162.136 28.224C160.813 28.224 159.752 27.824 158.952 27.024C158.152 26.224 157.752 25.216 157.752 24C157.752 22.7947 158.146 21.792 158.936 20.992C159.725 20.1813 160.738 19.776 161.976 19.776C163.149 19.776 164.114 20.1813 164.872 20.992C165.64 21.8027 166.024 22.8053 166.024 24C166.024 24.2667 165.997 24.5493 165.944 24.848H159.912ZM159.88 23.248H163.96C163.842 22.704 163.597 22.2987 163.224 22.032C162.861 21.7653 162.445 21.632 161.976 21.632C161.421 21.632 160.962 21.776 160.6 22.064C160.237 22.3413 159.997 22.736 159.88 23.248Z" fill="white"/>
</svg>
