<svg width="122" height="129" viewBox="0 0 122 129" fill="none" xmlns="http://www.w3.org/2000/svg">
<rect x="0.816895" y="0.637695" width="120.668" height="128.371" rx="10.2696" fill="#3A3C43"/>
<path d="M11.6 14.8891H12.2367V19.6816H11.6V14.8891ZM16.1061 14.8891H16.7017V19.6816H16.1061V19.0928C15.8094 19.5447 15.3781 19.7706 14.8121 19.7706C14.3329 19.7706 13.9244 19.5972 13.5866 19.2503C13.2489 18.8989 13.08 18.4721 13.08 17.97C13.08 17.468 13.2489 17.0435 13.5866 16.6966C13.9244 16.3451 14.3329 16.1694 14.8121 16.1694C15.3781 16.1694 15.8094 16.3954 16.1061 16.8472V14.8891ZM14.8874 19.1955C15.2343 19.1955 15.5242 19.0792 15.7569 18.8464C15.9897 18.609 16.1061 18.3169 16.1061 17.97C16.1061 17.6231 15.9897 17.3333 15.7569 17.1005C15.5242 16.8632 15.2343 16.7445 14.8874 16.7445C14.5451 16.7445 14.2576 16.8632 14.0248 17.1005C13.792 17.3333 13.6756 17.6231 13.6756 17.97C13.6756 18.3169 13.792 18.609 14.0248 18.8464C14.2576 19.0792 14.5451 19.1955 14.8874 19.1955ZM18.0903 18.2439C18.1496 18.5497 18.2888 18.787 18.5079 18.9559C18.7316 19.1248 19.0054 19.2092 19.3295 19.2092C19.7814 19.2092 20.11 19.0426 20.3154 18.7094L20.822 18.997C20.4888 19.5128 19.9867 19.7706 19.3158 19.7706C18.7726 19.7706 18.3299 19.6018 17.9876 19.264C17.6498 18.9217 17.481 18.4904 17.481 17.97C17.481 17.4543 17.6475 17.0252 17.9807 16.6829C18.3139 16.3406 18.7453 16.1694 19.2747 16.1694C19.7768 16.1694 20.1853 16.3474 20.5002 16.7034C20.8197 17.0549 20.9795 17.4794 20.9795 17.9769C20.9795 18.0636 20.9726 18.1526 20.9589 18.2439H18.0903ZM19.2747 16.7308C18.9552 16.7308 18.6905 16.8221 18.4805 17.0047C18.2706 17.1827 18.1405 17.4223 18.0903 17.7236H20.377C20.3268 17.3995 20.199 17.153 19.9936 16.9841C19.7882 16.8153 19.5486 16.7308 19.2747 16.7308ZM24.5604 16.2584H25.156V19.6816H24.5604V19.0928C24.2637 19.5447 23.8324 19.7706 23.2664 19.7706C22.7871 19.7706 22.3786 19.5972 22.0409 19.2503C21.7031 18.8989 21.5343 18.4721 21.5343 17.97C21.5343 17.468 21.7031 17.0435 22.0409 16.6966C22.3786 16.3451 22.7871 16.1694 23.2664 16.1694C23.8324 16.1694 24.2637 16.3954 24.5604 16.8472V16.2584ZM23.3417 19.1955C23.6886 19.1955 23.9784 19.0792 24.2112 18.8464C24.444 18.609 24.5604 18.3169 24.5604 17.97C24.5604 17.6231 24.444 17.3333 24.2112 17.1005C23.9784 16.8632 23.6886 16.7445 23.3417 16.7445C22.9994 16.7445 22.7118 16.8632 22.4791 17.1005C22.2463 17.3333 22.1299 17.6231 22.1299 17.97C22.1299 18.3169 22.2463 18.609 22.4791 18.8464C22.7118 19.0792 22.9994 19.1955 23.3417 19.1955ZM29.7966 16.1694C30.2759 16.1694 30.6844 16.3451 31.0221 16.6966C31.3599 17.0435 31.5288 17.468 31.5288 17.97C31.5288 18.4721 31.3599 18.8989 31.0221 19.2503C30.6844 19.5972 30.2759 19.7706 29.7966 19.7706C29.2306 19.7706 28.7993 19.5447 28.5026 19.0928V19.6816H27.907V14.8891H28.5026V16.8472C28.7993 16.3954 29.2306 16.1694 29.7966 16.1694ZM29.7213 19.1955C30.0636 19.1955 30.3512 19.0792 30.5839 18.8464C30.8167 18.609 30.9331 18.3169 30.9331 17.97C30.9331 17.6231 30.8167 17.3333 30.5839 17.1005C30.3512 16.8632 30.0636 16.7445 29.7213 16.7445C29.3744 16.7445 29.0846 16.8632 28.8518 17.1005C28.619 17.3333 28.5026 17.6231 28.5026 17.97C28.5026 18.3169 28.619 18.609 28.8518 18.8464C29.0846 19.0792 29.3744 19.1955 29.7213 19.1955ZM35.1972 19.2503C34.8457 19.5972 34.4189 19.7706 33.9169 19.7706C33.4148 19.7706 32.988 19.5972 32.6366 19.2503C32.2897 18.9034 32.1163 18.4767 32.1163 17.97C32.1163 17.4634 32.2897 17.0366 32.6366 16.6898C32.988 16.3429 33.4148 16.1694 33.9169 16.1694C34.4189 16.1694 34.8457 16.3429 35.1972 16.6898C35.5486 17.0366 35.7243 17.4634 35.7243 17.97C35.7243 18.4767 35.5486 18.9034 35.1972 19.2503ZM33.9169 19.1887C34.2592 19.1887 34.5467 19.0723 34.7795 18.8395C35.0123 18.6068 35.1287 18.3169 35.1287 17.97C35.1287 17.6231 35.0123 17.3333 34.7795 17.1005C34.5467 16.8678 34.2592 16.7514 33.9169 16.7514C33.5791 16.7514 33.2938 16.8678 33.0611 17.1005C32.8283 17.3333 32.7119 17.6231 32.7119 17.97C32.7119 18.3169 32.8283 18.6068 33.0611 18.8395C33.2938 19.0723 33.5791 19.1887 33.9169 19.1887ZM39.3294 16.2584H39.925V19.6816H39.3294V19.0928C39.0327 19.5447 38.6014 19.7706 38.0354 19.7706C37.5562 19.7706 37.1477 19.5972 36.8099 19.2503C36.4722 18.8989 36.3033 18.4721 36.3033 17.97C36.3033 17.468 36.4722 17.0435 36.8099 16.6966C37.1477 16.3451 37.5562 16.1694 38.0354 16.1694C38.6014 16.1694 39.0327 16.3954 39.3294 16.8472V16.2584ZM38.1107 19.1955C38.4576 19.1955 38.7475 19.0792 38.9802 18.8464C39.213 18.609 39.3294 18.3169 39.3294 17.97C39.3294 17.6231 39.213 17.3333 38.9802 17.1005C38.7475 16.8632 38.4576 16.7445 38.1107 16.7445C37.7684 16.7445 37.4809 16.8632 37.2481 17.1005C37.0153 17.3333 36.8989 17.6231 36.8989 17.97C36.8989 18.3169 37.0153 18.609 37.2481 18.8464C37.4809 19.0792 37.7684 19.1955 38.1107 19.1955ZM41.4916 16.8335C41.6879 16.409 42.0439 16.1968 42.5596 16.1968V16.8198C42.2675 16.8061 42.0165 16.8837 41.8065 17.0526C41.5966 17.2215 41.4916 17.4931 41.4916 17.8673V19.6816H40.896V16.2584H41.4916V16.8335ZM45.8581 14.8891H46.4538V19.6816H45.8581V19.0928C45.5614 19.5447 45.1301 19.7706 44.5641 19.7706C44.0849 19.7706 43.6764 19.5972 43.3386 19.2503C43.0009 18.8989 42.832 18.4721 42.832 17.97C42.832 17.468 43.0009 17.0435 43.3386 16.6966C43.6764 16.3451 44.0849 16.1694 44.5641 16.1694C45.1301 16.1694 45.5614 16.3954 45.8581 16.8472V14.8891ZM44.6395 19.1955C44.9863 19.1955 45.2762 19.0792 45.5089 18.8464C45.7417 18.609 45.8581 18.3169 45.8581 17.97C45.8581 17.6231 45.7417 17.3333 45.5089 17.1005C45.2762 16.8632 44.9863 16.7445 44.6395 16.7445C44.2971 16.7445 44.0096 16.8632 43.7768 17.1005C43.544 17.3333 43.4276 17.6231 43.4276 17.97C43.4276 18.3169 43.544 18.609 43.7768 18.8464C44.0096 19.0792 44.2971 19.1955 44.6395 19.1955Z" fill="#E2E8F0"/>
<rect x="11.0865" y="25.9609" width="48.3529" height="34.2321" rx="1.71161" fill="#10B981"/>
<rect x="62.8625" y="25.9609" width="48.3529" height="34.2321" rx="1.71161" fill="#020617"/>
<rect x="11.0865" y="63.6162" width="48.3529" height="34.2321" rx="1.71161" fill="#94A3B8"/>
<rect x="62.8625" y="63.6162" width="48.3529" height="34.2321" rx="1.71161" fill="#F59E0B"/>
<path d="M58.8923 102.354C58.7459 102.497 58.6913 102.708 58.7488 102.905L60.0841 107.497C60.1418 107.705 60.3075 107.852 60.518 107.891C60.7322 107.932 61.0041 107.79 61.1178 107.606L62.0003 106.17C62.0907 106.022 62.0681 105.832 61.9451 105.711L60.2908 104.066C60.2047 103.984 60.2047 103.847 60.2908 103.764C60.3741 103.681 60.5091 103.681 60.5952 103.764L62.2498 105.411C62.3724 105.533 62.5634 105.556 62.7116 105.466L64.1617 104.589C64.334 104.486 64.4317 104.309 64.4317 104.115C64.4317 104.092 64.4317 104.066 64.4288 104.044C64.4001 103.821 64.2479 103.644 64.0325 103.578L59.4466 102.217C59.2513 102.157 59.0388 102.211 58.8923 102.354Z" fill="#020617"/>
<rect x="63.2905" y="108.469" width="19.467" height="11.467" rx="2.73349" fill="#020617"/>
<path d="M66.4347 111.608H66.7941V115.202H66.4347V111.608ZM69.8261 111.608H70.165V115.202H69.8261V114.699C69.5899 115.075 69.2442 115.264 68.7889 115.264C68.4226 115.264 68.1094 115.134 67.8492 114.874C67.5925 114.613 67.4641 114.295 67.4641 113.918C67.4641 113.542 67.5925 113.224 67.8492 112.963C68.1094 112.703 68.4226 112.573 68.7889 112.573C69.2442 112.573 69.5899 112.761 69.8261 113.138V111.608ZM68.0957 114.642C68.2908 114.838 68.5304 114.935 68.8145 114.935C69.0987 114.935 69.3383 114.838 69.5334 114.642C69.7285 114.444 69.8261 114.203 69.8261 113.918C69.8261 113.634 69.7285 113.395 69.5334 113.2C69.3383 113.001 69.0987 112.902 68.8145 112.902C68.5304 112.902 68.2908 113.001 68.0957 113.2C67.9005 113.395 67.803 113.634 67.803 113.918C67.803 114.203 67.9005 114.444 68.0957 114.642ZM72.12 112.573C72.5 112.573 72.8064 112.708 73.0392 112.979C73.2754 113.246 73.3935 113.562 73.3935 113.929C73.3935 113.966 73.3901 114.019 73.3832 114.088H71.129C71.1633 114.348 71.2728 114.555 71.4576 114.709C71.6459 114.86 71.877 114.935 72.1509 114.935C72.346 114.935 72.5137 114.896 72.6541 114.817C72.7978 114.735 72.9057 114.629 72.9776 114.499L73.2754 114.673C73.1624 114.855 73.0084 114.998 72.8132 115.105C72.6181 115.211 72.3956 115.264 72.1457 115.264C71.7418 115.264 71.4131 115.137 71.1598 114.884C70.9065 114.63 70.7799 114.309 70.7799 113.918C70.7799 113.535 70.9048 113.215 71.1547 112.958C71.4046 112.701 71.7264 112.573 72.12 112.573ZM72.12 112.902C71.853 112.902 71.6288 112.982 71.4474 113.143C71.2694 113.301 71.1633 113.506 71.129 113.759H73.0443C73.0101 113.489 72.9057 113.278 72.7311 113.128C72.5565 112.977 72.3528 112.902 72.12 112.902ZM76.1919 112.635H76.5308V115.202H76.1919V114.699C75.9557 115.075 75.6099 115.264 75.1546 115.264C74.7884 115.264 74.4751 115.134 74.215 114.874C73.9582 114.613 73.8299 114.295 73.8299 113.918C73.8299 113.542 73.9582 113.224 74.215 112.963C74.4751 112.703 74.7884 112.573 75.1546 112.573C75.6099 112.573 75.9557 112.761 76.1919 113.138V112.635ZM74.4614 114.642C74.6566 114.838 74.8962 114.935 75.1803 114.935C75.4644 114.935 75.7041 114.838 75.8992 114.642C76.0943 114.444 76.1919 114.203 76.1919 113.918C76.1919 113.634 76.0943 113.395 75.8992 113.2C75.7041 113.001 75.4644 112.902 75.1803 112.902C74.8962 112.902 74.6566 113.001 74.4614 113.2C74.2663 113.395 74.1688 113.634 74.1688 113.918C74.1688 114.203 74.2663 114.444 74.4614 114.642ZM77.5667 113.307C77.5667 113.424 77.618 113.516 77.7207 113.585C77.8234 113.653 77.9484 113.706 78.0956 113.744C78.2428 113.782 78.39 113.824 78.5372 113.872C78.6844 113.917 78.8093 113.994 78.912 114.103C79.0147 114.209 79.0661 114.35 79.0661 114.524C79.0661 114.743 78.9788 114.921 78.8042 115.058C78.633 115.195 78.4105 115.264 78.1366 115.264C77.8902 115.264 77.6796 115.209 77.5051 115.099C77.3339 114.99 77.2141 114.848 77.1456 114.673L77.4332 114.504C77.4811 114.637 77.5667 114.743 77.6899 114.822C77.8166 114.897 77.9655 114.935 78.1366 114.935C78.3044 114.935 78.4447 114.903 78.5577 114.838C78.6707 114.769 78.7272 114.665 78.7272 114.524C78.7272 114.408 78.6758 114.316 78.5731 114.247C78.4704 114.179 78.3455 114.126 78.1983 114.088C78.0511 114.05 77.9039 114.009 77.7567 113.965C77.6095 113.917 77.4845 113.84 77.3818 113.734C77.2791 113.624 77.2278 113.482 77.2278 113.307C77.2278 113.099 77.3099 112.924 77.4743 112.784C77.642 112.643 77.8525 112.573 78.1058 112.573C78.3147 112.573 78.4978 112.621 78.6553 112.717C78.8127 112.809 78.9291 112.936 79.0044 113.097L78.722 113.261C78.6227 113.022 78.4174 112.902 78.1058 112.902C77.9586 112.902 77.832 112.938 77.7259 113.01C77.6197 113.078 77.5667 113.177 77.5667 113.307Z" fill="white"/>
</svg>
