<svg width="311" height="48" viewBox="0 0 311 48" fill="none" xmlns="http://www.w3.org/2000/svg">
<rect width="311" height="48" rx="24" fill="#292C33"/>
<path d="M24 29.12H40V13.12H24V29.12ZM47.328 26.592H52.16V28H45.84V16.8H47.328V26.592ZM54.492 24.64C54.6307 25.3547 54.956 25.9093 55.468 26.304C55.9907 26.6987 56.6307 26.896 57.388 26.896C58.444 26.896 59.212 26.5067 59.692 25.728L60.876 26.4C60.0973 27.6053 58.924 28.208 57.356 28.208C56.0867 28.208 55.052 27.8133 54.252 27.024C53.4627 26.224 53.068 25.216 53.068 24C53.068 22.7947 53.4573 21.792 54.236 20.992C55.0147 20.192 56.0227 19.792 57.26 19.792C58.4333 19.792 59.388 20.208 60.124 21.04C60.8707 21.8613 61.244 22.8533 61.244 24.016C61.244 24.2187 61.228 24.4267 61.196 24.64H54.492ZM57.26 21.104C56.5133 21.104 55.8947 21.3173 55.404 21.744C54.9133 22.16 54.6093 22.72 54.492 23.424H59.836C59.7187 22.6667 59.42 22.0907 58.94 21.696C58.46 21.3013 57.9 21.104 57.26 21.104ZM69.7725 20H71.1645V28H69.7725V26.624C69.0792 27.68 68.0712 28.208 66.7485 28.208C65.6285 28.208 64.6738 27.8027 63.8845 26.992C63.0952 26.1707 62.7005 25.1733 62.7005 24C62.7005 22.8267 63.0952 21.8347 63.8845 21.024C64.6738 20.2027 65.6285 19.792 66.7485 19.792C68.0712 19.792 69.0792 20.32 69.7725 21.376V20ZM66.9245 26.864C67.7352 26.864 68.4125 26.592 68.9565 26.048C69.5005 25.4933 69.7725 24.8107 69.7725 24C69.7725 23.1893 69.5005 22.512 68.9565 21.968C68.4125 21.4133 67.7352 21.136 66.9245 21.136C66.1245 21.136 65.4525 21.4133 64.9085 21.968C64.3645 22.512 64.0925 23.1893 64.0925 24C64.0925 24.8107 64.3645 25.4933 64.9085 26.048C65.4525 26.592 66.1245 26.864 66.9245 26.864ZM74.9855 21.344C75.4442 20.352 76.2762 19.856 77.4815 19.856V21.312C76.7988 21.28 76.2122 21.4613 75.7215 21.856C75.2308 22.2507 74.9855 22.8853 74.9855 23.76V28H73.5935V20H74.9855V21.344ZM83.1475 19.792C84.0862 19.792 84.8382 20.0907 85.4035 20.688C85.9688 21.2747 86.2515 22.0747 86.2515 23.088V28H84.8595V23.168C84.8595 22.5173 84.6835 22.016 84.3315 21.664C83.9795 21.3013 83.4942 21.12 82.8755 21.12C82.1822 21.12 81.6222 21.3387 81.1955 21.776C80.7688 22.2027 80.5555 22.864 80.5555 23.76V28H79.1635V20H80.5555V21.152C81.1208 20.2453 81.9848 19.792 83.1475 19.792ZM93.5387 18.544C93.2721 18.544 93.0481 18.4533 92.8667 18.272C92.6854 18.0907 92.5947 17.872 92.5947 17.616C92.5947 17.36 92.6854 17.1413 92.8667 16.96C93.0481 16.768 93.2721 16.672 93.5387 16.672C93.7947 16.672 94.0134 16.768 94.1947 16.96C94.3761 17.1413 94.4667 17.36 94.4667 17.616C94.4667 17.872 94.3761 18.0907 94.1947 18.272C94.0134 18.4533 93.7947 18.544 93.5387 18.544ZM92.8347 28V20H94.2267V28H92.8347ZM100.654 19.792C101.593 19.792 102.345 20.0907 102.91 20.688C103.476 21.2747 103.758 22.0747 103.758 23.088V28H102.366V23.168C102.366 22.5173 102.19 22.016 101.838 21.664C101.486 21.3013 101.001 21.12 100.382 21.12C99.689 21.12 99.129 21.3387 98.7024 21.776C98.2757 22.2027 98.0624 22.864 98.0624 23.76V28H96.6704V20H98.0624V21.152C98.6277 20.2453 99.4917 19.792 100.654 19.792ZM116.966 20H118.358V28H116.966V26.624C116.272 27.68 115.264 28.208 113.942 28.208C112.822 28.208 111.867 27.8027 111.078 26.992C110.288 26.1707 109.894 25.1733 109.894 24C109.894 22.8267 110.288 21.8347 111.078 21.024C111.867 20.2027 112.822 19.792 113.942 19.792C115.264 19.792 116.272 20.32 116.966 21.376V20ZM114.118 26.864C114.928 26.864 115.606 26.592 116.15 26.048C116.694 25.4933 116.966 24.8107 116.966 24C116.966 23.1893 116.694 22.512 116.15 21.968C115.606 21.4133 114.928 21.136 114.118 21.136C113.318 21.136 112.646 21.4133 112.102 21.968C111.558 22.512 111.286 23.1893 111.286 24C111.286 24.8107 111.558 25.4933 112.102 26.048C112.646 26.592 113.318 26.864 114.118 26.864ZM130.515 28.208C128.819 28.208 127.416 27.648 126.307 26.528C125.208 25.408 124.659 24.032 124.659 22.4C124.659 20.768 125.208 19.392 126.307 18.272C127.416 17.152 128.819 16.592 130.515 16.592C131.539 16.592 132.477 16.8373 133.331 17.328C134.195 17.8187 134.867 18.48 135.347 19.312L134.051 20.064C133.731 19.4453 133.251 18.9547 132.611 18.592C131.981 18.2187 131.283 18.032 130.515 18.032C129.224 18.032 128.168 18.448 127.347 19.28C126.536 20.112 126.131 21.152 126.131 22.4C126.131 23.6373 126.536 24.672 127.347 25.504C128.168 26.336 129.224 26.752 130.515 26.752C131.283 26.752 131.981 26.5707 132.611 26.208C133.251 25.8347 133.731 25.344 134.051 24.736L135.347 25.472C134.877 26.304 134.211 26.9707 133.347 27.472C132.483 27.9627 131.539 28.208 130.515 28.208ZM143.929 26.992C143.107 27.8027 142.11 28.208 140.937 28.208C139.763 28.208 138.766 27.8027 137.945 26.992C137.134 26.1813 136.729 25.184 136.729 24C136.729 22.816 137.134 21.8187 137.945 21.008C138.766 20.1973 139.763 19.792 140.937 19.792C142.11 19.792 143.107 20.1973 143.929 21.008C144.75 21.8187 145.161 22.816 145.161 24C145.161 25.184 144.75 26.1813 143.929 26.992ZM140.937 26.848C141.737 26.848 142.409 26.576 142.953 26.032C143.497 25.488 143.769 24.8107 143.769 24C143.769 23.1893 143.497 22.512 142.953 21.968C142.409 21.424 141.737 21.152 140.937 21.152C140.147 21.152 139.481 21.424 138.937 21.968C138.393 22.512 138.121 23.1893 138.121 24C138.121 24.8107 138.393 25.488 138.937 26.032C139.481 26.576 140.147 26.848 140.937 26.848ZM148.514 21.344C148.972 20.352 149.804 19.856 151.01 19.856V21.312C150.327 21.28 149.74 21.4613 149.25 21.856C148.759 22.2507 148.514 22.8853 148.514 23.76V28H147.122V20H148.514V21.344ZM157.108 19.792C158.228 19.792 159.182 20.2027 159.972 21.024C160.761 21.8347 161.156 22.8267 161.156 24C161.156 25.1733 160.761 26.1707 159.972 26.992C159.182 27.8027 158.228 28.208 157.108 28.208C155.785 28.208 154.777 27.68 154.084 26.624V31.2H152.692V20H154.084V21.376C154.777 20.32 155.785 19.792 157.108 19.792ZM156.932 26.864C157.732 26.864 158.404 26.592 158.948 26.048C159.492 25.4933 159.764 24.8107 159.764 24C159.764 23.1893 159.492 22.512 158.948 21.968C158.404 21.4133 157.732 21.136 156.932 21.136C156.121 21.136 155.444 21.4133 154.9 21.968C154.356 22.512 154.084 23.1893 154.084 24C154.084 24.8107 154.356 25.4933 154.9 26.048C155.444 26.592 156.121 26.864 156.932 26.864ZM169.889 26.992C169.067 27.8027 168.07 28.208 166.897 28.208C165.723 28.208 164.726 27.8027 163.905 26.992C163.094 26.1813 162.689 25.184 162.689 24C162.689 22.816 163.094 21.8187 163.905 21.008C164.726 20.1973 165.723 19.792 166.897 19.792C168.07 19.792 169.067 20.1973 169.889 21.008C170.71 21.8187 171.121 22.816 171.121 24C171.121 25.184 170.71 26.1813 169.889 26.992ZM166.897 26.848C167.697 26.848 168.369 26.576 168.913 26.032C169.457 25.488 169.729 24.8107 169.729 24C169.729 23.1893 169.457 22.512 168.913 21.968C168.369 21.424 167.697 21.152 166.897 21.152C166.107 21.152 165.441 21.424 164.897 21.968C164.353 22.512 164.081 23.1893 164.081 24C164.081 24.8107 164.353 25.488 164.897 26.032C165.441 26.576 166.107 26.848 166.897 26.848ZM174.474 21.344C174.932 20.352 175.764 19.856 176.97 19.856V21.312C176.287 21.28 175.7 21.4613 175.21 21.856C174.719 22.2507 174.474 22.8853 174.474 23.76V28H173.082V20H174.474V21.344ZM184.838 20H186.23V28H184.838V26.624C184.145 27.68 183.137 28.208 181.814 28.208C180.694 28.208 179.739 27.8027 178.95 26.992C178.161 26.1707 177.766 25.1733 177.766 24C177.766 22.8267 178.161 21.8347 178.95 21.024C179.739 20.2027 180.694 19.792 181.814 19.792C183.137 19.792 184.145 20.32 184.838 21.376V20ZM181.99 26.864C182.801 26.864 183.478 26.592 184.022 26.048C184.566 25.4933 184.838 24.8107 184.838 24C184.838 23.1893 184.566 22.512 184.022 21.968C183.478 21.4133 182.801 21.136 181.99 21.136C181.19 21.136 180.518 21.4133 179.974 21.968C179.43 22.512 179.158 23.1893 179.158 24C179.158 24.8107 179.43 25.4933 179.974 26.048C180.518 26.592 181.19 26.864 181.99 26.864ZM193.011 21.344H190.883V25.68C190.883 26.0747 190.958 26.3573 191.107 26.528C191.267 26.688 191.507 26.7733 191.827 26.784C192.147 26.784 192.542 26.7733 193.011 26.752V28C191.795 28.16 190.904 28.064 190.339 27.712C189.774 27.3493 189.491 26.672 189.491 25.68V21.344H187.907V20H189.491V18.176L190.883 17.76V20H193.011V21.344ZM195.549 24.64C195.688 25.3547 196.013 25.9093 196.525 26.304C197.048 26.6987 197.688 26.896 198.445 26.896C199.501 26.896 200.269 26.5067 200.749 25.728L201.933 26.4C201.154 27.6053 199.981 28.208 198.413 28.208C197.144 28.208 196.109 27.8133 195.309 27.024C194.52 26.224 194.125 25.216 194.125 24C194.125 22.7947 194.514 21.792 195.293 20.992C196.072 20.192 197.08 19.792 198.317 19.792C199.49 19.792 200.445 20.208 201.181 21.04C201.928 21.8613 202.301 22.8533 202.301 24.016C202.301 24.2187 202.285 24.4267 202.253 24.64H195.549ZM198.317 21.104C197.57 21.104 196.952 21.3173 196.461 21.744C195.97 22.16 195.666 22.72 195.549 23.424H200.893C200.776 22.6667 200.477 22.0907 199.997 21.696C199.517 21.3013 198.957 21.104 198.317 21.104ZM210.173 26.592H215.373V28H208.685V16.8H215.293V18.208H210.173V21.648H214.893V23.04H210.173V26.592ZM220.933 28.208C219.728 28.208 218.725 27.808 217.925 27.008C217.125 26.1973 216.725 25.1947 216.725 24C216.725 22.8053 217.125 21.808 217.925 21.008C218.725 20.1973 219.728 19.792 220.933 19.792C221.723 19.792 222.432 19.984 223.061 20.368C223.691 20.7413 224.16 21.248 224.469 21.888L223.301 22.56C223.099 22.1333 222.784 21.792 222.357 21.536C221.941 21.28 221.467 21.152 220.933 21.152C220.133 21.152 219.461 21.424 218.917 21.968C218.384 22.512 218.117 23.1893 218.117 24C218.117 24.8 218.384 25.472 218.917 26.016C219.461 26.56 220.133 26.832 220.933 26.832C221.467 26.832 221.947 26.7093 222.373 26.464C222.8 26.208 223.125 25.8667 223.349 25.44L224.533 26.128C224.192 26.7573 223.701 27.264 223.061 27.648C222.421 28.0213 221.712 28.208 220.933 28.208ZM232.871 26.992C232.049 27.8027 231.052 28.208 229.879 28.208C228.705 28.208 227.708 27.8027 226.887 26.992C226.076 26.1813 225.671 25.184 225.671 24C225.671 22.816 226.076 21.8187 226.887 21.008C227.708 20.1973 228.705 19.792 229.879 19.792C231.052 19.792 232.049 20.1973 232.871 21.008C233.692 21.8187 234.102 22.816 234.102 24C234.102 25.184 233.692 26.1813 232.871 26.992ZM229.879 26.848C230.679 26.848 231.351 26.576 231.895 26.032C232.439 25.488 232.711 24.8107 232.711 24C232.711 23.1893 232.439 22.512 231.895 21.968C231.351 21.424 230.679 21.152 229.879 21.152C229.089 21.152 228.423 21.424 227.879 21.968C227.335 22.512 227.062 23.1893 227.062 24C227.062 24.8107 227.335 25.488 227.879 26.032C228.423 26.576 229.089 26.848 229.879 26.848ZM237.092 22.16C237.092 22.4693 237.246 22.72 237.556 22.912C237.865 23.0933 238.238 23.2427 238.676 23.36C239.113 23.4667 239.55 23.5947 239.988 23.744C240.425 23.8827 240.798 24.128 241.108 24.48C241.417 24.8213 241.572 25.264 241.572 25.808C241.572 26.5333 241.289 27.1147 240.724 27.552C240.169 27.9893 239.454 28.208 238.58 28.208C237.801 28.208 237.134 28.0373 236.58 27.696C236.025 27.3547 235.63 26.9013 235.396 26.336L236.596 25.648C236.724 26.032 236.964 26.336 237.316 26.56C237.668 26.784 238.089 26.896 238.58 26.896C239.038 26.896 239.417 26.8107 239.716 26.64C240.014 26.4587 240.164 26.1813 240.164 25.808C240.164 25.4987 240.009 25.2533 239.7 25.072C239.39 24.88 239.017 24.7307 238.58 24.624C238.142 24.5067 237.705 24.3733 237.268 24.224C236.83 24.0747 236.457 23.8293 236.148 23.488C235.838 23.1467 235.684 22.7093 235.684 22.176C235.684 21.4827 235.95 20.912 236.484 20.464C237.028 20.016 237.705 19.792 238.516 19.792C239.166 19.792 239.742 19.9413 240.244 20.24C240.756 20.528 241.14 20.9333 241.396 21.456L240.228 22.112C239.94 21.4293 239.369 21.088 238.516 21.088C238.121 21.088 237.785 21.184 237.508 21.376C237.23 21.5573 237.092 21.8187 237.092 22.16ZM248.717 20H250.205L246.941 28.496C246.6 29.4027 246.12 30.0907 245.501 30.56C244.893 31.04 244.189 31.2533 243.389 31.2V29.904C244.371 29.9787 245.091 29.4347 245.549 28.272L245.693 27.968L242.205 20H243.693L246.413 26.272L248.717 20ZM252.388 22.16C252.388 22.4693 252.543 22.72 252.852 22.912C253.161 23.0933 253.535 23.2427 253.972 23.36C254.409 23.4667 254.847 23.5947 255.284 23.744C255.721 23.8827 256.095 24.128 256.404 24.48C256.713 24.8213 256.868 25.264 256.868 25.808C256.868 26.5333 256.585 27.1147 256.02 27.552C255.465 27.9893 254.751 28.208 253.876 28.208C253.097 28.208 252.431 28.0373 251.876 27.696C251.321 27.3547 250.927 26.9013 250.692 26.336L251.892 25.648C252.02 26.032 252.26 26.336 252.612 26.56C252.964 26.784 253.385 26.896 253.876 26.896C254.335 26.896 254.713 26.8107 255.012 26.64C255.311 26.4587 255.46 26.1813 255.46 25.808C255.46 25.4987 255.305 25.2533 254.996 25.072C254.687 24.88 254.313 24.7307 253.876 24.624C253.439 24.5067 253.001 24.3733 252.564 24.224C252.127 24.0747 251.753 23.8293 251.444 23.488C251.135 23.1467 250.98 22.7093 250.98 22.176C250.98 21.4827 251.247 20.912 251.78 20.464C252.324 20.016 253.001 19.792 253.812 19.792C254.463 19.792 255.039 19.9413 255.54 20.24C256.052 20.528 256.436 20.9333 256.692 21.456L255.524 22.112C255.236 21.4293 254.665 21.088 253.812 21.088C253.417 21.088 253.081 21.184 252.804 21.376C252.527 21.5573 252.388 21.8187 252.388 22.16ZM262.875 21.344H260.747V25.68C260.747 26.0747 260.822 26.3573 260.971 26.528C261.131 26.688 261.371 26.7733 261.691 26.784C262.011 26.784 262.406 26.7733 262.875 26.752V28C261.659 28.16 260.769 28.064 260.203 27.712C259.638 27.3493 259.355 26.672 259.355 25.68V21.344H257.771V20H259.355V18.176L260.747 17.76V20H262.875V21.344ZM265.413 24.64C265.552 25.3547 265.877 25.9093 266.389 26.304C266.912 26.6987 267.552 26.896 268.309 26.896C269.365 26.896 270.133 26.5067 270.613 25.728L271.797 26.4C271.019 27.6053 269.845 28.208 268.277 28.208C267.008 28.208 265.973 27.8133 265.173 27.024C264.384 26.224 263.989 25.216 263.989 24C263.989 22.7947 264.379 21.792 265.157 20.992C265.936 20.192 266.944 19.792 268.181 19.792C269.355 19.792 270.309 20.208 271.045 21.04C271.792 21.8613 272.165 22.8533 272.165 24.016C272.165 24.2187 272.149 24.4267 272.117 24.64H265.413ZM268.181 21.104C267.435 21.104 266.816 21.3173 266.325 21.744C265.835 22.16 265.531 22.72 265.413 23.424H270.757C270.64 22.6667 270.341 22.0907 269.861 21.696C269.381 21.3013 268.821 21.104 268.181 21.104ZM282.725 19.792C283.621 19.792 284.347 20.0853 284.901 20.672C285.456 21.248 285.733 22.032 285.733 23.024V28H284.341V23.072C284.341 22.4533 284.181 21.9733 283.861 21.632C283.541 21.2907 283.115 21.12 282.581 21.12C281.984 21.12 281.504 21.3227 281.141 21.728C280.789 22.1227 280.613 22.7307 280.613 23.552V28H279.221V23.072C279.221 22.4533 279.067 21.9733 278.757 21.632C278.459 21.2907 278.048 21.12 277.525 21.12C276.939 21.12 276.448 21.3227 276.053 21.728C275.669 22.1333 275.477 22.7413 275.477 23.552V28H274.085V20H275.477V21.072C276.021 20.2187 276.816 19.792 277.861 19.792C278.939 19.792 279.723 20.2453 280.213 21.152C280.768 20.2453 281.605 19.792 282.725 19.792Z" fill="#F8FAFC"/>
</svg>
