<svg width="121" height="129" viewBox="0 0 121 129" fill="none" xmlns="http://www.w3.org/2000/svg">
<rect x="0.331543" y="0.637695" width="120.668" height="128.371" rx="10.2696" fill="#3A3C43"/>
<path d="M11.4568 27.5957H19.6461C19.7643 27.5957 19.8601 27.6915 19.8601 27.8097C19.8601 27.8469 19.8504 27.8835 19.8319 27.9158L18.3032 30.591L19.8319 33.2662C19.8905 33.3688 19.8549 33.4995 19.7523 33.5581C19.72 33.5766 19.6834 33.5863 19.6461 33.5863H12.3126V35.7258H11.4568V27.5957Z" fill="#E2E8F0"/>
<path d="M28.7698 27.9557V28.7088H26.9983V33.9463H26.2109V28.7088H24.448V27.9557H28.7698ZM32.4003 33.4071C31.961 33.8407 31.4275 34.0575 30.7999 34.0575C30.1723 34.0575 29.6389 33.8407 29.1996 33.4071C28.766 32.9735 28.5492 32.4401 28.5492 31.8068C28.5492 31.1735 28.766 30.64 29.1996 30.2064C29.6389 29.7728 30.1723 29.556 30.7999 29.556C31.4275 29.556 31.961 29.7728 32.4003 30.2064C32.8396 30.64 33.0592 31.1735 33.0592 31.8068C33.0592 32.4401 32.8396 32.9735 32.4003 33.4071ZM30.7999 33.3301C31.2278 33.3301 31.5873 33.1846 31.8782 32.8937C32.1692 32.6027 32.3147 32.2404 32.3147 31.8068C32.3147 31.3732 32.1692 31.0109 31.8782 30.7199C31.5873 30.4289 31.2278 30.2834 30.7999 30.2834C30.3777 30.2834 30.0211 30.4289 29.7302 30.7199C29.4392 31.0109 29.2937 31.3732 29.2937 31.8068C29.2937 32.2404 29.4392 32.6027 29.7302 32.8937C30.0211 33.1846 30.3777 33.3301 30.7999 33.3301ZM34.0996 31.6784V30.9595H37.2233V31.6784H34.0996ZM42.0555 27.9557H42.8001V33.9463H42.0555V33.2103C41.6847 33.7751 41.1455 34.0575 40.4381 34.0575C39.839 34.0575 39.3284 33.8407 38.9062 33.4071C38.484 32.9678 38.2729 32.4344 38.2729 31.8068C38.2729 31.1792 38.484 30.6486 38.9062 30.215C39.3284 29.7757 39.839 29.556 40.4381 29.556C41.1455 29.556 41.6847 29.8384 42.0555 30.4033V27.9557ZM40.5322 33.3387C40.9658 33.3387 41.3281 33.1932 41.6191 32.9022C41.9101 32.6055 42.0555 32.2404 42.0555 31.8068C42.0555 31.3732 41.9101 31.0109 41.6191 30.7199C41.3281 30.4232 40.9658 30.2749 40.5322 30.2749C40.1043 30.2749 39.7449 30.4232 39.4539 30.7199C39.1629 31.0109 39.0174 31.3732 39.0174 31.8068C39.0174 32.2404 39.1629 32.6055 39.4539 32.9022C39.7449 33.1932 40.1043 33.3387 40.5322 33.3387ZM47.6252 33.4071C47.1859 33.8407 46.6525 34.0575 46.0249 34.0575C45.3973 34.0575 44.8638 33.8407 44.4245 33.4071C43.9909 32.9735 43.7741 32.4401 43.7741 31.8068C43.7741 31.1735 43.9909 30.64 44.4245 30.2064C44.8638 29.7728 45.3973 29.556 46.0249 29.556C46.6525 29.556 47.1859 29.7728 47.6252 30.2064C48.0645 30.64 48.2842 31.1735 48.2842 31.8068C48.2842 32.4401 48.0645 32.9735 47.6252 33.4071ZM46.0249 33.3301C46.4528 33.3301 46.8122 33.1846 47.1032 32.8937C47.3942 32.6027 47.5396 32.2404 47.5396 31.8068C47.5396 31.3732 47.3942 31.0109 47.1032 30.7199C46.8122 30.4289 46.4528 30.2834 46.0249 30.2834C45.6027 30.2834 45.2461 30.4289 44.9551 30.7199C44.6641 31.0109 44.5187 31.3732 44.5187 31.8068C44.5187 32.2404 44.6641 32.6027 44.9551 32.8937C45.2461 33.1846 45.6027 33.3301 46.0249 33.3301ZM52.3455 33.1932H54.93V33.9463H51.5496V27.9557H52.3455V33.1932ZM56.1135 28.8885C55.9708 28.8885 55.851 28.84 55.754 28.743C55.657 28.646 55.6085 28.5291 55.6085 28.3921C55.6085 28.2552 55.657 28.1382 55.754 28.0412C55.851 27.9385 55.9708 27.8872 56.1135 27.8872C56.2504 27.8872 56.3673 27.9385 56.4643 28.0412C56.5613 28.1382 56.6098 28.2552 56.6098 28.3921C56.6098 28.5291 56.5613 28.646 56.4643 28.743C56.3673 28.84 56.2504 28.8885 56.1135 28.8885ZM55.7369 33.9463V29.6673H56.4815V33.9463H55.7369ZM58.3364 30.8226C58.3364 30.9881 58.4191 31.1221 58.5846 31.2248C58.75 31.3218 58.9497 31.4017 59.1837 31.4645C59.4176 31.5215 59.6515 31.59 59.8854 31.6699C60.1193 31.744 60.319 31.8752 60.4845 32.0635C60.6499 32.2461 60.7327 32.4829 60.7327 32.7738C60.7327 33.1618 60.5815 33.4727 60.2791 33.7067C59.9824 33.9406 59.6001 34.0575 59.1323 34.0575C58.7158 34.0575 58.3592 33.9663 58.0626 33.7837C57.7659 33.6011 57.5548 33.3586 57.4293 33.0563L58.0711 32.6883C58.1396 32.8937 58.2679 33.0563 58.4562 33.1761C58.6445 33.2959 58.8699 33.3558 59.1323 33.3558C59.3776 33.3558 59.5802 33.3101 59.7399 33.2189C59.8997 33.1219 59.9796 32.9735 59.9796 32.7738C59.9796 32.6084 59.8968 32.4772 59.7314 32.3802C59.5659 32.2775 59.3662 32.1976 59.1323 32.1405C58.8984 32.0778 58.6645 32.0065 58.4305 31.9266C58.1966 31.8467 57.9969 31.7155 57.8315 31.5329C57.666 31.3504 57.5833 31.1164 57.5833 30.8312C57.5833 30.4603 57.7259 30.1551 58.0112 29.9155C58.3022 29.6758 58.6645 29.556 59.0981 29.556C59.4461 29.556 59.7542 29.6359 60.0223 29.7956C60.2962 29.9497 60.5016 30.1665 60.6385 30.4461L60.0138 30.7969C59.8597 30.4318 59.5545 30.2492 59.0981 30.2492C58.887 30.2492 58.7073 30.3006 58.5589 30.4033C58.4106 30.5003 58.3364 30.64 58.3364 30.8226ZM63.8604 30.3861H62.7222V32.7054C62.7222 32.9165 62.7621 33.0677 62.842 33.1589C62.9276 33.2445 63.056 33.2902 63.2271 33.2959C63.3983 33.2959 63.6094 33.2902 63.8604 33.2788V33.9463C63.21 34.0319 62.7336 33.9805 62.4312 33.7922C62.1288 33.5983 61.9777 33.236 61.9777 32.7054V30.3861H61.1304V29.6673H61.9777V28.6917L62.7222 28.4691V29.6673H63.8604V30.3861Z" fill="#CBD5E1"/>
<rect x="10.6011" y="40.8604" width="100.129" height="6.84643" rx="3.42321" fill="#292C33"/>
<rect x="10.6011" y="50.2744" width="30.8089" height="6.84643" rx="3.42321" fill="#292C33"/>
<rect x="47.4006" y="50.2744" width="30.8089" height="6.84643" rx="3.42321" fill="#292C33"/>
<rect x="10.6011" y="59.6885" width="54.7714" height="6.84643" rx="3.42321" fill="#292C33"/>
<rect x="10.6011" y="69.1016" width="100.129" height="6.84643" rx="3.42321" fill="#292C33"/>
<rect x="10.6011" y="78.5156" width="30.8089" height="6.84643" rx="3.42321" fill="#292C33"/>
<rect x="47.4006" y="78.5156" width="30.8089" height="6.84643" rx="3.42321" fill="#292C33"/>
<rect x="10.6011" y="87.9297" width="54.7714" height="6.84643" rx="3.42321" fill="#292C33"/>
<rect x="10.6011" y="97.3438" width="100.129" height="6.84643" rx="3.42321" fill="#292C33"/>
</svg>
