<svg width="286" height="48" viewBox="0 0 286 48" fill="none" xmlns="http://www.w3.org/2000/svg">
<rect width="286" height="48" rx="24" fill="#292C33"/>
<path d="M24 29.12H40V13.12H24V29.12ZM45.84 16.8H47.328V28H45.84V16.8ZM53.8906 19.792C54.8293 19.792 55.5813 20.0907 56.1466 20.688C56.712 21.2747 56.9946 22.0747 56.9946 23.088V28H55.6026V23.168C55.6026 22.5173 55.4266 22.016 55.0746 21.664C54.7226 21.3013 54.2373 21.12 53.6186 21.12C52.9253 21.12 52.3653 21.3387 51.9386 21.776C51.512 22.2027 51.2986 22.864 51.2986 23.76V28H49.9066V20H51.2986V21.152C51.864 20.2453 52.728 19.792 53.8906 19.792ZM59.4019 23.76V22.416H65.2419V23.76H59.4019ZM72.0202 16.8C73.0549 16.8 73.9136 17.1467 74.5962 17.84C75.2896 18.5227 75.6362 19.376 75.6362 20.4C75.6362 21.4133 75.2896 22.2667 74.5962 22.96C73.9136 23.6533 73.0549 24 72.0202 24H69.4442V28H67.9562V16.8H72.0202ZM72.0202 22.608C72.6389 22.608 73.1509 22.4 73.5562 21.984C73.9616 21.5573 74.1642 21.0293 74.1642 20.4C74.1642 19.76 73.9616 19.232 73.5562 18.816C73.1509 18.4 72.6389 18.192 72.0202 18.192H69.4442V22.608H72.0202ZM77.9364 24.64C78.075 25.3547 78.4004 25.9093 78.9124 26.304C79.435 26.6987 80.075 26.896 80.8324 26.896C81.8884 26.896 82.6564 26.5067 83.1364 25.728L84.3204 26.4C83.5417 27.6053 82.3684 28.208 80.8004 28.208C79.531 28.208 78.4964 27.8133 77.6964 27.024C76.907 26.224 76.5124 25.216 76.5124 24C76.5124 22.7947 76.9017 21.792 77.6804 20.992C78.459 20.192 79.467 19.792 80.7044 19.792C81.8777 19.792 82.8324 20.208 83.5684 21.04C84.315 21.8613 84.6884 22.8533 84.6884 24.016C84.6884 24.2187 84.6724 24.4267 84.6404 24.64H77.9364ZM80.7044 21.104C79.9577 21.104 79.339 21.3173 78.8484 21.744C78.3577 22.16 78.0537 22.72 77.9364 23.424H83.2804C83.163 22.6667 82.8644 22.0907 82.3844 21.696C81.9044 21.3013 81.3444 21.104 80.7044 21.104ZM88.0005 21.344C88.4592 20.352 89.2912 19.856 90.4965 19.856V21.312C89.8138 21.28 89.2272 21.4613 88.7365 21.856C88.2458 22.2507 88.0005 22.8853 88.0005 23.76V28H86.6085V20H88.0005V21.344ZM93.0816 22.16C93.0816 22.4693 93.2363 22.72 93.5456 22.912C93.855 23.0933 94.2283 23.2427 94.6656 23.36C95.103 23.4667 95.5403 23.5947 95.9776 23.744C96.415 23.8827 96.7883 24.128 97.0976 24.48C97.407 24.8213 97.5616 25.264 97.5616 25.808C97.5616 26.5333 97.279 27.1147 96.7136 27.552C96.159 27.9893 95.4443 28.208 94.5696 28.208C93.791 28.208 93.1243 28.0373 92.5696 27.696C92.015 27.3547 91.6203 26.9013 91.3856 26.336L92.5856 25.648C92.7136 26.032 92.9536 26.336 93.3056 26.56C93.6576 26.784 94.079 26.896 94.5696 26.896C95.0283 26.896 95.407 26.8107 95.7056 26.64C96.0043 26.4587 96.1536 26.1813 96.1536 25.808C96.1536 25.4987 95.999 25.2533 95.6896 25.072C95.3803 24.88 95.007 24.7307 94.5696 24.624C94.1323 24.5067 93.695 24.3733 93.2576 24.224C92.8203 24.0747 92.447 23.8293 92.1376 23.488C91.8283 23.1467 91.6736 22.7093 91.6736 22.176C91.6736 21.4827 91.9403 20.912 92.4736 20.464C93.0176 20.016 93.695 19.792 94.5056 19.792C95.1563 19.792 95.7323 19.9413 96.2336 20.24C96.7456 20.528 97.1296 20.9333 97.3856 21.456L96.2176 22.112C95.9296 21.4293 95.359 21.088 94.5056 21.088C94.111 21.088 93.775 21.184 93.4976 21.376C93.2203 21.5573 93.0816 21.8187 93.0816 22.16ZM106.063 26.992C105.242 27.8027 104.244 28.208 103.071 28.208C101.898 28.208 100.9 27.8027 100.079 26.992C99.2683 26.1813 98.863 25.184 98.863 24C98.863 22.816 99.2683 21.8187 100.079 21.008C100.9 20.1973 101.898 19.792 103.071 19.792C104.244 19.792 105.242 20.1973 106.063 21.008C106.884 21.8187 107.295 22.816 107.295 24C107.295 25.184 106.884 26.1813 106.063 26.992ZM103.071 26.848C103.871 26.848 104.543 26.576 105.087 26.032C105.631 25.488 105.903 24.8107 105.903 24C105.903 23.1893 105.631 22.512 105.087 21.968C104.543 21.424 103.871 21.152 103.071 21.152C102.282 21.152 101.615 21.424 101.071 21.968C100.527 22.512 100.255 23.1893 100.255 24C100.255 24.8107 100.527 25.488 101.071 26.032C101.615 26.576 102.282 26.848 103.071 26.848ZM113.24 19.792C114.179 19.792 114.931 20.0907 115.496 20.688C116.061 21.2747 116.344 22.0747 116.344 23.088V28H114.952V23.168C114.952 22.5173 114.776 22.016 114.424 21.664C114.072 21.3013 113.587 21.12 112.968 21.12C112.275 21.12 111.715 21.3387 111.288 21.776C110.861 22.2027 110.648 22.864 110.648 23.76V28H109.256V20H110.648V21.152C111.213 20.2453 112.077 19.792 113.24 19.792ZM129.519 18.208H124.559V21.84H129.311V23.248H124.559V28H123.071V16.8H129.519V18.208ZM137.017 20H138.409V28H137.017V26.848C136.452 27.7547 135.588 28.208 134.425 28.208C133.487 28.208 132.735 27.9147 132.169 27.328C131.604 26.7307 131.321 25.9253 131.321 24.912V20H132.713V24.832C132.713 25.4827 132.889 25.9893 133.241 26.352C133.593 26.704 134.079 26.88 134.697 26.88C135.391 26.88 135.951 26.6667 136.377 26.24C136.804 25.8027 137.017 25.136 137.017 24.24V20ZM140.849 28V16.32H142.241V28H140.849ZM144.684 28V16.32H146.076V28H144.684ZM148.664 23.76V22.416H154.504V23.76H148.664ZM163.574 16.8V18.208H160.262V28H158.79V18.208H155.494V16.8H163.574ZM165.926 18.544C165.66 18.544 165.436 18.4533 165.254 18.272C165.073 18.0907 164.982 17.872 164.982 17.616C164.982 17.36 165.073 17.1413 165.254 16.96C165.436 16.768 165.66 16.672 165.926 16.672C166.182 16.672 166.401 16.768 166.582 16.96C166.764 17.1413 166.854 17.36 166.854 17.616C166.854 17.872 166.764 18.0907 166.582 18.272C166.401 18.4533 166.182 18.544 165.926 18.544ZM165.222 28V20H166.614V28H165.222ZM177.698 19.792C178.594 19.792 179.319 20.0853 179.874 20.672C180.429 21.248 180.706 22.032 180.706 23.024V28H179.314V23.072C179.314 22.4533 179.154 21.9733 178.834 21.632C178.514 21.2907 178.087 21.12 177.554 21.12C176.957 21.12 176.477 21.3227 176.114 21.728C175.762 22.1227 175.586 22.7307 175.586 23.552V28H174.194V23.072C174.194 22.4533 174.039 21.9733 173.73 21.632C173.431 21.2907 173.021 21.12 172.498 21.12C171.911 21.12 171.421 21.3227 171.026 21.728C170.642 22.1333 170.45 22.7413 170.45 23.552V28H169.058V20H170.45V21.072C170.994 20.2187 171.789 19.792 172.834 19.792C173.911 19.792 174.695 20.2453 175.186 21.152C175.741 20.2453 176.578 19.792 177.698 19.792ZM183.932 24.64C184.071 25.3547 184.396 25.9093 184.908 26.304C185.431 26.6987 186.071 26.896 186.828 26.896C187.884 26.896 188.652 26.5067 189.132 25.728L190.316 26.4C189.537 27.6053 188.364 28.208 186.796 28.208C185.527 28.208 184.492 27.8133 183.692 27.024C182.903 26.224 182.508 25.216 182.508 24C182.508 22.7947 182.897 21.792 183.676 20.992C184.455 20.192 185.463 19.792 186.7 19.792C187.873 19.792 188.828 20.208 189.564 21.04C190.311 21.8613 190.684 22.8533 190.684 24.016C190.684 24.2187 190.668 24.4267 190.636 24.64H183.932ZM186.7 21.104C185.953 21.104 185.335 21.3173 184.844 21.744C184.353 22.16 184.049 22.72 183.932 23.424H189.276C189.159 22.6667 188.86 22.0907 188.38 21.696C187.9 21.3013 187.34 21.104 186.7 21.104ZM198.556 26.592H203.388V28H197.068V16.8H198.556V26.592ZM205.72 24.64C205.859 25.3547 206.184 25.9093 206.696 26.304C207.219 26.6987 207.859 26.896 208.616 26.896C209.672 26.896 210.44 26.5067 210.92 25.728L212.104 26.4C211.325 27.6053 210.152 28.208 208.584 28.208C207.315 28.208 206.28 27.8133 205.48 27.024C204.691 26.224 204.296 25.216 204.296 24C204.296 22.7947 204.685 21.792 205.464 20.992C206.243 20.192 207.251 19.792 208.488 19.792C209.661 19.792 210.616 20.208 211.352 21.04C212.099 21.8613 212.472 22.8533 212.472 24.016C212.472 24.2187 212.456 24.4267 212.424 24.64H205.72ZM208.488 21.104C207.741 21.104 207.123 21.3173 206.632 21.744C206.141 22.16 205.837 22.72 205.72 23.424H211.064C210.947 22.6667 210.648 22.0907 210.168 21.696C209.688 21.3013 209.128 21.104 208.488 21.104ZM221.001 20H222.393V28H221.001V26.624C220.307 27.68 219.299 28.208 217.977 28.208C216.857 28.208 215.902 27.8027 215.113 26.992C214.323 26.1707 213.929 25.1733 213.929 24C213.929 22.8267 214.323 21.8347 215.113 21.024C215.902 20.2027 216.857 19.792 217.977 19.792C219.299 19.792 220.307 20.32 221.001 21.376V20ZM218.153 26.864C218.963 26.864 219.641 26.592 220.185 26.048C220.729 25.4933 221.001 24.8107 221.001 24C221.001 23.1893 220.729 22.512 220.185 21.968C219.641 21.4133 218.963 21.136 218.153 21.136C217.353 21.136 216.681 21.4133 216.137 21.968C215.593 22.512 215.321 23.1893 215.321 24C215.321 24.8107 215.593 25.4933 216.137 26.048C216.681 26.592 217.353 26.864 218.153 26.864ZM226.214 21.344C226.672 20.352 227.504 19.856 228.71 19.856V21.312C228.027 21.28 227.44 21.4613 226.95 21.856C226.459 22.2507 226.214 22.8853 226.214 23.76V28H224.822V20H226.214V21.344ZM234.376 19.792C235.314 19.792 236.066 20.0907 236.632 20.688C237.197 21.2747 237.48 22.0747 237.48 23.088V28H236.088V23.168C236.088 22.5173 235.912 22.016 235.56 21.664C235.208 21.3013 234.722 21.12 234.104 21.12C233.41 21.12 232.85 21.3387 232.424 21.776C231.997 22.2027 231.784 22.864 231.784 23.76V28H230.392V20H231.784V21.152C232.349 20.2453 233.213 19.792 234.376 19.792ZM240.447 18.544C240.18 18.544 239.956 18.4533 239.775 18.272C239.594 18.0907 239.503 17.872 239.503 17.616C239.503 17.36 239.594 17.1413 239.775 16.96C239.956 16.768 240.18 16.672 240.447 16.672C240.703 16.672 240.922 16.768 241.103 16.96C241.284 17.1413 241.375 17.36 241.375 17.616C241.375 17.872 241.284 18.0907 241.103 18.272C240.922 18.4533 240.703 18.544 240.447 18.544ZM239.743 28V20H241.135V28H239.743ZM247.563 19.792C248.501 19.792 249.253 20.0907 249.819 20.688C250.384 21.2747 250.667 22.0747 250.667 23.088V28H249.275V23.168C249.275 22.5173 249.099 22.016 248.747 21.664C248.395 21.3013 247.909 21.12 247.291 21.12C246.597 21.12 246.037 21.3387 245.611 21.776C245.184 22.2027 244.971 22.864 244.971 23.76V28H243.579V20H244.971V21.152C245.536 20.2453 246.4 19.792 247.563 19.792ZM259.57 20H260.946V27.664C260.946 28.848 260.546 29.7653 259.746 30.416C258.946 31.0773 257.986 31.408 256.866 31.408C255.97 31.408 255.196 31.2373 254.546 30.896C253.895 30.5653 253.404 30.0853 253.074 29.456L254.29 28.768C254.727 29.664 255.596 30.112 256.898 30.112C257.73 30.112 258.38 29.8933 258.85 29.456C259.33 29.0187 259.57 28.4213 259.57 27.664V26.528C258.866 27.5947 257.863 28.128 256.562 28.128C255.42 28.128 254.455 27.7227 253.666 26.912C252.876 26.1013 252.482 25.1147 252.482 23.952C252.482 22.7893 252.876 21.808 253.666 21.008C254.455 20.1973 255.42 19.792 256.562 19.792C257.874 19.792 258.876 20.32 259.57 21.376V20ZM254.69 25.984C255.234 26.528 255.911 26.8 256.722 26.8C257.532 26.8 258.21 26.528 258.754 25.984C259.298 25.44 259.57 24.7627 259.57 23.952C259.57 23.152 259.298 22.48 258.754 21.936C258.21 21.392 257.532 21.12 256.722 21.12C255.911 21.12 255.234 21.392 254.69 21.936C254.146 22.48 253.874 23.152 253.874 23.952C253.874 24.7627 254.146 25.44 254.69 25.984Z" fill="#F8FAFC"/>
</svg>
