<svg width="211" height="48" viewBox="0 0 211 48" fill="none" xmlns="http://www.w3.org/2000/svg">
<rect width="211" height="48" rx="24" fill="#292C33"/>
<path d="M24 29.12H40V13.12H24V29.12ZM47.328 26.592H52.16V28H45.84V16.8H47.328V26.592ZM54.5325 18.544C54.2658 18.544 54.0418 18.4533 53.8605 18.272C53.6792 18.0907 53.5885 17.872 53.5885 17.616C53.5885 17.36 53.6792 17.1413 53.8605 16.96C54.0418 16.768 54.2658 16.672 54.5325 16.672C54.7885 16.672 55.0072 16.768 55.1885 16.96C55.3698 17.1413 55.4605 17.36 55.4605 17.616C55.4605 17.872 55.3698 18.0907 55.1885 18.272C55.0072 18.4533 54.7885 18.544 54.5325 18.544ZM53.8285 28V20H55.2205V28H53.8285ZM66.3041 19.792C67.2001 19.792 67.9255 20.0853 68.4801 20.672C69.0348 21.248 69.3121 22.032 69.3121 23.024V28H67.9201V23.072C67.9201 22.4533 67.7601 21.9733 67.4401 21.632C67.1201 21.2907 66.6935 21.12 66.1601 21.12C65.5628 21.12 65.0828 21.3227 64.7201 21.728C64.3681 22.1227 64.1921 22.7307 64.1921 23.552V28H62.8001V23.072C62.8001 22.4533 62.6455 21.9733 62.3361 21.632C62.0375 21.2907 61.6268 21.12 61.1041 21.12C60.5175 21.12 60.0268 21.3227 59.6321 21.728C59.2481 22.1333 59.0561 22.7413 59.0561 23.552V28H57.6641V20H59.0561V21.072C59.6001 20.2187 60.3948 19.792 61.4401 19.792C62.5175 19.792 63.3015 20.2453 63.7921 21.152C64.3468 20.2453 65.1841 19.792 66.3041 19.792ZM72.2662 18.544C71.9996 18.544 71.7756 18.4533 71.5942 18.272C71.4129 18.0907 71.3222 17.872 71.3222 17.616C71.3222 17.36 71.4129 17.1413 71.5942 16.96C71.7756 16.768 71.9996 16.672 72.2662 16.672C72.5222 16.672 72.7409 16.768 72.9222 16.96C73.1036 17.1413 73.1942 17.36 73.1942 17.616C73.1942 17.872 73.1036 18.0907 72.9222 18.272C72.7409 18.4533 72.5222 18.544 72.2662 18.544ZM71.5622 28V20H72.9542V28H71.5622ZM79.7499 21.344H77.6219V25.68C77.6219 26.0747 77.6965 26.3573 77.8459 26.528C78.0059 26.688 78.2459 26.7733 78.5659 26.784C78.8859 26.784 79.2805 26.7733 79.7499 26.752V28C78.5339 28.16 77.6432 28.064 77.0779 27.712C76.5125 27.3493 76.2299 26.672 76.2299 25.68V21.344H74.6459V20H76.2299V18.176L77.6219 17.76V20H79.7499V21.344ZM82.2876 24.64C82.4263 25.3547 82.7516 25.9093 83.2636 26.304C83.7863 26.6987 84.4263 26.896 85.1836 26.896C86.2396 26.896 87.0076 26.5067 87.4876 25.728L88.6716 26.4C87.893 27.6053 86.7196 28.208 85.1516 28.208C83.8823 28.208 82.8476 27.8133 82.0476 27.024C81.2583 26.224 80.8636 25.216 80.8636 24C80.8636 22.7947 81.253 21.792 82.0316 20.992C82.8103 20.192 83.8183 19.792 85.0556 19.792C86.229 19.792 87.1836 20.208 87.9196 21.04C88.6663 21.8613 89.0396 22.8533 89.0396 24.016C89.0396 24.2187 89.0236 24.4267 88.9916 24.64H82.2876ZM85.0556 21.104C84.309 21.104 83.6903 21.3173 83.1996 21.744C82.709 22.16 82.405 22.72 82.2876 23.424H87.6316C87.5143 22.6667 87.2156 22.0907 86.7356 21.696C86.2556 21.3013 85.6956 21.104 85.0556 21.104ZM97.5681 16.8H98.9601V28H97.5681V26.624C96.8748 27.68 95.8668 28.208 94.5441 28.208C93.4241 28.208 92.4695 27.8027 91.6801 26.992C90.8908 26.1707 90.4961 25.1733 90.4961 24C90.4961 22.8267 90.8908 21.8347 91.6801 21.024C92.4695 20.2027 93.4241 19.792 94.5441 19.792C95.8668 19.792 96.8748 20.32 97.5681 21.376V16.8ZM94.7201 26.864C95.5308 26.864 96.2081 26.592 96.7521 26.048C97.2961 25.4933 97.5681 24.8107 97.5681 24C97.5681 23.1893 97.2961 22.512 96.7521 21.968C96.2081 21.4133 95.5308 21.136 94.7201 21.136C93.9201 21.136 93.2481 21.4133 92.7041 21.968C92.1601 22.512 91.8881 23.1893 91.8881 24C91.8881 24.8107 92.1601 25.4933 92.7041 26.048C93.2481 26.592 93.9201 26.864 94.7201 26.864ZM109.469 28.208C108.424 28.208 107.528 27.9627 106.781 27.472C106.045 26.9813 105.528 26.3093 105.229 25.456L106.509 24.72C106.946 26.0747 107.944 26.752 109.501 26.752C110.269 26.752 110.856 26.5973 111.261 26.288C111.666 25.968 111.869 25.5467 111.869 25.024C111.869 24.4907 111.666 24.0907 111.261 23.824C110.856 23.5573 110.178 23.2747 109.229 22.976C108.76 22.8267 108.402 22.7093 108.157 22.624C107.912 22.528 107.602 22.3893 107.229 22.208C106.866 22.016 106.594 21.824 106.413 21.632C106.232 21.4293 106.066 21.168 105.917 20.848C105.778 20.528 105.709 20.1653 105.709 19.76C105.709 18.7893 106.05 18.0213 106.733 17.456C107.416 16.88 108.248 16.592 109.229 16.592C110.114 16.592 110.882 16.816 111.533 17.264C112.194 17.712 112.69 18.304 113.021 19.04L111.773 19.76C111.293 18.608 110.445 18.032 109.229 18.032C108.621 18.032 108.13 18.1813 107.757 18.48C107.384 18.7787 107.197 19.184 107.197 19.696C107.197 20.1867 107.373 20.56 107.725 20.816C108.077 21.072 108.685 21.3387 109.549 21.616C109.858 21.712 110.077 21.7813 110.205 21.824C110.333 21.8667 110.53 21.9413 110.797 22.048C111.074 22.1547 111.277 22.24 111.405 22.304C111.533 22.368 111.704 22.4587 111.917 22.576C112.141 22.6933 112.306 22.8053 112.413 22.912C112.52 23.0187 112.642 23.152 112.781 23.312C112.93 23.4613 113.037 23.616 113.101 23.776C113.165 23.936 113.218 24.1227 113.261 24.336C113.314 24.5387 113.341 24.7573 113.341 24.992C113.341 25.9733 112.984 26.7573 112.269 27.344C111.554 27.92 110.621 28.208 109.469 28.208ZM116.443 24.64C116.581 25.3547 116.907 25.9093 117.419 26.304C117.941 26.6987 118.581 26.896 119.339 26.896C120.395 26.896 121.163 26.5067 121.643 25.728L122.827 26.4C122.048 27.6053 120.875 28.208 119.307 28.208C118.037 28.208 117.003 27.8133 116.203 27.024C115.413 26.224 115.019 25.216 115.019 24C115.019 22.7947 115.408 21.792 116.187 20.992C116.965 20.192 117.973 19.792 119.211 19.792C120.384 19.792 121.339 20.208 122.075 21.04C122.821 21.8613 123.195 22.8533 123.195 24.016C123.195 24.2187 123.179 24.4267 123.147 24.64H116.443ZM119.211 21.104C118.464 21.104 117.845 21.3173 117.355 21.744C116.864 22.16 116.56 22.72 116.443 23.424H121.787C121.669 22.6667 121.371 22.0907 120.891 21.696C120.411 21.3013 119.851 21.104 119.211 21.104ZM131.723 20H133.115V28H131.723V26.624C131.03 27.68 130.022 28.208 128.699 28.208C127.579 28.208 126.624 27.8027 125.835 26.992C125.046 26.1707 124.651 25.1733 124.651 24C124.651 22.8267 125.046 21.8347 125.835 21.024C126.624 20.2027 127.579 19.792 128.699 19.792C130.022 19.792 131.03 20.32 131.723 21.376V20ZM128.875 26.864C129.686 26.864 130.363 26.592 130.907 26.048C131.451 25.4933 131.723 24.8107 131.723 24C131.723 23.1893 131.451 22.512 130.907 21.968C130.363 21.4133 129.686 21.136 128.875 21.136C128.075 21.136 127.403 21.4133 126.859 21.968C126.315 22.512 126.043 23.1893 126.043 24C126.043 24.8107 126.315 25.4933 126.859 26.048C127.403 26.592 128.075 26.864 128.875 26.864ZM139.896 21.344H137.768V25.68C137.768 26.0747 137.843 26.3573 137.992 26.528C138.152 26.688 138.392 26.7733 138.712 26.784C139.032 26.784 139.427 26.7733 139.896 26.752V28C138.68 28.16 137.789 28.064 137.224 27.712C136.659 27.3493 136.376 26.672 136.376 25.68V21.344H134.792V20H136.376V18.176L137.768 17.76V20H139.896V21.344ZM142.674 22.16C142.674 22.4693 142.828 22.72 143.138 22.912C143.447 23.0933 143.82 23.2427 144.258 23.36C144.695 23.4667 145.132 23.5947 145.57 23.744C146.007 23.8827 146.38 24.128 146.69 24.48C146.999 24.8213 147.154 25.264 147.154 25.808C147.154 26.5333 146.871 27.1147 146.306 27.552C145.751 27.9893 145.036 28.208 144.162 28.208C143.383 28.208 142.716 28.0373 142.162 27.696C141.607 27.3547 141.212 26.9013 140.978 26.336L142.178 25.648C142.306 26.032 142.546 26.336 142.898 26.56C143.25 26.784 143.671 26.896 144.162 26.896C144.62 26.896 144.999 26.8107 145.298 26.64C145.596 26.4587 145.746 26.1813 145.746 25.808C145.746 25.4987 145.591 25.2533 145.282 25.072C144.972 24.88 144.599 24.7307 144.162 24.624C143.724 24.5067 143.287 24.3733 142.85 24.224C142.412 24.0747 142.039 23.8293 141.73 23.488C141.42 23.1467 141.266 22.7093 141.266 22.176C141.266 21.4827 141.532 20.912 142.066 20.464C142.61 20.016 143.287 19.792 144.098 19.792C144.748 19.792 145.324 19.9413 145.826 20.24C146.338 20.528 146.722 20.9333 146.978 21.456L145.81 22.112C145.522 21.4293 144.951 21.088 144.098 21.088C143.703 21.088 143.367 21.184 143.09 21.376C142.812 21.5573 142.674 21.8187 142.674 22.16ZM162.898 26.512C161.778 27.6427 160.407 28.208 158.786 28.208C157.164 28.208 155.794 27.6427 154.674 26.512C153.554 25.3813 152.994 24.0107 152.994 22.4C152.994 20.7787 153.554 19.408 154.674 18.288C155.794 17.1573 157.164 16.592 158.786 16.592C160.407 16.592 161.778 17.1573 162.898 18.288C164.028 19.408 164.594 20.7787 164.594 22.4C164.594 24.0107 164.028 25.3813 162.898 26.512ZM155.698 25.504C156.53 26.336 157.559 26.752 158.786 26.752C160.012 26.752 161.036 26.336 161.858 25.504C162.69 24.6613 163.106 23.6267 163.106 22.4C163.106 21.1627 162.69 20.128 161.858 19.296C161.036 18.4533 160.012 18.032 158.786 18.032C157.559 18.032 156.53 18.4533 155.698 19.296C154.876 20.128 154.466 21.1627 154.466 22.4C154.466 23.6267 154.876 24.6613 155.698 25.504ZM170.543 19.792C171.481 19.792 172.233 20.0907 172.799 20.688C173.364 21.2747 173.647 22.0747 173.647 23.088V28H172.255V23.168C172.255 22.5173 172.079 22.016 171.727 21.664C171.375 21.3013 170.889 21.12 170.271 21.12C169.577 21.12 169.017 21.3387 168.591 21.776C168.164 22.2027 167.951 22.864 167.951 23.76V28H166.559V20H167.951V21.152C168.516 20.2453 169.38 19.792 170.543 19.792ZM175.91 28V16.32H177.302V28H175.91ZM185.329 20H186.817L183.553 28.496C183.212 29.4027 182.732 30.0907 182.113 30.56C181.505 31.04 180.801 31.2533 180.001 31.2V29.904C180.983 29.9787 181.703 29.4347 182.161 28.272L182.305 27.968L178.817 20H180.305L183.025 26.272L185.329 20Z" fill="#F8FAFC"/>
</svg>
