<svg width="254" height="48" viewBox="0 0 254 48" fill="none" xmlns="http://www.w3.org/2000/svg">
<rect width="254" height="48" rx="24" fill="#292C33"/>
<path d="M24 29.12H40V13.12H24V29.12ZM53.216 28L52.304 25.488H47.264L46.352 28H44.768L48.944 16.8H50.624L54.8 28H53.216ZM47.776 24.096H51.792L49.776 18.576L47.776 24.096ZM57.4191 22.16C57.4191 22.4693 57.5738 22.72 57.8831 22.912C58.1925 23.0933 58.5658 23.2427 59.0031 23.36C59.4405 23.4667 59.8778 23.5947 60.3151 23.744C60.7525 23.8827 61.1258 24.128 61.4351 24.48C61.7445 24.8213 61.8991 25.264 61.8991 25.808C61.8991 26.5333 61.6165 27.1147 61.0511 27.552C60.4965 27.9893 59.7818 28.208 58.9071 28.208C58.1285 28.208 57.4618 28.0373 56.9071 27.696C56.3525 27.3547 55.9578 26.9013 55.7231 26.336L56.9231 25.648C57.0511 26.032 57.2911 26.336 57.6431 26.56C57.9951 26.784 58.4165 26.896 58.9071 26.896C59.3658 26.896 59.7445 26.8107 60.0431 26.64C60.3418 26.4587 60.4911 26.1813 60.4911 25.808C60.4911 25.4987 60.3365 25.2533 60.0271 25.072C59.7178 24.88 59.3445 24.7307 58.9071 24.624C58.4698 24.5067 58.0325 24.3733 57.5951 24.224C57.1578 24.0747 56.7845 23.8293 56.4751 23.488C56.1658 23.1467 56.0111 22.7093 56.0111 22.176C56.0111 21.4827 56.2778 20.912 56.8111 20.464C57.3551 20.016 58.0325 19.792 58.8431 19.792C59.4938 19.792 60.0698 19.9413 60.5711 20.24C61.0831 20.528 61.4671 20.9333 61.7231 21.456L60.5551 22.112C60.2671 21.4293 59.6965 21.088 58.8431 21.088C58.4485 21.088 58.1125 21.184 57.8351 21.376C57.5578 21.5573 57.4191 21.8187 57.4191 22.16ZM64.5672 22.16C64.5672 22.4693 64.7219 22.72 65.0312 22.912C65.3406 23.0933 65.7139 23.2427 66.1512 23.36C66.5886 23.4667 67.0259 23.5947 67.4632 23.744C67.9006 23.8827 68.2739 24.128 68.5832 24.48C68.8926 24.8213 69.0472 25.264 69.0472 25.808C69.0472 26.5333 68.7646 27.1147 68.1992 27.552C67.6446 27.9893 66.9299 28.208 66.0552 28.208C65.2766 28.208 64.6099 28.0373 64.0552 27.696C63.5006 27.3547 63.1059 26.9013 62.8712 26.336L64.0712 25.648C64.1992 26.032 64.4392 26.336 64.7912 26.56C65.1432 26.784 65.5646 26.896 66.0552 26.896C66.5139 26.896 66.8926 26.8107 67.1912 26.64C67.4899 26.4587 67.6392 26.1813 67.6392 25.808C67.6392 25.4987 67.4846 25.2533 67.1752 25.072C66.8659 24.88 66.4926 24.7307 66.0552 24.624C65.6179 24.5067 65.1806 24.3733 64.7432 24.224C64.3059 24.0747 63.9326 23.8293 63.6232 23.488C63.3139 23.1467 63.1592 22.7093 63.1592 22.176C63.1592 21.4827 63.4259 20.912 63.9592 20.464C64.5032 20.016 65.1806 19.792 65.9912 19.792C66.6419 19.792 67.2179 19.9413 67.7192 20.24C68.2312 20.528 68.6152 20.9333 68.8712 21.456L67.7032 22.112C67.4152 21.4293 66.8446 21.088 65.9912 21.088C65.5966 21.088 65.2606 21.184 64.9832 21.376C64.7059 21.5573 64.5672 21.8187 64.5672 22.16ZM76.4572 20H77.8492V28H76.4572V26.848C75.8919 27.7547 75.0279 28.208 73.8652 28.208C72.9266 28.208 72.1746 27.9147 71.6092 27.328C71.0439 26.7307 70.7612 25.9253 70.7612 24.912V20H72.1532V24.832C72.1532 25.4827 72.3292 25.9893 72.6812 26.352C73.0332 26.704 73.5186 26.88 74.1372 26.88C74.8306 26.88 75.3906 26.6667 75.8172 26.24C76.2439 25.8027 76.4572 25.136 76.4572 24.24V20ZM81.6805 21.344C82.1392 20.352 82.9712 19.856 84.1765 19.856V21.312C83.4938 21.28 82.9072 21.4613 82.4165 21.856C81.9258 22.2507 81.6805 22.8853 81.6805 23.76V28H80.2885V20H81.6805V21.344ZM86.397 24.64C86.5357 25.3547 86.861 25.9093 87.373 26.304C87.8957 26.6987 88.5357 26.896 89.293 26.896C90.349 26.896 91.117 26.5067 91.597 25.728L92.781 26.4C92.0023 27.6053 90.829 28.208 89.261 28.208C87.9917 28.208 86.957 27.8133 86.157 27.024C85.3677 26.224 84.973 25.216 84.973 24C84.973 22.7947 85.3623 21.792 86.141 20.992C86.9197 20.192 87.9277 19.792 89.165 19.792C90.3383 19.792 91.293 20.208 92.029 21.04C92.7757 21.8613 93.149 22.8533 93.149 24.016C93.149 24.2187 93.133 24.4267 93.101 24.64H86.397ZM89.165 21.104C88.4183 21.104 87.7997 21.3173 87.309 21.744C86.8183 22.16 86.5143 22.72 86.397 23.424H91.741C91.6237 22.6667 91.325 22.0907 90.845 21.696C90.365 21.3013 89.805 21.104 89.165 21.104ZM101.677 16.8H103.069V28H101.677V26.624C100.984 27.68 99.9762 28.208 98.6535 28.208C97.5335 28.208 96.5788 27.8027 95.7895 26.992C95.0002 26.1707 94.6055 25.1733 94.6055 24C94.6055 22.8267 95.0002 21.8347 95.7895 21.024C96.5788 20.2027 97.5335 19.792 98.6535 19.792C99.9762 19.792 100.984 20.32 101.677 21.376V16.8ZM98.8295 26.864C99.6402 26.864 100.317 26.592 100.861 26.048C101.405 25.4933 101.677 24.8107 101.677 24C101.677 23.1893 101.405 22.512 100.861 21.968C100.317 21.4133 99.6402 21.136 98.8295 21.136C98.0295 21.136 97.3575 21.4133 96.8135 21.968C96.2695 22.512 95.9975 23.1893 95.9975 24C95.9975 24.8107 96.2695 25.4933 96.8135 26.048C97.3575 26.592 98.0295 26.864 98.8295 26.864ZM114.026 16.8C115.061 16.8 115.92 17.1467 116.602 17.84C117.296 18.5227 117.642 19.376 117.642 20.4C117.642 21.4133 117.296 22.2667 116.602 22.96C115.92 23.6533 115.061 24 114.026 24H111.45V28H109.962V16.8H114.026ZM114.026 22.608C114.645 22.608 115.157 22.4 115.562 21.984C115.968 21.5573 116.17 21.0293 116.17 20.4C116.17 19.76 115.968 19.232 115.562 18.816C115.157 18.4 114.645 18.192 114.026 18.192H111.45V22.608H114.026ZM125.591 20H126.983V28H125.591V26.624C124.897 27.68 123.889 28.208 122.567 28.208C121.447 28.208 120.492 27.8027 119.703 26.992C118.913 26.1707 118.519 25.1733 118.519 24C118.519 22.8267 118.913 21.8347 119.703 21.024C120.492 20.2027 121.447 19.792 122.567 19.792C123.889 19.792 124.897 20.32 125.591 21.376V20ZM122.743 26.864C123.553 26.864 124.231 26.592 124.775 26.048C125.319 25.4933 125.591 24.8107 125.591 24C125.591 23.1893 125.319 22.512 124.775 21.968C124.231 21.4133 123.553 21.136 122.743 21.136C121.943 21.136 121.271 21.4133 120.727 21.968C120.183 22.512 119.911 23.1893 119.911 24C119.911 24.8107 120.183 25.4933 120.727 26.048C121.271 26.592 121.943 26.864 122.743 26.864ZM130.116 18.544C129.849 18.544 129.625 18.4533 129.444 18.272C129.262 18.0907 129.172 17.872 129.172 17.616C129.172 17.36 129.262 17.1413 129.444 16.96C129.625 16.768 129.849 16.672 130.116 16.672C130.372 16.672 130.59 16.768 130.772 16.96C130.953 17.1413 131.044 17.36 131.044 17.616C131.044 17.872 130.953 18.0907 130.772 18.272C130.59 18.4533 130.372 18.544 130.116 18.544ZM129.412 28V20H130.804V28H129.412ZM139.871 16.8H141.263V28H139.871V26.624C139.178 27.68 138.17 28.208 136.847 28.208C135.727 28.208 134.773 27.8027 133.983 26.992C133.194 26.1707 132.799 25.1733 132.799 24C132.799 22.8267 133.194 21.8347 133.983 21.024C134.773 20.2027 135.727 19.792 136.847 19.792C138.17 19.792 139.178 20.32 139.871 21.376V16.8ZM137.023 26.864C137.834 26.864 138.511 26.592 139.055 26.048C139.599 25.4933 139.871 24.8107 139.871 24C139.871 23.1893 139.599 22.512 139.055 21.968C138.511 21.4133 137.834 21.136 137.023 21.136C136.223 21.136 135.551 21.4133 135.007 21.968C134.463 22.512 134.191 23.1893 134.191 24C134.191 24.8107 134.463 25.4933 135.007 26.048C135.551 26.592 136.223 26.864 137.023 26.864ZM148.156 16.8H149.644V28H148.156V16.8ZM156.207 19.792C157.146 19.792 157.898 20.0907 158.463 20.688C159.028 21.2747 159.311 22.0747 159.311 23.088V28H157.919V23.168C157.919 22.5173 157.743 22.016 157.391 21.664C157.039 21.3013 156.554 21.12 155.935 21.12C155.242 21.12 154.682 21.3387 154.255 21.776C153.828 22.2027 153.615 22.864 153.615 23.76V28H152.223V20H153.615V21.152C154.18 20.2453 155.044 19.792 156.207 19.792ZM165.926 21.344H163.798V25.68C163.798 26.0747 163.873 26.3573 164.022 26.528C164.182 26.688 164.422 26.7733 164.742 26.784C165.062 26.784 165.457 26.7733 165.926 26.752V28C164.71 28.16 163.819 28.064 163.254 27.712C162.689 27.3493 162.406 26.672 162.406 25.68V21.344H160.822V20H162.406V18.176L163.798 17.76V20H165.926V21.344ZM168.464 24.64C168.603 25.3547 168.928 25.9093 169.44 26.304C169.963 26.6987 170.603 26.896 171.36 26.896C172.416 26.896 173.184 26.5067 173.664 25.728L174.848 26.4C174.069 27.6053 172.896 28.208 171.328 28.208C170.059 28.208 169.024 27.8133 168.224 27.024C167.435 26.224 167.04 25.216 167.04 24C167.04 22.7947 167.429 21.792 168.208 20.992C168.987 20.192 169.995 19.792 171.232 19.792C172.405 19.792 173.36 20.208 174.096 21.04C174.843 21.8613 175.216 22.8533 175.216 24.016C175.216 24.2187 175.2 24.4267 175.168 24.64H168.464ZM171.232 21.104C170.485 21.104 169.867 21.3173 169.376 21.744C168.885 22.16 168.581 22.72 168.464 23.424H173.808C173.691 22.6667 173.392 22.0907 172.912 21.696C172.432 21.3013 171.872 21.104 171.232 21.104ZM178.528 21.344C178.987 20.352 179.819 19.856 181.024 19.856V21.312C180.341 21.28 179.755 21.4613 179.264 21.856C178.773 22.2507 178.528 22.8853 178.528 23.76V28H177.136V20H178.528V21.344ZM186.69 19.792C187.629 19.792 188.381 20.0907 188.946 20.688C189.511 21.2747 189.794 22.0747 189.794 23.088V28H188.402V23.168C188.402 22.5173 188.226 22.016 187.874 21.664C187.522 21.3013 187.037 21.12 186.418 21.12C185.725 21.12 185.165 21.3387 184.738 21.776C184.311 22.2027 184.098 22.864 184.098 23.76V28H182.706V20H184.098V21.152C184.663 20.2453 185.527 19.792 186.69 19.792ZM193.257 22.16C193.257 22.4693 193.412 22.72 193.721 22.912C194.031 23.0933 194.404 23.2427 194.841 23.36C195.279 23.4667 195.716 23.5947 196.153 23.744C196.591 23.8827 196.964 24.128 197.273 24.48C197.583 24.8213 197.737 25.264 197.737 25.808C197.737 26.5333 197.455 27.1147 196.889 27.552C196.335 27.9893 195.62 28.208 194.745 28.208C193.967 28.208 193.3 28.0373 192.745 27.696C192.191 27.3547 191.796 26.9013 191.561 26.336L192.761 25.648C192.889 26.032 193.129 26.336 193.481 26.56C193.833 26.784 194.255 26.896 194.745 26.896C195.204 26.896 195.583 26.8107 195.881 26.64C196.18 26.4587 196.329 26.1813 196.329 25.808C196.329 25.4987 196.175 25.2533 195.865 25.072C195.556 24.88 195.183 24.7307 194.745 24.624C194.308 24.5067 193.871 24.3733 193.433 24.224C192.996 24.0747 192.623 23.8293 192.313 23.488C192.004 23.1467 191.849 22.7093 191.849 22.176C191.849 21.4827 192.116 20.912 192.649 20.464C193.193 20.016 193.871 19.792 194.681 19.792C195.332 19.792 195.908 19.9413 196.409 20.24C196.921 20.528 197.305 20.9333 197.561 21.456L196.393 22.112C196.105 21.4293 195.535 21.088 194.681 21.088C194.287 21.088 193.951 21.184 193.673 21.376C193.396 21.5573 193.257 21.8187 193.257 22.16ZM203.611 19.792C204.55 19.792 205.302 20.0907 205.867 20.688C206.433 21.2747 206.715 22.0747 206.715 23.088V28H205.323V23.168C205.323 22.5173 205.147 22.016 204.795 21.664C204.443 21.3013 203.958 21.12 203.339 21.12C202.646 21.12 202.086 21.3387 201.659 21.776C201.233 22.2027 201.019 22.864 201.019 23.76V28H199.627V16.8H201.019V21.152C201.585 20.2453 202.449 19.792 203.611 19.792ZM209.683 18.544C209.416 18.544 209.192 18.4533 209.011 18.272C208.829 18.0907 208.739 17.872 208.739 17.616C208.739 17.36 208.829 17.1413 209.011 16.96C209.192 16.768 209.416 16.672 209.683 16.672C209.939 16.672 210.157 16.768 210.339 16.96C210.52 17.1413 210.611 17.36 210.611 17.616C210.611 17.872 210.52 18.0907 210.339 18.272C210.157 18.4533 209.939 18.544 209.683 18.544ZM208.979 28V20H210.371V28H208.979ZM217.23 19.792C218.35 19.792 219.305 20.2027 220.094 21.024C220.883 21.8347 221.278 22.8267 221.278 24C221.278 25.1733 220.883 26.1707 220.094 26.992C219.305 27.8027 218.35 28.208 217.23 28.208C215.907 28.208 214.899 27.68 214.206 26.624V31.2H212.814V20H214.206V21.376C214.899 20.32 215.907 19.792 217.23 19.792ZM217.054 26.864C217.854 26.864 218.526 26.592 219.07 26.048C219.614 25.4933 219.886 24.8107 219.886 24C219.886 23.1893 219.614 22.512 219.07 21.968C218.526 21.4133 217.854 21.136 217.054 21.136C216.243 21.136 215.566 21.4133 215.022 21.968C214.478 22.512 214.206 23.1893 214.206 24C214.206 24.8107 214.478 25.4933 215.022 26.048C215.566 26.592 216.243 26.864 217.054 26.864ZM224.287 22.16C224.287 22.4693 224.442 22.72 224.751 22.912C225.061 23.0933 225.434 23.2427 225.871 23.36C226.309 23.4667 226.746 23.5947 227.183 23.744C227.621 23.8827 227.994 24.128 228.303 24.48C228.613 24.8213 228.767 25.264 228.767 25.808C228.767 26.5333 228.485 27.1147 227.919 27.552C227.365 27.9893 226.65 28.208 225.775 28.208C224.997 28.208 224.33 28.0373 223.775 27.696C223.221 27.3547 222.826 26.9013 222.591 26.336L223.791 25.648C223.919 26.032 224.159 26.336 224.511 26.56C224.863 26.784 225.285 26.896 225.775 26.896C226.234 26.896 226.613 26.8107 226.911 26.64C227.21 26.4587 227.359 26.1813 227.359 25.808C227.359 25.4987 227.205 25.2533 226.895 25.072C226.586 24.88 226.213 24.7307 225.775 24.624C225.338 24.5067 224.901 24.3733 224.463 24.224C224.026 24.0747 223.653 23.8293 223.343 23.488C223.034 23.1467 222.879 22.7093 222.879 22.176C222.879 21.4827 223.146 20.912 223.679 20.464C224.223 20.016 224.901 19.792 225.711 19.792C226.362 19.792 226.938 19.9413 227.439 20.24C227.951 20.528 228.335 20.9333 228.591 21.456L227.423 22.112C227.135 21.4293 226.565 21.088 225.711 21.088C225.317 21.088 224.981 21.184 224.703 21.376C224.426 21.5573 224.287 21.8187 224.287 22.16Z" fill="#F8FAFC"/>
</svg>
