<svg width="231" height="48" viewBox="0 0 231 48" fill="none" xmlns="http://www.w3.org/2000/svg">
<rect width="231" height="48" rx="24" fill="#292C33"/>
<path d="M24 29.12H40V13.12H24V29.12ZM45.84 16.8H47.328V28H45.84V16.8ZM53.8906 19.792C54.8293 19.792 55.5813 20.0907 56.1466 20.688C56.712 21.2747 56.9946 22.0747 56.9946 23.088V28H55.6026V23.168C55.6026 22.5173 55.4266 22.016 55.0746 21.664C54.7226 21.3013 54.2373 21.12 53.6186 21.12C52.9253 21.12 52.3653 21.3387 51.9386 21.776C51.512 22.2027 51.2986 22.864 51.2986 23.76V28H49.9066V20H51.2986V21.152C51.864 20.2453 52.728 19.792 53.8906 19.792ZM59.4019 23.76V22.416H65.2419V23.76H59.4019ZM74.4362 16.8H75.8282V28H74.4362V26.624C73.7429 27.68 72.7349 28.208 71.4122 28.208C70.2922 28.208 69.3376 27.8027 68.5482 26.992C67.7589 26.1707 67.3642 25.1733 67.3642 24C67.3642 22.8267 67.7589 21.8347 68.5482 21.024C69.3376 20.2027 70.2922 19.792 71.4122 19.792C72.7349 19.792 73.7429 20.32 74.4362 21.376V16.8ZM71.5882 26.864C72.3989 26.864 73.0762 26.592 73.6202 26.048C74.1642 25.4933 74.4362 24.8107 74.4362 24C74.4362 23.1893 74.1642 22.512 73.6202 21.968C73.0762 21.4133 72.3989 21.136 71.5882 21.136C70.7882 21.136 70.1162 21.4133 69.5722 21.968C69.0282 22.512 68.7562 23.1893 68.7562 24C68.7562 24.8107 69.0282 25.4933 69.5722 26.048C70.1162 26.592 70.7882 26.864 71.5882 26.864ZM79.2332 24.64C79.3719 25.3547 79.6972 25.9093 80.2092 26.304C80.7319 26.6987 81.3719 26.896 82.1292 26.896C83.1852 26.896 83.9532 26.5067 84.4332 25.728L85.6172 26.4C84.8386 27.6053 83.6652 28.208 82.0972 28.208C80.8279 28.208 79.7932 27.8133 78.9932 27.024C78.2039 26.224 77.8092 25.216 77.8092 24C77.8092 22.7947 78.1986 21.792 78.9772 20.992C79.7559 20.192 80.7639 19.792 82.0012 19.792C83.1746 19.792 84.1292 20.208 84.8652 21.04C85.6119 21.8613 85.9852 22.8533 85.9852 24.016C85.9852 24.2187 85.9692 24.4267 85.9372 24.64H79.2332ZM82.0012 21.104C81.2546 21.104 80.6359 21.3173 80.1452 21.744C79.6546 22.16 79.3506 22.72 79.2332 23.424H84.5772C84.4599 22.6667 84.1612 22.0907 83.6812 21.696C83.2012 21.3013 82.6412 21.104 82.0012 21.104ZM92.3214 19.792C93.4414 19.792 94.396 20.2027 95.1854 21.024C95.9747 21.8347 96.3694 22.8267 96.3694 24C96.3694 25.1733 95.9747 26.1707 95.1854 26.992C94.396 27.8027 93.4414 28.208 92.3214 28.208C90.9987 28.208 89.9907 27.68 89.2974 26.624V31.2H87.9054V20H89.2974V21.376C89.9907 20.32 90.9987 19.792 92.3214 19.792ZM92.1454 26.864C92.9454 26.864 93.6174 26.592 94.1614 26.048C94.7054 25.4933 94.9774 24.8107 94.9774 24C94.9774 23.1893 94.7054 22.512 94.1614 21.968C93.6174 21.4133 92.9454 21.136 92.1454 21.136C91.3347 21.136 90.6574 21.4133 90.1134 21.968C89.5694 22.512 89.2974 23.1893 89.2974 24C89.2974 24.8107 89.5694 25.4933 90.1134 26.048C90.6574 26.592 91.3347 26.864 92.1454 26.864ZM102.53 21.344H100.402V25.68C100.402 26.0747 100.477 26.3573 100.626 26.528C100.786 26.688 101.026 26.7733 101.346 26.784C101.666 26.784 102.061 26.7733 102.53 26.752V28C101.314 28.16 100.424 28.064 99.8585 27.712C99.2932 27.3493 99.0105 26.672 99.0105 25.68V21.344H97.4265V20H99.0105V18.176L100.402 17.76V20H102.53V21.344ZM108.482 19.792C109.421 19.792 110.173 20.0907 110.738 20.688C111.304 21.2747 111.586 22.0747 111.586 23.088V28H110.194V23.168C110.194 22.5173 110.018 22.016 109.666 21.664C109.314 21.3013 108.829 21.12 108.21 21.12C107.517 21.12 106.957 21.3387 106.53 21.776C106.104 22.2027 105.89 22.864 105.89 23.76V28H104.498V16.8H105.89V21.152C106.456 20.2453 107.32 19.792 108.482 19.792ZM123.578 28.208C121.882 28.208 120.479 27.648 119.37 26.528C118.271 25.408 117.722 24.032 117.722 22.4C117.722 20.768 118.271 19.392 119.37 18.272C120.479 17.152 121.882 16.592 123.578 16.592C124.602 16.592 125.54 16.8373 126.394 17.328C127.258 17.8187 127.93 18.48 128.41 19.312L127.114 20.064C126.794 19.4453 126.314 18.9547 125.674 18.592C125.044 18.2187 124.346 18.032 123.578 18.032C122.287 18.032 121.231 18.448 120.41 19.28C119.599 20.112 119.194 21.152 119.194 22.4C119.194 23.6373 119.599 24.672 120.41 25.504C121.231 26.336 122.287 26.752 123.578 26.752C124.346 26.752 125.044 26.5707 125.674 26.208C126.314 25.8347 126.794 25.344 127.114 24.736L128.41 25.472C127.94 26.304 127.274 26.9707 126.41 27.472C125.546 27.9627 124.602 28.208 123.578 28.208ZM136.992 26.992C136.17 27.8027 135.173 28.208 134 28.208C132.826 28.208 131.829 27.8027 131.008 26.992C130.197 26.1813 129.792 25.184 129.792 24C129.792 22.816 130.197 21.8187 131.008 21.008C131.829 20.1973 132.826 19.792 134 19.792C135.173 19.792 136.17 20.1973 136.992 21.008C137.813 21.8187 138.224 22.816 138.224 24C138.224 25.184 137.813 26.1813 136.992 26.992ZM134 26.848C134.8 26.848 135.472 26.576 136.016 26.032C136.56 25.488 136.832 24.8107 136.832 24C136.832 23.1893 136.56 22.512 136.016 21.968C135.472 21.424 134.8 21.152 134 21.152C133.21 21.152 132.544 21.424 132 21.968C131.456 22.512 131.184 23.1893 131.184 24C131.184 24.8107 131.456 25.488 132 26.032C132.544 26.576 133.21 26.848 134 26.848ZM145.705 20H147.097V28H145.705V26.848C145.139 27.7547 144.275 28.208 143.113 28.208C142.174 28.208 141.422 27.9147 140.857 27.328C140.291 26.7307 140.009 25.9253 140.009 24.912V20H141.401V24.832C141.401 25.4827 141.577 25.9893 141.929 26.352C142.281 26.704 142.766 26.88 143.385 26.88C144.078 26.88 144.638 26.6667 145.065 26.24C145.491 25.8027 145.705 25.136 145.705 24.24V20ZM150.928 21.344C151.387 20.352 152.219 19.856 153.424 19.856V21.312C152.741 21.28 152.155 21.4613 151.664 21.856C151.173 22.2507 150.928 22.8853 150.928 23.76V28H149.536V20H150.928V21.344ZM156.009 22.16C156.009 22.4693 156.164 22.72 156.473 22.912C156.782 23.0933 157.156 23.2427 157.593 23.36C158.03 23.4667 158.468 23.5947 158.905 23.744C159.342 23.8827 159.716 24.128 160.025 24.48C160.334 24.8213 160.489 25.264 160.489 25.808C160.489 26.5333 160.206 27.1147 159.641 27.552C159.086 27.9893 158.372 28.208 157.497 28.208C156.718 28.208 156.052 28.0373 155.497 27.696C154.942 27.3547 154.548 26.9013 154.313 26.336L155.513 25.648C155.641 26.032 155.881 26.336 156.233 26.56C156.585 26.784 157.006 26.896 157.497 26.896C157.956 26.896 158.334 26.8107 158.633 26.64C158.932 26.4587 159.081 26.1813 159.081 25.808C159.081 25.4987 158.926 25.2533 158.617 25.072C158.308 24.88 157.934 24.7307 157.497 24.624C157.06 24.5067 156.622 24.3733 156.185 24.224C155.748 24.0747 155.374 23.8293 155.065 23.488C154.756 23.1467 154.601 22.7093 154.601 22.176C154.601 21.4827 154.868 20.912 155.401 20.464C155.945 20.016 156.622 19.792 157.433 19.792C158.084 19.792 158.66 19.9413 159.161 20.24C159.673 20.528 160.057 20.9333 160.313 21.456L159.145 22.112C158.857 21.4293 158.286 21.088 157.433 21.088C157.038 21.088 156.702 21.184 156.425 21.376C156.148 21.5573 156.009 21.8187 156.009 22.16ZM163.214 24.64C163.353 25.3547 163.678 25.9093 164.19 26.304C164.713 26.6987 165.353 26.896 166.11 26.896C167.166 26.896 167.934 26.5067 168.414 25.728L169.598 26.4C168.82 27.6053 167.646 28.208 166.078 28.208C164.809 28.208 163.774 27.8133 162.974 27.024C162.185 26.224 161.79 25.216 161.79 24C161.79 22.7947 162.18 21.792 162.958 20.992C163.737 20.192 164.745 19.792 165.982 19.792C167.156 19.792 168.11 20.208 168.846 21.04C169.593 21.8613 169.966 22.8533 169.966 24.016C169.966 24.2187 169.95 24.4267 169.918 24.64H163.214ZM165.982 21.104C165.236 21.104 164.617 21.3173 164.126 21.744C163.636 22.16 163.332 22.72 163.214 23.424H168.558C168.441 22.6667 168.142 22.0907 167.662 21.696C167.182 21.3013 166.622 21.104 165.982 21.104ZM180.998 20H182.454L179.974 28H178.55L176.678 22.08L174.806 28H173.382L170.902 20H172.358L174.118 26.08L176.006 20H177.35L179.238 26.096L180.998 20ZM190.646 26.992C189.825 27.8027 188.827 28.208 187.654 28.208C186.481 28.208 185.483 27.8027 184.662 26.992C183.851 26.1813 183.446 25.184 183.446 24C183.446 22.816 183.851 21.8187 184.662 21.008C185.483 20.1973 186.481 19.792 187.654 19.792C188.827 19.792 189.825 20.1973 190.646 21.008C191.467 21.8187 191.878 22.816 191.878 24C191.878 25.184 191.467 26.1813 190.646 26.992ZM187.654 26.848C188.454 26.848 189.126 26.576 189.67 26.032C190.214 25.488 190.486 24.8107 190.486 24C190.486 23.1893 190.214 22.512 189.67 21.968C189.126 21.424 188.454 21.152 187.654 21.152C186.865 21.152 186.198 21.424 185.654 21.968C185.11 22.512 184.838 23.1893 184.838 24C184.838 24.8107 185.11 25.488 185.654 26.032C186.198 26.576 186.865 26.848 187.654 26.848ZM195.231 21.344C195.69 20.352 196.522 19.856 197.727 19.856V21.312C197.044 21.28 196.458 21.4613 195.967 21.856C195.476 22.2507 195.231 22.8853 195.231 23.76V28H193.839V20H195.231V21.344ZM206.177 28H204.449L200.801 24.208V28H199.409V16.8H200.801V23.536L204.257 20H206.049L202.225 23.872L206.177 28Z" fill="#F8FAFC"/>
</svg>
