<svg width="283" height="48" viewBox="0 0 283 48" fill="none" xmlns="http://www.w3.org/2000/svg">
<rect width="283" height="48" rx="24" fill="#292C33"/>
<path d="M24 29.12H40V13.12H24V29.12ZM53.008 16.8V18.208H49.696V28H48.224V18.208H44.928V16.8H53.008ZM59.8275 20H61.2195V28H59.8275V26.624C59.1342 27.68 58.1262 28.208 56.8035 28.208C55.6835 28.208 54.7288 27.8027 53.9395 26.992C53.1502 26.1707 52.7555 25.1733 52.7555 24C52.7555 22.8267 53.1502 21.8347 53.9395 21.024C54.7288 20.2027 55.6835 19.792 56.8035 19.792C58.1262 19.792 59.1342 20.32 59.8275 21.376V20ZM56.9795 26.864C57.7902 26.864 58.4675 26.592 59.0115 26.048C59.5555 25.4933 59.8275 24.8107 59.8275 24C59.8275 23.1893 59.5555 22.512 59.0115 21.968C58.4675 21.4133 57.7902 21.136 56.9795 21.136C56.1795 21.136 55.5075 21.4133 54.9635 21.968C54.4195 22.512 54.1475 23.1893 54.1475 24C54.1475 24.8107 54.4195 25.4933 54.9635 26.048C55.5075 26.592 56.1795 26.864 56.9795 26.864ZM67.4085 28.208C66.2032 28.208 65.2005 27.808 64.4005 27.008C63.6005 26.1973 63.2005 25.1947 63.2005 24C63.2005 22.8053 63.6005 21.808 64.4005 21.008C65.2005 20.1973 66.2032 19.792 67.4085 19.792C68.1978 19.792 68.9072 19.984 69.5365 20.368C70.1658 20.7413 70.6352 21.248 70.9445 21.888L69.7765 22.56C69.5738 22.1333 69.2592 21.792 68.8325 21.536C68.4165 21.28 67.9418 21.152 67.4085 21.152C66.6085 21.152 65.9365 21.424 65.3925 21.968C64.8592 22.512 64.5925 23.1893 64.5925 24C64.5925 24.8 64.8592 25.472 65.3925 26.016C65.9365 26.56 66.6085 26.832 67.4085 26.832C67.9418 26.832 68.4218 26.7093 68.8485 26.464C69.2752 26.208 69.6005 25.8667 69.8245 25.44L71.0085 26.128C70.6672 26.7573 70.1765 27.264 69.5365 27.648C68.8965 28.0213 68.1872 28.208 67.4085 28.208ZM79.4709 28H77.7429L74.0949 24.208V28H72.7029V16.8H74.0949V23.536L77.5509 20H79.3429L75.5189 23.872L79.4709 28ZM81.0854 28V16.32H82.4774V28H81.0854ZM85.897 24.64C86.0357 25.3547 86.361 25.9093 86.873 26.304C87.3957 26.6987 88.0357 26.896 88.793 26.896C89.849 26.896 90.617 26.5067 91.097 25.728L92.281 26.4C91.5023 27.6053 90.329 28.208 88.761 28.208C87.4917 28.208 86.457 27.8133 85.657 27.024C84.8677 26.224 84.473 25.216 84.473 24C84.473 22.7947 84.8623 21.792 85.641 20.992C86.4197 20.192 87.4277 19.792 88.665 19.792C89.8383 19.792 90.793 20.208 91.529 21.04C92.2757 21.8613 92.649 22.8533 92.649 24.016C92.649 24.2187 92.633 24.4267 92.601 24.64H85.897ZM88.665 21.104C87.9183 21.104 87.2997 21.3173 86.809 21.744C86.3183 22.16 86.0143 22.72 85.897 23.424H91.241C91.1237 22.6667 90.825 22.0907 90.345 21.696C89.865 21.3013 89.305 21.104 88.665 21.104ZM100.521 26.592H105.353V28H99.0331V16.8H100.521V26.592ZM107.726 18.544C107.459 18.544 107.235 18.4533 107.054 18.272C106.872 18.0907 106.782 17.872 106.782 17.616C106.782 17.36 106.872 17.1413 107.054 16.96C107.235 16.768 107.459 16.672 107.726 16.672C107.982 16.672 108.2 16.768 108.382 16.96C108.563 17.1413 108.654 17.36 108.654 17.616C108.654 17.872 108.563 18.0907 108.382 18.272C108.2 18.4533 107.982 18.544 107.726 18.544ZM107.022 28V20H108.414V28H107.022ZM116.457 20H117.961L114.761 28H113.129L109.929 20H111.433L113.945 26.512L116.457 20ZM120.122 24.64C120.261 25.3547 120.586 25.9093 121.098 26.304C121.621 26.6987 122.261 26.896 123.018 26.896C124.074 26.896 124.842 26.5067 125.322 25.728L126.506 26.4C125.727 27.6053 124.554 28.208 122.986 28.208C121.717 28.208 120.682 27.8133 119.882 27.024C119.093 26.224 118.698 25.216 118.698 24C118.698 22.7947 119.087 21.792 119.866 20.992C120.645 20.192 121.653 19.792 122.89 19.792C124.063 19.792 125.018 20.208 125.754 21.04C126.501 21.8613 126.874 22.8533 126.874 24.016C126.874 24.2187 126.858 24.4267 126.826 24.64H120.122ZM122.89 21.104C122.143 21.104 121.525 21.3173 121.034 21.744C120.543 22.16 120.239 22.72 120.122 23.424H125.466C125.349 22.6667 125.05 22.0907 124.57 21.696C124.09 21.3013 123.53 21.104 122.89 21.104ZM133.258 16.8H134.746V28H133.258V16.8ZM141.309 19.792C142.247 19.792 142.999 20.0907 143.565 20.688C144.13 21.2747 144.413 22.0747 144.413 23.088V28H143.021V23.168C143.021 22.5173 142.845 22.016 142.493 21.664C142.141 21.3013 141.655 21.12 141.037 21.12C140.343 21.12 139.783 21.3387 139.357 21.776C138.93 22.2027 138.717 22.864 138.717 23.76V28H137.325V20H138.717V21.152C139.282 20.2453 140.146 19.792 141.309 19.792ZM153.3 16.8H154.692V28H153.3V26.624C152.607 27.68 151.599 28.208 150.276 28.208C149.156 28.208 148.201 27.8027 147.412 26.992C146.623 26.1707 146.228 25.1733 146.228 24C146.228 22.8267 146.623 21.8347 147.412 21.024C148.201 20.2027 149.156 19.792 150.276 19.792C151.599 19.792 152.607 20.32 153.3 21.376V16.8ZM150.452 26.864C151.263 26.864 151.94 26.592 152.484 26.048C153.028 25.4933 153.3 24.8107 153.3 24C153.3 23.1893 153.028 22.512 152.484 21.968C151.94 21.4133 151.263 21.136 150.452 21.136C149.652 21.136 148.98 21.4133 148.436 21.968C147.892 22.512 147.62 23.1893 147.62 24C147.62 24.8107 147.892 25.4933 148.436 26.048C148.98 26.592 149.652 26.864 150.452 26.864ZM162.641 20H164.033V28H162.641V26.848C162.076 27.7547 161.212 28.208 160.049 28.208C159.11 28.208 158.358 27.9147 157.793 27.328C157.228 26.7307 156.945 25.9253 156.945 24.912V20H158.337V24.832C158.337 25.4827 158.513 25.9893 158.865 26.352C159.217 26.704 159.702 26.88 160.321 26.88C161.014 26.88 161.574 26.6667 162.001 26.24C162.428 25.8027 162.641 25.136 162.641 24.24V20ZM167.657 22.16C167.657 22.4693 167.811 22.72 168.121 22.912C168.43 23.0933 168.803 23.2427 169.241 23.36C169.678 23.4667 170.115 23.5947 170.553 23.744C170.99 23.8827 171.363 24.128 171.673 24.48C171.982 24.8213 172.137 25.264 172.137 25.808C172.137 26.5333 171.854 27.1147 171.289 27.552C170.734 27.9893 170.019 28.208 169.145 28.208C168.366 28.208 167.699 28.0373 167.145 27.696C166.59 27.3547 166.195 26.9013 165.961 26.336L167.161 25.648C167.289 26.032 167.529 26.336 167.881 26.56C168.233 26.784 168.654 26.896 169.145 26.896C169.603 26.896 169.982 26.8107 170.281 26.64C170.579 26.4587 170.729 26.1813 170.729 25.808C170.729 25.4987 170.574 25.2533 170.265 25.072C169.955 24.88 169.582 24.7307 169.145 24.624C168.707 24.5067 168.27 24.3733 167.833 24.224C167.395 24.0747 167.022 23.8293 166.713 23.488C166.403 23.1467 166.249 22.7093 166.249 22.176C166.249 21.4827 166.515 20.912 167.049 20.464C167.593 20.016 168.27 19.792 169.081 19.792C169.731 19.792 170.307 19.9413 170.809 20.24C171.321 20.528 171.705 20.9333 171.961 21.456L170.793 22.112C170.505 21.4293 169.934 21.088 169.081 21.088C168.686 21.088 168.35 21.184 168.073 21.376C167.795 21.5573 167.657 21.8187 167.657 22.16ZM178.144 21.344H176.016V25.68C176.016 26.0747 176.091 26.3573 176.24 26.528C176.4 26.688 176.64 26.7733 176.96 26.784C177.28 26.784 177.675 26.7733 178.144 26.752V28C176.928 28.16 176.038 28.064 175.472 27.712C174.907 27.3493 174.624 26.672 174.624 25.68V21.344H173.04V20H174.624V18.176L176.016 17.76V20H178.144V21.344ZM181.551 21.344C182.01 20.352 182.842 19.856 184.047 19.856V21.312C183.364 21.28 182.778 21.4613 182.287 21.856C181.796 22.2507 181.551 22.8853 181.551 23.76V28H180.159V20H181.551V21.344ZM191.485 20H192.973L189.709 28.496C189.368 29.4027 188.888 30.0907 188.269 30.56C187.661 31.04 186.957 31.2533 186.157 31.2V29.904C187.138 29.9787 187.858 29.4347 188.317 28.272L188.461 27.968L184.973 20H186.461L189.181 26.272L191.485 20ZM202.983 16.8C204.018 16.8 204.877 17.1467 205.559 17.84C206.253 18.5227 206.599 19.376 206.599 20.4C206.599 21.4133 206.253 22.2667 205.559 22.96C204.877 23.6533 204.018 24 202.983 24H200.407V28H198.919V16.8H202.983ZM202.983 22.608C203.602 22.608 204.114 22.4 204.519 21.984C204.925 21.5573 205.127 21.0293 205.127 20.4C205.127 19.76 204.925 19.232 204.519 18.816C204.114 18.4 203.602 18.192 202.983 18.192H200.407V22.608H202.983ZM209.753 21.344C210.212 20.352 211.044 19.856 212.249 19.856V21.312C211.566 21.28 210.98 21.4613 210.489 21.856C209.998 22.2507 209.753 22.8853 209.753 23.76V28H208.361V20H209.753V21.344ZM220.246 26.992C219.424 27.8027 218.427 28.208 217.254 28.208C216.08 28.208 215.083 27.8027 214.262 26.992C213.451 26.1813 213.046 25.184 213.046 24C213.046 22.816 213.451 21.8187 214.262 21.008C215.083 20.1973 216.08 19.792 217.254 19.792C218.427 19.792 219.424 20.1973 220.246 21.008C221.067 21.8187 221.477 22.816 221.477 24C221.477 25.184 221.067 26.1813 220.246 26.992ZM217.254 26.848C218.054 26.848 218.726 26.576 219.27 26.032C219.814 25.488 220.086 24.8107 220.086 24C220.086 23.1893 219.814 22.512 219.27 21.968C218.726 21.424 218.054 21.152 217.254 21.152C216.464 21.152 215.798 21.424 215.254 21.968C214.71 22.512 214.438 23.1893 214.438 24C214.438 24.8107 214.71 25.488 215.254 26.032C215.798 26.576 216.464 26.848 217.254 26.848ZM224.26 18.544C223.993 18.544 223.769 18.4533 223.588 18.272C223.407 18.0907 223.316 17.872 223.316 17.616C223.316 17.36 223.407 17.1413 223.588 16.96C223.769 16.768 223.993 16.672 224.26 16.672C224.516 16.672 224.735 16.768 224.916 16.96C225.097 17.1413 225.188 17.36 225.188 17.616C225.188 17.872 225.097 18.0907 224.916 18.272C224.735 18.4533 224.516 18.544 224.26 18.544ZM223.556 28.48V20H224.948V28.48C224.948 29.5147 224.687 30.2773 224.164 30.768C223.641 31.2693 222.873 31.4827 221.86 31.408V30.064C222.447 30.1173 222.873 30.0213 223.14 29.776C223.417 29.5307 223.556 29.0987 223.556 28.48ZM228.359 24.64C228.498 25.3547 228.823 25.9093 229.335 26.304C229.858 26.6987 230.498 26.896 231.255 26.896C232.311 26.896 233.079 26.5067 233.559 25.728L234.743 26.4C233.965 27.6053 232.791 28.208 231.223 28.208C229.954 28.208 228.919 27.8133 228.119 27.024C227.33 26.224 226.935 25.216 226.935 24C226.935 22.7947 227.325 21.792 228.103 20.992C228.882 20.192 229.89 19.792 231.127 19.792C232.301 19.792 233.255 20.208 233.991 21.04C234.738 21.8613 235.111 22.8533 235.111 24.016C235.111 24.2187 235.095 24.4267 235.063 24.64H228.359ZM231.127 21.104C230.381 21.104 229.762 21.3173 229.271 21.744C228.781 22.16 228.477 22.72 228.359 23.424H233.703C233.586 22.6667 233.287 22.0907 232.807 21.696C232.327 21.3013 231.767 21.104 231.127 21.104ZM240.776 28.208C239.571 28.208 238.568 27.808 237.768 27.008C236.968 26.1973 236.568 25.1947 236.568 24C236.568 22.8053 236.968 21.808 237.768 21.008C238.568 20.1973 239.571 19.792 240.776 19.792C241.565 19.792 242.275 19.984 242.904 20.368C243.533 20.7413 244.003 21.248 244.312 21.888L243.144 22.56C242.941 22.1333 242.627 21.792 242.2 21.536C241.784 21.28 241.309 21.152 240.776 21.152C239.976 21.152 239.304 21.424 238.76 21.968C238.227 22.512 237.96 23.1893 237.96 24C237.96 24.8 238.227 25.472 238.76 26.016C239.304 26.56 239.976 26.832 240.776 26.832C241.309 26.832 241.789 26.7093 242.216 26.464C242.643 26.208 242.968 25.8667 243.192 25.44L244.376 26.128C244.035 26.7573 243.544 27.264 242.904 27.648C242.264 28.0213 241.555 28.208 240.776 28.208ZM250.422 21.344H248.294V25.68C248.294 26.0747 248.369 26.3573 248.518 26.528C248.678 26.688 248.918 26.7733 249.238 26.784C249.558 26.784 249.953 26.7733 250.422 26.752V28C249.206 28.16 248.316 28.064 247.75 27.712C247.185 27.3493 246.902 26.672 246.902 25.68V21.344H245.318V20H246.902V18.176L248.294 17.76V20H250.422V21.344ZM253.2 22.16C253.2 22.4693 253.354 22.72 253.664 22.912C253.973 23.0933 254.346 23.2427 254.784 23.36C255.221 23.4667 255.658 23.5947 256.096 23.744C256.533 23.8827 256.906 24.128 257.216 24.48C257.525 24.8213 257.68 25.264 257.68 25.808C257.68 26.5333 257.397 27.1147 256.832 27.552C256.277 27.9893 255.562 28.208 254.688 28.208C253.909 28.208 253.242 28.0373 252.688 27.696C252.133 27.3547 251.738 26.9013 251.504 26.336L252.704 25.648C252.832 26.032 253.072 26.336 253.424 26.56C253.776 26.784 254.197 26.896 254.688 26.896C255.146 26.896 255.525 26.8107 255.824 26.64C256.122 26.4587 256.272 26.1813 256.272 25.808C256.272 25.4987 256.117 25.2533 255.808 25.072C255.498 24.88 255.125 24.7307 254.688 24.624C254.25 24.5067 253.813 24.3733 253.376 24.224C252.938 24.0747 252.565 23.8293 252.256 23.488C251.946 23.1467 251.792 22.7093 251.792 22.176C251.792 21.4827 252.058 20.912 252.592 20.464C253.136 20.016 253.813 19.792 254.624 19.792C255.274 19.792 255.85 19.9413 256.352 20.24C256.864 20.528 257.248 20.9333 257.504 21.456L256.336 22.112C256.048 21.4293 255.477 21.088 254.624 21.088C254.229 21.088 253.893 21.184 253.616 21.376C253.338 21.5573 253.2 21.8187 253.2 22.16Z" fill="#F8FAFC"/>
</svg>
