<svg width="122" height="130" viewBox="0 0 122 130" fill="none" xmlns="http://www.w3.org/2000/svg">
<rect x="0.816895" y="0.818359" width="120.668" height="128.371" rx="10.2696" fill="#3A3C43"/>
<g clip-path="url(#clip0_1_5212)">
<path d="M11.9424 27.7754H20.1317C20.2499 27.7754 20.3457 27.8712 20.3457 27.9893C20.3457 28.0266 20.336 28.0632 20.3175 28.0955L18.7888 30.7707L20.3175 33.4459C20.3761 33.5485 20.3405 33.6792 20.2379 33.7378C20.2056 33.7563 20.169 33.766 20.1317 33.766H12.7982V35.9055H11.9424V27.7754Z" fill="#E2E8F0"/>
</g>
<path d="M27.595 28.1363C28.1484 28.1363 28.6077 28.3218 28.9729 28.6926C29.3437 29.0577 29.5291 29.5142 29.5291 30.0619C29.5291 30.6039 29.3437 31.0603 28.9729 31.4312C28.6077 31.802 28.1484 31.9874 27.595 31.9874H26.2172V34.127H25.4213V28.1363H27.595ZM27.595 31.2429C27.9259 31.2429 28.1998 31.1316 28.4166 30.9091C28.6334 30.6809 28.7418 30.3985 28.7418 30.0619C28.7418 29.7196 28.6334 29.4371 28.4166 29.2146C28.1998 28.9921 27.9259 28.8809 27.595 28.8809H26.2172V31.2429H27.595ZM30.6738 32.3298C30.748 32.712 30.922 33.0087 31.1959 33.2198C31.4754 33.4309 31.8178 33.5364 32.2228 33.5364C32.7877 33.5364 33.1985 33.3282 33.4552 32.9117L34.0885 33.2711C33.672 33.9159 33.0444 34.2382 32.2057 34.2382C31.5268 34.2382 30.9734 34.0271 30.5455 33.6049C30.1233 33.177 29.9122 32.6379 29.9122 31.9874C29.9122 31.3427 30.1204 30.8064 30.5369 30.3785C30.9534 29.9506 31.4926 29.7367 32.1544 29.7367C32.782 29.7367 33.2926 29.9592 33.6863 30.4042C34.0856 30.8435 34.2853 31.3741 34.2853 31.996C34.2853 32.1044 34.2768 32.2157 34.2596 32.3298H30.6738ZM32.1544 30.4384C31.755 30.4384 31.4241 30.5525 31.1616 30.7808C30.8992 31.0033 30.7366 31.3028 30.6738 31.6794H33.5322C33.4695 31.2743 33.3097 30.9662 33.053 30.7551C32.7962 30.544 32.4967 30.4384 32.1544 30.4384ZM35.9713 30.5668C36.2167 30.0362 36.6617 29.7709 37.3064 29.7709V30.5497C36.9412 30.5326 36.6274 30.6296 36.365 30.8407C36.1025 31.0518 35.9713 31.3912 35.9713 31.8591V34.127H35.2268V29.8479H35.9713V30.5668ZM38.6035 31.0033C38.6035 31.1687 38.6862 31.3028 38.8517 31.4055C39.0172 31.5025 39.2168 31.5824 39.4508 31.6451C39.6847 31.7022 39.9186 31.7706 40.1525 31.8505C40.3864 31.9247 40.5861 32.0559 40.7516 32.2442C40.917 32.4268 40.9998 32.6635 40.9998 32.9545C40.9998 33.3425 40.8486 33.6534 40.5462 33.8873C40.2495 34.1212 39.8673 34.2382 39.3994 34.2382C38.9829 34.2382 38.6263 34.1469 38.3297 33.9644C38.033 33.7818 37.8219 33.5393 37.6964 33.2369L38.3382 32.8689C38.4067 33.0743 38.5351 33.2369 38.7233 33.3567C38.9116 33.4765 39.137 33.5364 39.3994 33.5364C39.6447 33.5364 39.8473 33.4908 40.007 33.3995C40.1668 33.3025 40.2467 33.1542 40.2467 32.9545C40.2467 32.789 40.1639 32.6578 39.9985 32.5608C39.833 32.4581 39.6333 32.3783 39.3994 32.3212C39.1655 32.2584 38.9316 32.1871 38.6977 32.1073C38.4637 32.0274 38.2641 31.8962 38.0986 31.7136C37.9331 31.531 37.8504 31.2971 37.8504 31.0118C37.8504 30.641 37.993 30.3357 38.2783 30.0961C38.5693 29.8565 38.9316 29.7367 39.3652 29.7367C39.7132 29.7367 40.0213 29.8166 40.2895 29.9763C40.5633 30.1304 40.7687 30.3472 40.9056 30.6267L40.2809 30.9776C40.1269 30.6125 39.8216 30.4299 39.3652 30.4299C39.1541 30.4299 38.9744 30.4812 38.826 30.5839C38.6777 30.6809 38.6035 30.8207 38.6035 31.0033ZM45.4614 33.5878C45.0221 34.0214 44.4886 34.2382 43.861 34.2382C43.2334 34.2382 42.7 34.0214 42.2607 33.5878C41.8271 33.1542 41.6103 32.6207 41.6103 31.9874C41.6103 31.3541 41.8271 30.8207 42.2607 30.3871C42.7 29.9535 43.2334 29.7367 43.861 29.7367C44.4886 29.7367 45.0221 29.9535 45.4614 30.3871C45.9007 30.8207 46.1204 31.3541 46.1204 31.9874C46.1204 32.6207 45.9007 33.1542 45.4614 33.5878ZM43.861 33.5108C44.2889 33.5108 44.6484 33.3653 44.9393 33.0743C45.2303 32.7833 45.3758 32.4211 45.3758 31.9874C45.3758 31.5538 45.2303 31.1915 44.9393 30.9006C44.6484 30.6096 44.2889 30.4641 43.861 30.4641C43.4388 30.4641 43.0823 30.6096 42.7913 30.9006C42.5003 31.1915 42.3548 31.5538 42.3548 31.9874C42.3548 32.4211 42.5003 32.7833 42.7913 33.0743C43.0823 33.3653 43.4388 33.5108 43.861 33.5108ZM49.2146 29.7367C49.7167 29.7367 50.1189 29.8964 50.4213 30.2159C50.7237 30.5297 50.8749 30.9576 50.8749 31.4996V34.127H50.1303V31.5424C50.1303 31.1944 50.0362 30.9262 49.8479 30.738C49.6596 30.544 49.4 30.447 49.0691 30.447C48.6983 30.447 48.3988 30.564 48.1705 30.7979C47.9423 31.0261 47.8282 31.3798 47.8282 31.8591V34.127H47.0837V29.8479H47.8282V30.4641C48.1306 29.9792 48.5927 29.7367 49.2146 29.7367ZM55.5429 29.8479H56.2874V34.127H55.5429V33.391C55.172 33.9558 54.6329 34.2382 53.9254 34.2382C53.3264 34.2382 52.8157 34.0214 52.3935 33.5878C51.9713 33.1485 51.7602 32.615 51.7602 31.9874C51.7602 31.3599 51.9713 30.8293 52.3935 30.3956C52.8157 29.9563 53.3264 29.7367 53.9254 29.7367C54.6329 29.7367 55.172 30.0191 55.5429 30.5839V29.8479ZM54.0196 33.5193C54.4532 33.5193 54.8155 33.3738 55.1064 33.0829C55.3974 32.7862 55.5429 32.4211 55.5429 31.9874C55.5429 31.5538 55.3974 31.1915 55.1064 30.9006C54.8155 30.6039 54.4532 30.4556 54.0196 30.4556C53.5917 30.4556 53.2322 30.6039 52.9412 30.9006C52.6503 31.1915 52.5048 31.5538 52.5048 31.9874C52.5048 32.4211 52.6503 32.7862 52.9412 33.0829C53.2322 33.3738 53.5917 33.5193 54.0196 33.5193ZM57.5011 34.127V27.8796H58.2456V34.127H57.5011ZM59.8436 29.0692C59.701 29.0692 59.5812 29.0207 59.4842 28.9237C59.3872 28.8267 59.3387 28.7097 59.3387 28.5728C59.3387 28.4359 59.3872 28.3189 59.4842 28.2219C59.5812 28.1192 59.701 28.0679 59.8436 28.0679C59.9806 28.0679 60.0975 28.1192 60.1945 28.2219C60.2915 28.3189 60.34 28.4359 60.34 28.5728C60.34 28.7097 60.2915 28.8267 60.1945 28.9237C60.0975 29.0207 59.9806 29.0692 59.8436 29.0692ZM59.4671 34.127V29.8479H60.2116V34.127H59.4671ZM62.0666 31.0033C62.0666 31.1687 62.1493 31.3028 62.3148 31.4055C62.4802 31.5025 62.6799 31.5824 62.9138 31.6451C63.1477 31.7022 63.3817 31.7706 63.6156 31.8505C63.8495 31.9247 64.0492 32.0559 64.2146 32.2442C64.3801 32.4268 64.4628 32.6635 64.4628 32.9545C64.4628 33.3425 64.3116 33.6534 64.0093 33.8873C63.7126 34.1212 63.3303 34.2382 62.8625 34.2382C62.446 34.2382 62.0894 34.1469 61.7927 33.9644C61.496 33.7818 61.2849 33.5393 61.1594 33.2369L61.8013 32.8689C61.8697 33.0743 61.9981 33.2369 62.1864 33.3567C62.3747 33.4765 62.6 33.5364 62.8625 33.5364C63.1078 33.5364 63.3103 33.4908 63.4701 33.3995C63.6298 33.3025 63.7097 33.1542 63.7097 32.9545C63.7097 32.789 63.627 32.6578 63.4615 32.5608C63.2961 32.4581 63.0964 32.3783 62.8625 32.3212C62.6286 32.2584 62.3946 32.1871 62.1607 32.1073C61.9268 32.0274 61.7271 31.8962 61.5617 31.7136C61.3962 31.531 61.3135 31.2971 61.3135 31.0118C61.3135 30.641 61.4561 30.3357 61.7414 30.0961C62.0323 29.8565 62.3946 29.7367 62.8282 29.7367C63.1763 29.7367 63.4844 29.8166 63.7525 29.9763C64.0264 30.1304 64.2318 30.3472 64.3687 30.6267L63.744 30.9776C63.5899 30.6125 63.2847 30.4299 62.8282 30.4299C62.6171 30.4299 62.4374 30.4812 62.2891 30.5839C62.1408 30.6809 62.0666 30.8207 62.0666 31.0033ZM65.835 32.3298C65.9092 32.712 66.0832 33.0087 66.357 33.2198C66.6366 33.4309 66.9789 33.5364 67.384 33.5364C67.9488 33.5364 68.3596 33.3282 68.6164 32.9117L69.2496 33.2711C68.8332 33.9159 68.2056 34.2382 67.3669 34.2382C66.6879 34.2382 66.1345 34.0271 65.7066 33.6049C65.2844 33.177 65.0733 32.6379 65.0733 31.9874C65.0733 31.3427 65.2816 30.8064 65.6981 30.3785C66.1146 29.9506 66.6537 29.7367 67.3155 29.7367C67.9431 29.7367 68.4537 29.9592 68.8474 30.4042C69.2468 30.8435 69.4465 31.3741 69.4465 31.996C69.4465 32.1044 69.4379 32.2157 69.4208 32.3298H65.835ZM67.3155 30.4384C66.9162 30.4384 66.5852 30.5525 66.3228 30.7808C66.0604 31.0033 65.8977 31.3028 65.835 31.6794H68.6934C68.6306 31.2743 68.4709 30.9662 68.2141 30.7551C67.9574 30.544 67.6579 30.4384 67.3155 30.4384ZM73.9226 28.1363H74.6672V34.127H73.9226V33.391C73.5518 33.9558 73.0126 34.2382 72.3051 34.2382C71.7061 34.2382 71.1954 34.0214 70.7732 33.5878C70.3511 33.1485 70.14 32.615 70.14 31.9874C70.14 31.3599 70.3511 30.8293 70.7732 30.3956C71.1954 29.9563 71.7061 29.7367 72.3051 29.7367C73.0126 29.7367 73.5518 30.0191 73.9226 30.5839V28.1363ZM72.3993 33.5193C72.8329 33.5193 73.1952 33.3738 73.4861 33.0829C73.7771 32.7862 73.9226 32.4211 73.9226 31.9874C73.9226 31.5538 73.7771 31.1915 73.4861 30.9006C73.1952 30.6039 72.8329 30.4556 72.3993 30.4556C71.9714 30.4556 71.6119 30.6039 71.321 30.9006C71.03 31.1915 70.8845 31.5538 70.8845 31.9874C70.8845 32.4211 71.03 32.7862 71.321 33.0829C71.6119 33.3738 71.9714 33.5193 72.3993 33.5193ZM80.3566 28.1363C80.9101 28.1363 81.3693 28.3218 81.7345 28.6926C82.1053 29.0577 82.2908 29.5142 82.2908 30.0619C82.2908 30.6039 82.1053 31.0603 81.7345 31.4312C81.3693 31.802 80.9101 31.9874 80.3566 31.9874H78.9788V34.127H78.1829V28.1363H80.3566ZM80.3566 31.2429C80.6876 31.2429 80.9614 31.1316 81.1782 30.9091C81.395 30.6809 81.5034 30.3985 81.5034 30.0619C81.5034 29.7196 81.395 29.4371 81.1782 29.2146C80.9614 28.9921 80.6876 28.8809 80.3566 28.8809H78.9788V31.2429H80.3566ZM83.2394 34.127V27.8796H83.9839V34.127H83.2394ZM88.7484 29.8479H89.4929V34.127H88.7484V33.391C88.3776 33.9558 87.8384 34.2382 87.1309 34.2382C86.5319 34.2382 86.0212 34.0214 85.599 33.5878C85.1768 33.1485 84.9657 32.615 84.9657 31.9874C84.9657 31.3599 85.1768 30.8293 85.599 30.3956C86.0212 29.9563 86.5319 29.7367 87.1309 29.7367C87.8384 29.7367 88.3776 30.0191 88.7484 30.5839V29.8479ZM87.2251 33.5193C87.6587 33.5193 88.021 33.3738 88.3119 33.0829C88.6029 32.7862 88.7484 32.4211 88.7484 31.9874C88.7484 31.5538 88.6029 31.1915 88.3119 30.9006C88.021 30.6039 87.6587 30.4556 87.2251 30.4556C86.7972 30.4556 86.4377 30.6039 86.1468 30.9006C85.8558 31.1915 85.7103 31.5538 85.7103 31.9874C85.7103 32.4211 85.8558 32.7862 86.1468 33.0829C86.4377 33.3738 86.7972 33.5193 87.2251 33.5193ZM92.8375 29.7367C93.3396 29.7367 93.7418 29.8964 94.0442 30.2159C94.3466 30.5297 94.4978 30.9576 94.4978 31.4996V34.127H93.7532V31.5424C93.7532 31.1944 93.6591 30.9262 93.4708 30.738C93.2826 30.544 93.023 30.447 92.692 30.447C92.3212 30.447 92.0217 30.564 91.7935 30.7979C91.5652 31.0261 91.4511 31.3798 91.4511 31.8591V34.127H90.7066V29.8479H91.4511V30.4641C91.7535 29.9792 92.2157 29.7367 92.8375 29.7367ZM96.2646 31.0033C96.2646 31.1687 96.3474 31.3028 96.5128 31.4055C96.6783 31.5025 96.878 31.5824 97.1119 31.6451C97.3458 31.7022 97.5797 31.7706 97.8136 31.8505C98.0476 31.9247 98.2472 32.0559 98.4127 32.2442C98.5782 32.4268 98.6609 32.6635 98.6609 32.9545C98.6609 33.3425 98.5097 33.6534 98.2073 33.8873C97.9106 34.1212 97.5284 34.2382 97.0605 34.2382C96.644 34.2382 96.2874 34.1469 95.9908 33.9644C95.6941 33.7818 95.483 33.5393 95.3575 33.2369L95.9993 32.8689C96.0678 33.0743 96.1962 33.2369 96.3844 33.3567C96.5727 33.4765 96.7981 33.5364 97.0605 33.5364C97.3059 33.5364 97.5084 33.4908 97.6681 33.3995C97.8279 33.3025 97.9078 33.1542 97.9078 32.9545C97.9078 32.789 97.825 32.6578 97.6596 32.5608C97.4941 32.4581 97.2944 32.3783 97.0605 32.3212C96.8266 32.2584 96.5927 32.1871 96.3588 32.1073C96.1248 32.0274 95.9252 31.8962 95.7597 31.7136C95.5942 31.531 95.5115 31.2971 95.5115 31.0118C95.5115 30.641 95.6542 30.3357 95.9394 30.0961C96.2304 29.8565 96.5927 29.7367 97.0263 29.7367C97.3743 29.7367 97.6824 29.8166 97.9506 29.9763C98.2244 30.1304 98.4298 30.3472 98.5667 30.6267L97.942 30.9776C97.788 30.6125 97.4827 30.4299 97.0263 30.4299C96.8152 30.4299 96.6355 30.4812 96.4871 30.5839C96.3388 30.6809 96.2646 30.8207 96.2646 31.0033Z" fill="#CBD5E1"/>
<rect x="11.0865" y="41.041" width="100.129" height="6.84643" rx="3.42321" fill="#292C33"/>
<rect x="11.0865" y="50.4551" width="30.8089" height="6.84643" rx="3.42321" fill="#292C33"/>
<rect x="47.886" y="50.4551" width="30.8089" height="6.84643" rx="3.42321" fill="#292C33"/>
<rect x="11.0865" y="59.8691" width="54.7714" height="6.84643" rx="3.42321" fill="#292C33"/>
<rect x="11.0865" y="69.2822" width="100.129" height="6.84643" rx="3.42321" fill="#292C33"/>
<rect x="11.0865" y="78.6963" width="30.8089" height="6.84643" rx="3.42321" fill="#292C33"/>
<rect x="47.886" y="78.6963" width="30.8089" height="6.84643" rx="3.42321" fill="#292C33"/>
<rect x="11.0865" y="88.1104" width="54.7714" height="6.84643" rx="3.42321" fill="#292C33"/>
<rect x="11.0865" y="97.5244" width="100.129" height="6.84643" rx="3.42321" fill="#292C33"/>
<defs>
<clipPath id="clip0_1_5212">
<rect width="10.2696" height="10.2696" fill="white" transform="translate(11.0865 26.4922)"/>
</clipPath>
</defs>
</svg>
