<svg width="121" height="129" viewBox="0 0 121 129" fill="none" xmlns="http://www.w3.org/2000/svg">
<rect x="0.331543" width="120.668" height="128.371" rx="10.2696" fill="#3A3C43"/>
<g clip-path="url(#clip0_1_5193)">
<path d="M11.4568 26.957H19.6461C19.7643 26.957 19.8601 27.0528 19.8601 27.171C19.8601 27.2082 19.8504 27.2448 19.8319 27.2771L18.3032 29.9523L19.8319 32.6275C19.8905 32.7302 19.8549 32.8608 19.7523 32.9195C19.72 32.9379 19.6834 32.9477 19.6461 32.9477H12.3126V35.0872H11.4568V26.957Z" fill="#E2E8F0"/>
</g>
<path d="M27.1095 27.318C27.663 27.318 28.1222 27.5034 28.4874 27.8742C28.8582 28.2394 29.0437 28.6958 29.0437 29.2435C29.0437 29.7855 28.8582 30.242 28.4874 30.6128C28.1222 30.9837 27.663 31.1691 27.1095 31.1691H25.7317V33.3086H24.9358V27.318H27.1095ZM27.1095 30.4245C27.4405 30.4245 27.7143 30.3133 27.9311 30.0908C28.1479 29.8626 28.2563 29.5801 28.2563 29.2435C28.2563 28.9012 28.1479 28.6188 27.9311 28.3963C27.7143 28.1738 27.4405 28.0625 27.1095 28.0625H25.7317V30.4245H27.1095ZM30.6449 29.7485C30.8902 29.2179 31.3352 28.9526 31.9799 28.9526V29.7313C31.6148 29.7142 31.301 29.8112 31.0385 30.0223C30.7761 30.2334 30.6449 30.5729 30.6449 31.0407V33.3086H29.9003V29.0296H30.6449V29.7485ZM36.1715 32.7694C35.7322 33.203 35.1987 33.4198 34.5711 33.4198C33.9436 33.4198 33.4101 33.203 32.9708 32.7694C32.5372 32.3358 32.3204 31.8024 32.3204 31.1691C32.3204 30.5358 32.5372 30.0023 32.9708 29.5687C33.4101 29.1351 33.9436 28.9183 34.5711 28.9183C35.1987 28.9183 35.7322 29.1351 36.1715 29.5687C36.6108 30.0023 36.8305 30.5358 36.8305 31.1691C36.8305 31.8024 36.6108 32.3358 36.1715 32.7694ZM34.5711 32.6924C34.999 32.6924 35.3585 32.5469 35.6495 32.256C35.9404 31.965 36.0859 31.6027 36.0859 31.1691C36.0859 30.7355 35.9404 30.3732 35.6495 30.0822C35.3585 29.7912 34.999 29.6458 34.5711 29.6458C34.1489 29.6458 33.7924 29.7912 33.5014 30.0822C33.2104 30.3732 33.0649 30.7355 33.0649 31.1691C33.0649 31.6027 33.2104 31.965 33.5014 32.256C33.7924 32.5469 34.1489 32.6924 34.5711 32.6924ZM40.1558 28.9183C40.7549 28.9183 41.2655 29.138 41.6877 29.5773C42.1099 30.0109 42.321 30.5415 42.321 31.1691C42.321 31.7967 42.1099 32.3301 41.6877 32.7694C41.2655 33.203 40.7549 33.4198 40.1558 33.4198C39.4483 33.4198 38.9092 33.1374 38.5383 32.5726V33.3086H37.7938V27.318H38.5383V29.7656C38.9092 29.2007 39.4483 28.9183 40.1558 28.9183ZM40.0617 32.701C40.4896 32.701 40.849 32.5555 41.14 32.2645C41.4309 31.9678 41.5764 31.6027 41.5764 31.1691C41.5764 30.7355 41.4309 30.3732 41.14 30.0822C40.849 29.7855 40.4896 29.6372 40.0617 29.6372C39.6281 29.6372 39.2658 29.7855 38.9748 30.0822C38.6838 30.3732 38.5383 30.7355 38.5383 31.1691C38.5383 31.6027 38.6838 31.9678 38.9748 32.2645C39.2658 32.5555 39.6281 32.701 40.0617 32.701ZM43.295 33.3086V27.0612H44.0395V33.3086H43.295ZM45.783 31.5114C45.8572 31.8937 46.0312 32.1903 46.3051 32.4014C46.5846 32.6125 46.927 32.7181 47.332 32.7181C47.8969 32.7181 48.3077 32.5098 48.5644 32.0934L49.1977 32.4528C48.7812 33.0975 48.1536 33.4198 47.3149 33.4198C46.636 33.4198 46.0826 33.2087 45.6547 32.7866C45.2325 32.3587 45.0214 31.8195 45.0214 31.1691C45.0214 30.5244 45.2296 29.9881 45.6461 29.5602C46.0626 29.1323 46.6018 28.9183 47.2636 28.9183C47.8912 28.9183 48.4018 29.1408 48.7955 29.5858C49.1948 30.0252 49.3945 30.5558 49.3945 31.1776C49.3945 31.286 49.386 31.3973 49.3689 31.5114H45.783ZM47.2636 29.6201C46.8642 29.6201 46.5333 29.7342 46.2708 29.9624C46.0084 30.1849 45.8458 30.4844 45.783 30.861H48.6414C48.5787 30.4559 48.4189 30.1478 48.1622 29.9367C47.9054 29.7256 47.6059 29.6201 47.2636 29.6201ZM54.9573 28.9183C55.4366 28.9183 55.8245 29.0752 56.1212 29.389C56.4179 29.6971 56.5662 30.1164 56.5662 30.647V33.3086H55.8217V30.6727C55.8217 30.3418 55.7361 30.0851 55.5649 29.9025C55.3938 29.7199 55.1656 29.6286 54.8803 29.6286C54.5608 29.6286 54.3041 29.737 54.1101 29.9538C53.9218 30.1649 53.8277 30.4901 53.8277 30.9295V33.3086H53.0831V30.6727C53.0831 30.3418 53.0004 30.0851 52.8349 29.9025C52.6752 29.7199 52.4555 29.6286 52.176 29.6286C51.8622 29.6286 51.5997 29.737 51.3886 29.9538C51.1832 30.1706 51.0805 30.4959 51.0805 30.9295V33.3086H50.336V29.0296H51.0805V29.603C51.3715 29.1465 51.7966 28.9183 52.3557 28.9183C52.9319 28.9183 53.3513 29.1608 53.6137 29.6458C53.9104 29.1608 54.3583 28.9183 54.9573 28.9183ZM61.9204 33.4198C61.3613 33.4198 60.882 33.2886 60.4827 33.0262C60.089 32.7637 59.8123 32.4043 59.6525 31.9479L60.3372 31.5542C60.5711 32.2788 61.1046 32.6411 61.9375 32.6411C62.3483 32.6411 62.6621 32.5583 62.8789 32.3929C63.0957 32.2217 63.2041 31.9964 63.2041 31.7168C63.2041 31.4315 63.0957 31.2176 62.8789 31.0749C62.6621 30.9323 62.2998 30.7811 61.7921 30.6214C61.541 30.5415 61.3499 30.4787 61.2187 30.4331C61.0874 30.3817 60.922 30.3076 60.7223 30.2106C60.5283 30.1079 60.3828 30.0052 60.2858 29.9025C60.1888 29.7941 60.1004 29.6543 60.0205 29.4832C59.9464 29.312 59.9093 29.118 59.9093 28.9012C59.9093 28.382 60.0919 27.9712 60.457 27.6688C60.8221 27.3608 61.2672 27.2067 61.7921 27.2067C62.2656 27.2067 62.6764 27.3265 63.0244 27.5662C63.3781 27.8058 63.6434 28.1224 63.8203 28.5161L63.1528 28.9012C62.896 28.285 62.4425 27.9769 61.7921 27.9769C61.4668 27.9769 61.2044 28.0568 61.0047 28.2166C60.805 28.3763 60.7052 28.5931 60.7052 28.867C60.7052 29.1294 60.7993 29.3291 60.9876 29.466C61.1759 29.603 61.5011 29.7456 61.9632 29.8939C62.1287 29.9453 62.2456 29.9824 62.3141 30.0052C62.3826 30.028 62.4881 30.068 62.6307 30.125C62.7791 30.1821 62.8875 30.2277 62.9559 30.2619C63.0244 30.2962 63.1157 30.3447 63.2298 30.4074C63.3496 30.4702 63.438 30.5301 63.4951 30.5871C63.5522 30.6442 63.6178 30.7155 63.6919 30.8011C63.7718 30.881 63.8289 30.9637 63.8631 31.0493C63.8973 31.1349 63.9259 31.2347 63.9487 31.3488C63.9772 31.4572 63.9915 31.5742 63.9915 31.6997C63.9915 32.2246 63.8003 32.6439 63.4181 32.9577C63.0358 33.2658 62.5366 33.4198 61.9204 33.4198ZM67.1449 29.7485H66.0067V32.0677C66.0067 32.2788 66.0466 32.43 66.1265 32.5213C66.2121 32.6068 66.3404 32.6525 66.5116 32.6582C66.6828 32.6582 66.8939 32.6525 67.1449 32.6411V33.3086C66.4945 33.3942 66.0181 33.3428 65.7157 33.1545C65.4133 32.9606 65.2621 32.5983 65.2621 32.0677V29.7485H64.4149V29.0296H65.2621V28.054L66.0067 27.8315V29.0296H67.1449V29.7485ZM71.4377 29.0296H72.1822V33.3086H71.4377V32.5726C71.0668 33.1374 70.5277 33.4198 69.8202 33.4198C69.2212 33.4198 68.7105 33.203 68.2883 32.7694C67.8661 32.3301 67.655 31.7967 67.655 31.1691C67.655 30.5415 67.8661 30.0109 68.2883 29.5773C68.7105 29.138 69.2212 28.9183 69.8202 28.9183C70.5277 28.9183 71.0668 29.2007 71.4377 29.7656V29.0296ZM69.9144 32.701C70.348 32.701 70.7103 32.5555 71.0012 32.2645C71.2922 31.9678 71.4377 31.6027 71.4377 31.1691C71.4377 30.7355 71.2922 30.3732 71.0012 30.0822C70.7103 29.7855 70.348 29.6372 69.9144 29.6372C69.4865 29.6372 69.127 29.7855 68.836 30.0822C68.5451 30.3732 68.3996 30.7355 68.3996 31.1691C68.3996 31.6027 68.5451 31.9678 68.836 32.2645C69.127 32.5555 69.4865 32.701 69.9144 32.701ZM75.7237 29.7485H74.5854V32.0677C74.5854 32.2788 74.6254 32.43 74.7053 32.5213C74.7908 32.6068 74.9192 32.6525 75.0904 32.6582C75.2615 32.6582 75.4726 32.6525 75.7237 32.6411V33.3086C75.0733 33.3942 74.5969 33.3428 74.2945 33.1545C73.9921 32.9606 73.8409 32.5983 73.8409 32.0677V29.7485H72.9936V29.0296H73.8409V28.054L74.5854 27.8315V29.0296H75.7237V29.7485ZM76.9955 31.5114C77.0696 31.8937 77.2436 32.1903 77.5175 32.4014C77.7971 32.6125 78.1394 32.7181 78.5445 32.7181C79.1093 32.7181 79.5201 32.5098 79.7768 32.0934L80.4101 32.4528C79.9936 33.0975 79.366 33.4198 78.5274 33.4198C77.8484 33.4198 77.295 33.2087 76.8671 32.7866C76.4449 32.3587 76.2338 31.8195 76.2338 31.1691C76.2338 30.5244 76.442 29.9881 76.8585 29.5602C77.275 29.1323 77.8142 28.9183 78.476 28.9183C79.1036 28.9183 79.6142 29.1408 80.0079 29.5858C80.4073 30.0252 80.607 30.5558 80.607 31.1776C80.607 31.286 80.5984 31.3973 80.5813 31.5114H76.9955ZM78.476 29.6201C78.0766 29.6201 77.7457 29.7342 77.4833 29.9624C77.2208 30.1849 77.0582 30.4844 76.9955 30.861H79.8539C79.7911 30.4559 79.6313 30.1478 79.3746 29.9367C79.1179 29.7256 78.8183 29.6201 78.476 29.6201ZM86.1697 28.9183C86.649 28.9183 87.037 29.0752 87.3336 29.389C87.6303 29.6971 87.7787 30.1164 87.7787 30.647V33.3086H87.0341V30.6727C87.0341 30.3418 86.9485 30.0851 86.7774 29.9025C86.6062 29.7199 86.378 29.6286 86.0927 29.6286C85.7732 29.6286 85.5165 29.737 85.3225 29.9538C85.1342 30.1649 85.0401 30.4901 85.0401 30.9295V33.3086H84.2955V30.6727C84.2955 30.3418 84.2128 30.0851 84.0474 29.9025C83.8876 29.7199 83.6679 29.6286 83.3884 29.6286C83.0746 29.6286 82.8121 29.737 82.601 29.9538C82.3957 30.1706 82.293 30.4959 82.293 30.9295V33.3086H81.5484V29.0296H82.293V29.603C82.5839 29.1465 83.009 28.9183 83.5681 28.9183C84.1443 28.9183 84.5637 29.1608 84.8261 29.6458C85.1228 29.1608 85.5707 28.9183 86.1697 28.9183ZM89.4187 31.5114C89.4928 31.8937 89.6668 32.1903 89.9407 32.4014C90.2203 32.6125 90.5626 32.7181 90.9677 32.7181C91.5325 32.7181 91.9433 32.5098 92.2 32.0934L92.8333 32.4528C92.4168 33.0975 91.7892 33.4198 90.9505 33.4198C90.2716 33.4198 89.7182 33.2087 89.2903 32.7866C88.8681 32.3587 88.657 31.8195 88.657 31.1691C88.657 30.5244 88.8652 29.9881 89.2817 29.5602C89.6982 29.1323 90.2374 28.9183 90.8992 28.9183C91.5268 28.9183 92.0374 29.1408 92.4311 29.5858C92.8305 30.0252 93.0301 30.5558 93.0301 31.1776C93.0301 31.286 93.0216 31.3973 93.0045 31.5114H89.4187ZM90.8992 29.6201C90.4998 29.6201 90.1689 29.7342 89.9065 29.9624C89.644 30.1849 89.4814 30.4844 89.4187 30.861H92.277C92.2143 30.4559 92.0545 30.1478 91.7978 29.9367C91.5411 29.7256 91.2415 29.6201 90.8992 29.6201ZM96.1026 28.9183C96.6046 28.9183 97.0068 29.0781 97.3092 29.3976C97.6116 29.7114 97.7628 30.1393 97.7628 30.6813V33.3086H97.0183V30.7241C97.0183 30.376 96.9241 30.1079 96.7358 29.9196C96.5476 29.7256 96.288 29.6286 95.9571 29.6286C95.5862 29.6286 95.2867 29.7456 95.0585 29.9795C94.8303 30.2077 94.7161 30.5615 94.7161 31.0407V33.3086H93.9716V29.0296H94.7161V29.6458C95.0185 29.1608 95.4807 28.9183 96.1026 28.9183ZM101.216 29.7485H100.077V32.0677C100.077 32.2788 100.117 32.43 100.197 32.5213C100.283 32.6068 100.411 32.6525 100.582 32.6582C100.753 32.6582 100.965 32.6525 101.216 32.6411V33.3086C100.565 33.3942 100.089 33.3428 99.7864 33.1545C99.484 32.9606 99.3328 32.5983 99.3328 32.0677V29.7485H98.4856V29.0296H99.3328V28.054L100.077 27.8315V29.0296H101.216V29.7485Z" fill="#CBD5E1"/>
<rect x="10.6011" y="40.2227" width="100.129" height="6.84643" rx="3.42321" fill="#292C33"/>
<rect x="10.6011" y="49.6367" width="30.8089" height="6.84643" rx="3.42321" fill="#292C33"/>
<rect x="47.4006" y="49.6367" width="30.8089" height="6.84643" rx="3.42321" fill="#292C33"/>
<rect x="10.6011" y="59.0498" width="54.7714" height="6.84643" rx="3.42321" fill="#292C33"/>
<rect x="10.6011" y="68.4639" width="100.129" height="6.84643" rx="3.42321" fill="#292C33"/>
<rect x="10.6011" y="77.8779" width="30.8089" height="6.84643" rx="3.42321" fill="#292C33"/>
<rect x="47.4006" y="77.8779" width="30.8089" height="6.84643" rx="3.42321" fill="#292C33"/>
<rect x="10.6011" y="87.292" width="54.7714" height="6.84643" rx="3.42321" fill="#292C33"/>
<rect x="10.6011" y="96.7051" width="100.129" height="6.84643" rx="3.42321" fill="#292C33"/>
<defs>
<clipPath id="clip0_1_5193">
<rect width="10.2696" height="10.2696" fill="white" transform="translate(10.6011 25.6738)"/>
</clipPath>
</defs>
</svg>
