<svg width="122" height="129" viewBox="0 0 122 129" fill="none" xmlns="http://www.w3.org/2000/svg">
<rect x="0.816895" width="120.668" height="128.371" rx="10.2696" fill="#3A3C43"/>
<g clip-path="url(#clip0_1_3380)">
<rect width="114" height="95" transform="translate(4 3)" fill="#3A3C43"/>
<path d="M55.2261 86.3301L55.0401 89.9234L54.9781 91.1811H52.3508V86.3301H55.2261Z" fill="#FEB991"/>
<path d="M52.3199 90.3564L49.0726 92.6839C48.8091 92.8718 48.9331 93.3046 49.2509 93.3046H54.7689C55.0789 93.3046 55.3114 93.0269 55.2804 92.7003L55.0324 90.3564C55.0324 90.3564 53.4669 91.5651 52.3199 90.3564Z" fill="#15173F"/>
<path d="M59.6515 25.0479L59.4422 26.526C59.4422 26.526 59.2252 26.918 58.9695 27.016L58.9927 25.4399L59.6515 25.0479Z" fill="#15173F"/>
<path d="M55.9083 28.3219L55.8075 29.3754L55.637 31.2374L59.76 30.9679L59.1943 26.8438L59.1013 25.8393C59.3028 25.6759 59.4655 25.5289 59.5973 25.3819C60.0468 24.8919 60.1398 24.5081 60.0778 24.2304V24.2223C59.9848 23.7894 59.543 23.5934 59.543 23.5934L59.0703 20.9883L54.1413 21.8866C54.1258 21.9928 54.1103 22.0989 54.0948 22.2051V22.2214C54.025 22.7686 53.9785 23.2668 53.9553 23.7241V23.7404C53.7073 28.8609 55.9083 28.3219 55.9083 28.3219Z" fill="#FEB991"/>
<path d="M58.3416 21.7318L58.3029 24.5983L58.8144 24.4105C58.8144 24.4105 59.0314 23.6836 59.5429 23.6918C59.7599 23.6918 60.1086 24.0675 60.1009 24.4023C60.1009 24.4023 61.7284 20.7028 59.9924 20.6783C59.9924 20.6783 56.8769 16.3091 55.8074 19.4288C55.8074 19.4288 53.6684 18.5305 54.2574 20.3761C54.2574 20.3761 52.6221 19.9188 53.4126 22.3035L53.9396 23.8388L54.0946 22.1973C54.0946 22.1973 55.3579 22.6546 57.2101 21.8216C57.2101 21.8216 56.7916 22.4586 55.9701 22.7771C55.9701 22.769 57.6131 22.475 58.3416 21.7318Z" fill="#15173F"/>
<path d="M55.8074 29.3755C57.6286 28.9427 57.9619 26.9745 57.9696 26.9092C57.6364 27.5053 56.5746 28.028 55.9081 28.322L55.8074 29.3755Z" fill="#15173F"/>
<path d="M64.2705 86.3301L64.162 89.4987L64.1077 91.1811H61.31L61.2557 89.6294L61.1472 86.3301H64.2705Z" fill="#FEB991"/>
<path d="M55.2261 86.3301L55.0401 89.9234L52.3508 89.5069V86.3301H55.2261Z" fill="#15173F"/>
<path d="M61.2248 90.3154C61.2248 90.3154 62.953 91.3526 64.2705 90.2256L69.0833 92.6919C69.3623 92.8226 69.2693 93.2636 68.967 93.2636H61.4418C61.0853 93.2636 60.814 92.9288 60.8683 92.5531L61.2248 90.3154Z" fill="#15173F"/>
<path d="M64.2705 86.3301L64.162 89.4987L61.2557 89.6294L61.1472 86.3301H64.2705Z" fill="#15173F"/>
<path d="M51.4287 50.0781L52.0332 88.6901H56.4042L57.9232 66.5176L58.3185 57.9835L58.9075 66.6646L59.884 88.6901H64.7122V65.4968L64.1465 50.1598L51.4287 50.0781Z" fill="#2E2E75"/>
<path d="M45.9029 33.3367C45.9029 33.3367 44.3762 34.7986 44.3064 34.8721C44.2677 34.9129 43.9887 34.0636 43.7794 33.3939C43.6477 32.9692 43.5392 32.6099 43.5392 32.6099C42.8494 32.0954 42.2914 31.0746 42.2914 31.0746C41.2529 28.9594 41.3769 28.5347 41.3769 28.5347C41.3769 28.1672 41.7954 28.0937 41.7954 28.0937C41.8884 27.6037 42.3689 27.5629 42.3689 27.5629C42.4387 27.1219 43.0664 27.1954 43.0664 27.1954C41.7334 24.3289 42.8494 24.1982 42.8494 24.1982L45.1744 29.0656C45.2442 29.2207 45.2829 29.3922 45.2752 29.5637C45.2519 30.1191 45.2054 31.3686 45.2054 31.4257C45.2054 31.4666 45.3837 31.9566 45.5619 32.4384C45.7402 32.9039 45.9029 33.3367 45.9029 33.3367Z" fill="#FEB991"/>
<path d="M74.9344 30.0459C74.9344 30.0459 74.1051 31.3607 73.1286 32.0875C72.1599 32.8144 71.6019 32.8144 71.6019 32.8144L71.3384 33.5167L70.8424 34.8724L69.0366 33.631L69.5016 32.4795L70.3541 30.348L72.1521 28.3064C72.1521 28.3064 72.6404 28.8209 72.0126 29.6947L74.3221 28.192C74.5856 28.0205 74.8491 28.5677 74.7174 28.7474C74.7174 28.7474 75.0661 29.1149 74.8569 29.4007C74.8646 29.3925 75.0739 29.6865 74.9344 30.0459Z" fill="#FEB991"/>
<path d="M71.3462 33.533L70.8424 34.8723L69.0444 33.631L69.5094 32.4795L71.3462 33.533Z" fill="#15173F"/>
<path d="M45.903 33.3371C45.903 33.3371 44.3763 34.7989 44.3065 34.8724C44.2678 34.9132 43.9888 34.0639 43.7795 33.3942L45.562 32.4551C45.7403 32.9042 45.903 33.3371 45.903 33.3371Z" fill="#15173F"/>
<path d="M71.8886 34.9454C71.8886 34.9454 68.3546 45.6764 65.9986 46.0439C65.9986 46.0439 63.9681 46.542 63.5186 42.7527L64.5959 52.3404V52.3567C64.5959 52.3567 57.6209 55.5417 50.8784 52.275L51.1961 41.0214L51.2349 39.6902C51.2349 39.6902 50.6769 45.3824 48.8789 45.6764C48.8789 45.6764 47.0809 46.15 45.8564 42.9814L42.9424 35.2475L45.8951 32.4545L48.0419 37.6404L49.3516 33.1569C49.5764 32.3974 50.1189 31.7849 50.8319 31.5072L55.6911 29.6044C55.6911 29.6044 57.1946 32.3565 59.6204 29.3594L64.0844 31.4745C64.7121 31.7767 65.1694 32.3729 65.3011 33.0915L66.2621 38.2284L68.8971 32.4627L71.8886 34.9454Z" fill="#DEE3FC"/>
<path d="M42.421 27.5654L42.2881 27.6494L42.9859 28.8749L43.1188 28.7909L42.421 27.5654Z" fill="#15173F"/>
<path d="M41.8802 28.0554L41.7463 28.1377L42.2892 29.1183L42.4231 29.0359L41.8802 28.0554Z" fill="#15173F"/>
<path d="M43.6011 28.4615C43.2136 27.5714 42.6169 26.2239 42.5781 26.1585L42.6324 26.1259L42.7021 26.0605C42.7099 26.0769 42.7331 26.0932 43.7484 28.3962L43.6011 28.4615Z" fill="#15173F"/>
<path d="M74.7071 28.6801L72.7668 29.9072L72.8466 30.0473L74.7869 28.8201L74.7071 28.6801Z" fill="#15173F"/>
<path d="M74.7843 29.336L73.1592 30.4775L73.2452 30.6134L74.8702 29.4719L74.7843 29.336Z" fill="#15173F"/>
<path d="M47.732 36.5574L47.5193 36.6562L48.2981 38.5169L48.5109 38.418L47.732 36.5574Z" fill="#15173F"/>
<path d="M66.7707 36.8431L65.843 38.9463L66.0538 39.0496L66.9816 36.9464L66.7707 36.8431Z" fill="#15173F"/>
<g opacity="0.15">
<path d="M64.5959 52.349C64.5959 52.349 57.6209 55.534 50.8784 52.2673L51.1962 41.0137C51.9479 55.8688 61.5347 53.4842 64.5959 52.3327V52.349Z" fill="black"/>
</g>
<path d="M56.071 26.542H54.676C54.676 26.542 54.986 27.767 56.071 26.542Z" fill="white"/>
<path d="M46.9879 11.1071C46.9879 8.08541 44.6629 5.63541 41.7877 5.64358C38.9279 5.65174 36.5797 8.15074 36.6107 11.1642C36.6262 12.7812 37.3004 14.2267 38.3699 15.2149C38.5327 15.3619 38.6799 15.5252 38.8117 15.6967C39.2302 16.2439 39.7572 17.2157 39.7572 18.6122H41.2684H42.3224H43.8337C43.8337 17.1341 44.4227 16.1377 44.8489 15.6069C44.9574 15.4681 45.0814 15.3456 45.2054 15.2312C46.2982 14.2267 46.9879 12.7486 46.9879 11.1071Z" fill="#BAD0F7"/>
<path d="M44.2909 12.9771C44.1204 12.6668 43.7174 12.2258 42.9269 12.6749C42.8649 12.6341 42.7409 12.5769 42.5859 12.5361C42.2991 12.4626 42.0124 12.5034 41.7566 12.6423C41.6869 12.6096 41.5939 12.5606 41.4699 12.5361C41.1754 12.4626 40.8809 12.5034 40.6174 12.6586C39.8579 12.2503 39.4626 12.6831 39.2921 12.9853C39.1681 13.2058 39.1604 13.6223 39.2766 14.2593C39.3619 14.7493 39.5169 15.3618 39.7339 16.0886C40.1059 17.3218 40.5399 18.4651 40.5399 18.4733L40.7336 18.3916C40.7259 18.3834 40.2996 17.2401 39.9276 16.0151C39.2921 13.8918 39.3619 13.2711 39.4704 13.0914C39.6874 12.7076 40.0051 12.6096 40.4236 12.8056C40.3849 12.8464 40.3539 12.9036 40.3229 12.9771C40.2609 13.1241 40.2221 13.3283 40.2221 13.5324C40.2221 13.7366 40.2609 13.9408 40.3229 14.0878C40.4004 14.2674 40.5089 14.3654 40.6406 14.3654C40.7724 14.3654 40.8809 14.2674 40.9584 14.0878C41.0204 13.9408 41.0591 13.7366 41.0591 13.5324C41.0591 13.3283 41.0204 13.1241 40.9584 12.9771C40.9274 12.9036 40.8886 12.8383 40.8421 12.7893C41.1444 12.6668 41.4234 12.7321 41.5861 12.8056C41.5474 12.8464 41.5086 12.9036 41.4854 12.9771C41.4234 13.1241 41.3846 13.3283 41.3846 13.5324C41.3846 13.7366 41.4234 13.9408 41.4854 14.0878C41.5629 14.2674 41.6714 14.3654 41.8031 14.3654C41.9271 14.3654 42.0434 14.2674 42.1209 14.0878C42.1829 13.9408 42.2216 13.7366 42.2216 13.5324C42.2216 13.3283 42.1829 13.1241 42.1209 12.9771C42.0821 12.8954 42.0434 12.8301 41.9969 12.7811C42.2991 12.6668 42.5626 12.7403 42.7254 12.8056C42.6866 12.8464 42.6556 12.9036 42.6246 12.9689C42.5626 13.1159 42.5239 13.3201 42.5239 13.5243C42.5239 13.7284 42.5626 13.9326 42.6246 14.0796C42.7021 14.2593 42.8106 14.3573 42.9424 14.3573C43.0664 14.3573 43.1826 14.2593 43.2601 14.0796C43.3221 13.9326 43.3609 13.7284 43.3609 13.5243C43.3609 13.3201 43.3221 13.1159 43.2601 12.9689C43.2291 12.9036 43.1981 12.8464 43.1671 12.8056C43.5934 12.6014 43.9189 12.6994 44.1359 13.0833C44.2366 13.2629 44.3141 13.8836 43.6786 16.0069C43.3144 17.2319 42.8804 18.3671 42.8726 18.3834L43.0664 18.4651C43.0741 18.4569 43.5081 17.3054 43.8724 16.0804C44.0894 15.3536 44.2444 14.7411 44.3296 14.2511C44.4226 13.6059 44.4149 13.1894 44.2909 12.9771ZM40.6484 14.1368C40.5786 14.1368 40.4469 13.9163 40.4469 13.5243C40.4469 13.1241 40.5786 12.9118 40.6484 12.9118C40.7181 12.9118 40.8499 13.1323 40.8499 13.5243C40.8499 13.9244 40.7181 14.1368 40.6484 14.1368ZM42.0046 13.5243C42.0046 13.9244 41.8729 14.1368 41.8031 14.1368C41.7334 14.1368 41.6016 13.9163 41.6016 13.5243C41.6016 13.1241 41.7334 12.9118 41.8031 12.9118C41.8729 12.9118 42.0046 13.1323 42.0046 13.5243ZM42.9269 14.1368C42.8571 14.1368 42.7254 13.9163 42.7254 13.5243C42.7254 13.1241 42.8571 12.9118 42.9269 12.9118C42.9966 12.9118 43.1284 13.1323 43.1284 13.5243C43.1284 13.9244 42.9966 14.1368 42.9269 14.1368Z" fill="white"/>
<path d="M40.8809 20.417V20.7518C40.8809 21.2908 41.2916 21.7237 41.8031 21.7237C42.3146 21.7237 42.7254 21.2908 42.7254 20.7518V20.417H40.8809Z" fill="#3D3D3D"/>
<path d="M43.9189 18.3184H39.7029V20.458H43.9189V18.3184Z" fill="#6397C6"/>
<path d="M39.9819 21.0217H43.6244C43.8879 21.0217 44.0972 20.8012 44.0972 20.5236C44.0972 20.2459 43.8879 20.0254 43.6244 20.0254H39.9819C39.7184 20.0254 39.5092 20.2459 39.5092 20.5236C39.5092 20.8012 39.7184 21.0217 39.9819 21.0217Z" fill="#A6C0E0"/>
<path d="M39.7339 18.5715H43.8646C44.1281 18.5715 44.3374 18.351 44.3374 18.0734C44.3374 17.7957 44.1281 17.5752 43.8646 17.5752H39.7339C39.4704 17.5752 39.2611 17.7957 39.2611 18.0734C39.2689 18.3429 39.4781 18.5715 39.7339 18.5715Z" fill="#A6C0E0"/>
<path d="M39.7339 19.7961H43.8646C44.1281 19.7961 44.3374 19.5756 44.3374 19.298C44.3374 19.0203 44.1281 18.7998 43.8646 18.7998H39.7339C39.4704 18.7998 39.2611 19.0203 39.2611 19.298C39.2689 19.5756 39.4781 19.7961 39.7339 19.7961Z" fill="#A6C0E0"/>
<path d="M32.976 61.0869L32.914 64.1004L32.2785 93.2636H31.0385V61.0869H32.976Z" fill="#D6E3F8"/>
<path d="M32.976 61.0869L32.914 64.1004L31.0385 63.8391V61.0869H32.976Z" fill="#96B1CC"/>
<path d="M47.8171 61.1279V93.3046H46.5771L45.9804 65.8891L45.8796 61.1279H47.8171Z" fill="#D6E3F8"/>
<path d="M47.8171 61.1279V66.2893L45.9804 65.8891L45.8796 61.1279H47.8171Z" fill="#96B1CC"/>
<path d="M70.7185 61.0869L70.6565 64.1004L70.021 93.2636H68.781V61.0869H70.7185Z" fill="#D6E3F8"/>
<path d="M85.5598 61.1279V93.3046H84.3198L83.7231 65.8891L83.6223 61.1279H85.5598Z" fill="#D6E3F8"/>
<path d="M70.7185 61.0869L70.6565 64.1004L68.781 63.8391V61.0869H70.7185Z" fill="#96B1CC"/>
<path d="M85.5598 61.1279V66.2893L83.7231 65.8891L83.6223 61.1279H85.5598Z" fill="#96B1CC"/>
<path d="M87.381 60.4336H29.256V62.5569H87.381V60.4336Z" fill="#D6E3F8"/>
<path d="M95.0072 73.9092H93.8679V86.9758H95.0072V73.9092Z" fill="#96B1CC"/>
<path d="M90.2485 72.8311H98.572C98.572 73.6396 97.952 74.2929 97.1848 74.2929H91.6358C90.8763 74.2929 90.2485 73.6396 90.2485 72.8311Z" fill="#BAD0F7"/>
<path d="M94.4878 85.7012C95.1698 85.7012 95.7278 86.2892 95.7278 87.0078V89.3598H93.2478V87.0078C93.2478 86.281 93.8058 85.7012 94.4878 85.7012Z" fill="#BAD0F7"/>
<path d="M86.7377 93.2723C87.4097 93.2723 87.9545 92.6983 87.9545 91.9902C87.9545 91.2821 87.4097 90.708 86.7377 90.708C86.0657 90.708 85.521 91.2821 85.521 91.9902C85.521 92.6983 86.0657 93.2723 86.7377 93.2723Z" fill="#7694AD"/>
<path d="M90.7446 93.2723C91.4166 93.2723 91.9613 92.6983 91.9613 91.9902C91.9613 91.2821 91.4166 90.708 90.7446 90.708C90.0726 90.708 89.5278 91.2821 89.5278 91.9902C89.5278 92.6983 90.0726 93.2723 90.7446 93.2723Z" fill="#7694AD"/>
<path d="M98.2233 93.2723C98.8953 93.2723 99.4401 92.6983 99.4401 91.9902C99.4401 91.2821 98.8953 90.708 98.2233 90.708C97.5514 90.708 97.0066 91.2821 97.0066 91.9902C97.0066 92.6983 97.5514 93.2723 98.2233 93.2723Z" fill="#7694AD"/>
<path d="M102.292 93.2723C102.964 93.2723 103.509 92.6983 103.509 91.9902C103.509 91.2821 102.964 90.708 102.292 90.708C101.62 90.708 101.075 91.2821 101.075 91.9902C101.075 92.6983 101.62 93.2723 102.292 93.2723Z" fill="#7694AD"/>
<path d="M98.2543 92.2187C98.0606 92.2187 97.9056 92.0554 97.9056 91.8512V91.4592C97.9056 90.4956 97.1616 89.7116 96.2471 89.7116H88.7684C87.8539 89.7116 87.1099 90.4956 87.1099 91.4592V91.8512C87.1099 92.0554 86.9549 92.2187 86.7611 92.2187C86.5674 92.2187 86.4124 92.0554 86.4124 91.8512V91.4592C86.4124 90.0872 87.4664 88.9766 88.7684 88.9766H96.2471C97.5491 88.9766 98.6031 90.0872 98.6031 91.4592V91.8512C98.5953 92.0554 98.4403 92.2187 98.2543 92.2187Z" fill="#96B1CC"/>
<path d="M102.261 92.2187C102.067 92.2187 101.912 92.0554 101.912 91.8512V91.4592C101.912 90.4956 101.168 89.7116 100.254 89.7116H92.7749C91.8604 89.7116 91.1164 90.4956 91.1164 91.4592V91.8512C91.1164 92.0554 90.9614 92.2187 90.7677 92.2187C90.5739 92.2187 90.4189 92.0554 90.4189 91.8512V91.4592C90.4189 90.0872 91.4729 88.9766 92.7749 88.9766H100.254C101.556 88.9766 102.61 90.0872 102.61 91.4592V91.8512C102.61 92.0554 102.455 92.2187 102.261 92.2187Z" fill="#BAD0F7"/>
<path d="M92.3179 71.0749L94.8211 51.7689C94.9296 50.9114 95.6271 50.2744 96.4409 50.2744H105.733C106.725 50.2744 107.492 51.1972 107.353 52.2344L104.904 71.0749H92.3179Z" fill="#96B1CC"/>
<path d="M90.9307 71.0749L93.4339 51.7689C93.5424 50.9114 94.2399 50.2744 95.0537 50.2744H104.346C105.338 50.2744 106.105 51.1972 105.966 52.2344L103.517 71.0749H90.9307Z" fill="#BAD0F7"/>
<path d="M104.943 70.707H84.1648V72.9774H104.943V70.707Z" fill="#96B1CC"/>
<path d="M101.99 44.737C100.672 43.2997 100.3 42.385 100.068 41.454C99.5096 39.2 98.9749 38.2772 98.2386 37.4932C97.6651 36.8807 96.9754 36.6765 96.4096 36.505C95.5339 36.2437 94.1621 35.6557 92.8214 36.3335C90.7134 37.4115 92.2634 42.5075 92.2634 42.5075C92.2634 42.5075 91.7054 43.2344 92.0154 44.7044C92.3254 46.1662 90.9536 46.6644 90.9536 46.6644C87.8381 48.6897 91.6356 51.7522 91.6356 51.7522C98.2774 55.3374 102.028 51.2295 102.028 51.2295C105.074 48.5509 103.067 45.9049 101.99 44.737Z" fill="#15173F"/>
<path d="M97.1848 48.7875L93.2788 49.2367L93.674 44.6062C93.674 44.6062 90.4965 44.3367 93.1858 37.9912C92.744 40.678 95.348 41.6662 95.348 41.6662C94.1778 40.8087 93.798 39.8205 93.736 38.9875C94.1778 40.4657 96.0688 40.9149 96.0688 40.9149C97.2468 40.0982 97.3398 41.0782 97.363 41.4539C97.394 41.952 97.115 42.6299 96.6733 42.8912L97.1848 48.7875Z" fill="#D28C73"/>
<path d="M84.7847 91.0664L86.6369 89.1881L86.3734 88.5674L85.2884 85.9867L88.4814 84.8516L89.2177 87.0729L89.9927 89.4167L84.7847 91.0664Z" fill="#D28C73"/>
<path d="M89.6284 88.2739C88.8224 89.9971 86.3347 90.2339 85.5984 90.2666C85.4589 90.2748 85.3272 90.3319 85.2264 90.4299L82.6922 92.9126C82.5062 93.0922 82.6767 93.4107 82.9169 93.3454L90.4267 91.2548C90.7754 91.1568 90.9459 90.7484 90.7832 90.4136L89.7214 88.2658C89.6982 88.2331 89.6517 88.2331 89.6284 88.2739Z" fill="#15173F"/>
<path d="M89.2178 87.0729L86.3736 88.5674L85.2886 85.9867L88.4816 84.8516L89.2178 87.0729Z" fill="#15173F"/>
<path d="M93.0773 60.6788L79.7008 66.8119C78.3135 67.4489 77.6625 69.1394 78.2515 70.6176L85.2188 88.1269L89.3185 86.6406L85.1413 70.3971L98.8123 63.3819V60.4746L93.0773 60.6788Z" fill="#15173F"/>
<path d="M82.8859 86.8936L82.6301 89.0741L82.3434 91.4669L77.1509 91.6384L79.3984 90.3236L79.5146 89.4987L79.8634 87.0569L82.8859 86.8936Z" fill="#D28C73"/>
<path d="M82.514 90.2501C81.3127 91.7037 78.856 91.2627 78.1352 91.0912C78.0035 91.0586 77.8562 91.0831 77.74 91.1484L74.6865 92.8716C74.4617 92.9941 74.547 93.3534 74.8027 93.3534H82.5682C82.9247 93.3534 83.1882 93.0022 83.1107 92.6347L82.607 90.2746C82.5915 90.2256 82.5372 90.2174 82.514 90.2501Z" fill="#15173F"/>
<path d="M82.8859 86.8936L82.6301 89.0741L79.5146 89.4987L79.8634 87.0569L82.8859 86.8936Z" fill="#15173F"/>
<path d="M85.8775 59.078C85.8775 59.078 84.8622 58.9392 84.6375 59.5843L86.73 59.6578L85.8775 59.078Z" fill="#BA7965"/>
<path d="M81.9327 48.0281L80.7004 49.3184L79.9874 48.0771L79.8402 47.8239L77.3757 46.5826L76.5697 45.1534C76.3914 44.8513 76.5852 44.7533 76.5852 44.7533C76.0892 43.9856 76.6084 44.1571 76.6084 44.1571C76.6162 43.8631 77.0347 44.1244 77.0347 44.1244C76.9959 43.7733 77.3679 44.0836 77.3679 44.0836L78.6467 45.3249L80.0959 45.8313L79.8092 45.3821C79.6387 44.8513 79.7937 44.5083 79.9177 44.3368C79.9642 44.2714 80.0649 44.2878 80.0882 44.3694C80.1579 44.6144 80.3749 44.9901 80.7469 45.5536C81.2894 46.3703 80.8787 46.8113 80.8787 46.8113L81.0724 47.0318L81.9327 48.0281Z" fill="#D28C73"/>
<path d="M89.9928 58.0729L89.9153 59.9186L89.024 59.7307L87.9003 59.5021C87.5593 59.6082 87.3268 59.6817 86.7688 59.6654C85.9085 59.6327 84.8778 59.0774 84.8778 59.0774C84.7305 59.2734 84.1028 59.5592 84.1028 59.5592C83.5525 59.7797 82.8008 59.2897 82.8008 59.2897L84.5833 58.2281C84.839 58.0402 85.149 57.9667 85.459 58.0157L87.9623 58.1791C87.9623 58.1791 88.7063 58.1382 89.2953 58.1056C89.6518 58.0892 89.9695 58.0729 89.9928 58.0729Z" fill="#D28C73"/>
<path d="M89.9927 58.0732L89.9152 59.9189L89.0239 59.7311L89.2874 58.0977C89.6517 58.0896 89.9694 58.0732 89.9927 58.0732Z" fill="#15173F"/>
<path d="M81.9327 48.0279L80.7005 49.3101L79.9797 48.0688L81.057 47.0234L81.9327 48.0279Z" fill="#15173F"/>
<path d="M100.014 60.7188C100.014 60.7188 103.4 68.3628 97.2546 70.8373H85.7226L82.9713 88.4527H78.4143L80.1658 68.4852C80.2666 67.3256 81.0183 66.3374 82.0723 65.9781L95.3946 61.4538L100.014 60.7188Z" fill="#2E2E75"/>
<path d="M101.618 50.4541L100.781 58.3513L100.246 59.2986L100.254 59.3558L100.525 62.1406H89.8144L90.1167 60.7196L90.1554 60.4583L89.4734 60.4338V57.9838L90.4499 57.7306L90.3879 54.5538C90.3879 54.5538 88.6829 56.3014 87.1097 56.7832C86.6989 56.9139 86.2572 56.7669 85.9782 56.4321L79.9719 49.5639L81.3049 46.9832L86.7997 52.2998C86.7997 52.2998 87.9777 50.3071 89.3184 48.1838C89.4734 47.9388 89.9384 47.4488 90.1709 47.3671L93.5189 45.8889C93.5189 45.8889 94.5884 47.8163 97.0297 45.7256L99.8817 46.9098C101.246 47.4406 101.997 48.9759 101.618 50.4541Z" fill="#6F85EE"/>
<g opacity="0.15">
<path d="M100.525 62.1403H100.432C97.1459 60.36 92.0386 60.8173 90.1166 60.7193L90.1554 60.458L89.4734 60.4335V60.3926L99.9436 59.4453L100.246 59.3555L100.525 62.1403Z" fill="black"/>
</g>
<path d="M90.5507 57.7789H90.3182V54.6919C88.7682 52.9116 90.8142 50.1104 90.8995 49.9961L91.0855 50.1431C91.0622 50.1676 89.0472 52.9361 90.5197 54.5613L90.5507 54.5939V57.7789Z" fill="#15173F"/>
<g opacity="0.15">
<path d="M97.425 52.8057L97.0143 56.4807L90.946 57.82L96.4873 56.0152L97.425 52.8057Z" fill="black"/>
</g>
<path d="M89.4813 60.5559L89.458 60.3109L99.595 59.3472C100.138 59.2982 100.572 58.849 100.634 58.2774L101.184 53.165L101.416 53.1895L100.866 58.3019C100.796 58.9797 100.269 59.5269 99.6183 59.584L89.4813 60.5559Z" fill="#15173F"/>
<path d="M93.7281 44.8763C93.7049 44.8763 93.6739 44.8763 93.6506 44.8763L93.6584 44.6313C94.7124 44.6721 95.5804 43.7738 95.5881 43.7656L95.7509 43.9371C95.7199 43.9861 94.8519 44.8763 93.7281 44.8763Z" fill="#15173F"/>
<path d="M85.4316 71.9544L83.5125 84.2188L83.7419 84.2586L85.661 71.9943L85.4316 71.9544Z" fill="white"/>
<path d="M79.7628 74.3004L79.5303 74.2759L80.096 68.0855C80.096 68.0365 80.189 66.7544 81.367 66.1745L81.3825 66.1664L92.5813 62.2627L92.651 62.4914L81.46 66.395C80.406 66.9177 80.3285 68.0937 80.3285 68.1019L79.7628 74.3004Z" fill="white"/>
<path d="M93.891 42.957H92.7285C92.7285 42.957 92.961 43.937 93.891 42.957Z" fill="white"/>
<path d="M109.213 26.877H99.5019C99.2152 26.877 98.9827 27.122 98.9827 27.4241V31.8831C98.9827 32.1853 99.2152 32.4303 99.5019 32.4303H100.153V34.227L101.718 32.4303H109.213C109.499 32.4303 109.732 32.1853 109.732 31.8831V27.4241C109.732 27.122 109.499 26.877 109.213 26.877Z" fill="#D6E3F8"/>
<path d="M103.819 28.1104H100.044V28.5677H103.819V28.1104Z" fill="white"/>
<path d="M108.662 29.3926H100.044V29.8499H108.662V29.3926Z" fill="white"/>
<path d="M108.662 30.6826H100.044V31.1399H108.662V30.6826Z" fill="white"/>
<path d="M15.3447 28.7471H25.0632C25.3499 28.7471 25.5824 28.9921 25.5824 29.2942V33.7532C25.5824 34.0554 25.3499 34.3004 25.0632 34.3004H24.4122V36.0971L22.8467 34.3004H15.3447C15.0579 34.3004 14.8254 34.0554 14.8254 33.7532V29.2942C14.8254 28.9921 15.0579 28.7471 15.3447 28.7471Z" fill="#D6E3F8"/>
<path d="M17.9409 32.0548C18.2191 32.0548 18.4446 31.8172 18.4446 31.524C18.4446 31.2308 18.2191 30.9932 17.9409 30.9932C17.6627 30.9932 17.4371 31.2308 17.4371 31.524C17.4371 31.8172 17.6627 32.0548 17.9409 32.0548Z" fill="white"/>
<path d="M20.1264 32.0548C20.4046 32.0548 20.6302 31.8172 20.6302 31.524C20.6302 31.2308 20.4046 30.9932 20.1264 30.9932C19.8482 30.9932 19.6227 31.2308 19.6227 31.524C19.6227 31.8172 19.8482 32.0548 20.1264 32.0548Z" fill="white"/>
<path d="M22.3585 32.0548C22.6367 32.0548 22.8622 31.8172 22.8622 31.524C22.8622 31.2308 22.6367 30.9932 22.3585 30.9932C22.0803 30.9932 21.8547 31.2308 21.8547 31.524C21.8547 31.8172 22.0803 32.0548 22.3585 32.0548Z" fill="white"/>
<path d="M38.2071 86.3215L37.6569 89.7433L37.4011 91.3521H34.5569L34.6731 89.2125L34.8281 86.2725L38.2071 86.3215Z" fill="#FEB991"/>
<path d="M34.6499 90.3309C34.8979 90.6004 35.9132 91.5069 37.5949 90.2737C37.6104 90.2655 37.6259 90.2655 37.6414 90.2737L42.2682 92.8789C42.4852 93.0014 42.3999 93.3444 42.1597 93.3444H34.6034C34.2547 93.3444 33.9989 93.0014 34.0764 92.6502L34.5647 90.3554C34.5724 90.3145 34.6189 90.2982 34.6499 90.3309Z" fill="#15173F"/>
<path d="M38.2071 86.3215L37.6568 89.7433L34.6731 89.2125L34.8281 86.2725L38.2071 86.3215Z" fill="#15173F"/>
<path d="M48.3286 91.3521H45.4844L44.8101 89.8005L44.5699 89.2451L43.2756 86.2725L46.6546 86.3215L47.5459 89.0083L47.7629 89.6453L48.3286 91.3521Z" fill="#FEB991"/>
<path d="M45.0349 90.3309C45.2829 90.6004 46.2982 91.5069 47.9799 90.2737C47.9954 90.2655 48.0109 90.2655 48.0264 90.2737L52.6532 92.8789C52.8702 93.0014 52.7849 93.3444 52.5447 93.3444H44.9884C44.6397 93.3444 44.3839 93.0014 44.4614 92.6502L44.9497 90.3554C44.9574 90.3145 45.0039 90.2982 45.0349 90.3309Z" fill="#15173F"/>
<path d="M30.9144 48.052L30.6121 46.0104C30.6121 46.0104 33.7974 46.092 31.0539 40.4652C31.0539 40.4652 28.6669 38.8155 26.7449 41.5187L27.6206 45.602L27.3804 48.0112L30.9144 48.052Z" fill="#FEB991"/>
<path d="M25.2724 41.6661C24.4819 39.2977 25.8227 39.2732 25.8227 39.2732C26.6752 37.0274 27.5742 38.0237 27.5742 38.0237C28.4267 36.7416 28.9769 37.6399 28.9769 37.6399C29.9379 36.9212 30.3409 37.8604 30.3409 37.8604C31.2942 37.4194 31.4492 38.4157 31.4492 38.4157C31.8367 38.3912 32.0304 38.8812 32.0614 39.0936C32.2629 40.4329 31.3949 40.7596 30.8834 40.8331L31.1237 42.4746C31.1469 42.6297 31.0307 42.7686 30.8757 42.7522C30.7904 42.7441 30.7129 42.6869 30.6819 42.6052C30.6742 42.5889 30.6664 42.5644 30.6587 42.5562C30.4262 42.0091 29.4419 41.7886 29.5427 42.8339C29.5427 42.8339 29.7364 44.1651 30.3952 44.0344C30.3952 44.0344 30.0387 45.7657 28.2872 45.8474C28.0004 45.8637 26.0552 45.8229 25.4584 42.4337C25.3344 41.9846 25.2724 41.6661 25.2724 41.6661Z" fill="#15173F"/>
<path d="M47.5459 89.0083L44.8101 89.8005L44.5699 89.2451L43.2756 86.2725L46.6546 86.3215L47.5459 89.0083Z" fill="#15173F"/>
<path d="M35.3707 69.8164L34.1384 88.5262H39.1759L41.4777 70.5922L35.3707 69.8164Z" fill="#405DAD"/>
<path d="M19.8009 64.7615C19.8009 64.7615 17.7859 71.4908 21.6609 71.7848L35.4559 72.8465L43.3609 89.0982L47.9334 88.4448L42.1364 69.4165C41.7257 68.314 40.8422 67.4892 39.7572 67.1952L29.8217 64.4512L19.8009 64.7615Z" fill="#6F85EE"/>
<path d="M38.2382 60.5881C39.3697 60.5963 40.1602 59.4203 39.7882 58.2933C39.0287 55.9821 37.8972 52.5521 37.4012 50.9841C36.1534 47.0314 30.8292 46.9824 30.8292 46.9824C28.6049 48.1503 27.4037 46.9824 27.4037 46.9824L26.0707 47.1948C25.5204 47.2846 24.9779 47.4234 24.4509 47.6358C23.4512 48.0441 22.6762 48.6158 22.0252 49.4733C20.2814 51.7844 18.8012 55.0429 18.6074 56.3006C18.3284 58.1054 20.9247 57.1336 20.9247 57.1336C20.0334 60.7596 19.2584 65.5779 19.2584 65.5779L30.6509 64.8348L31.7747 60.5554L38.2382 60.5881ZM35.6884 57.3786L32.5652 57.7461L33.7897 53.2299L35.6884 57.3786Z" fill="#2E2E75"/>
<path d="M23.1086 51.6869L21.165 56.4688L21.336 56.5459L23.2796 51.7641L23.1086 51.6869Z" fill="white"/>
<path d="M33.6596 53.1491L31.5281 61.0518L31.707 61.1053L33.8386 53.2027L33.6596 53.1491Z" fill="white"/>
<path d="M35.8225 73.3326L35.6156 73.4443L39.8856 82.2235L40.0925 82.1118L35.8225 73.3326Z" fill="white"/>
<path d="M25.6444 73.9082H24.5051V86.9749H25.6444V73.9082Z" fill="#96B1CC"/>
<path d="M28.8994 71.2543L26.4039 52.0381C26.2954 51.1888 25.6057 50.5518 24.7842 50.5518H15.5384C14.5464 50.5518 13.7869 51.4746 13.9187 52.5036L16.3599 71.2543H28.8994Z" fill="#96B1CC"/>
<path d="M27.4889 71.2543L24.9934 52.0381C24.8849 51.1888 24.1952 50.5518 23.3737 50.5518H14.1279C13.1359 50.5518 12.3764 51.4746 12.5082 52.5036L14.9417 71.2543H27.4889Z" fill="#BAD0F7"/>
<path d="M20.8859 72.8301H29.2094C29.2094 73.6386 28.5894 74.2919 27.8221 74.2919H22.2731C21.5136 74.2919 20.8859 73.6386 20.8859 72.8301Z" fill="#BAD0F7"/>
<path d="M35.6187 70.8945H14.934V73.1485H35.6187V70.8945Z" fill="#96B1CC"/>
<path d="M25.1251 85.7012C25.8071 85.7012 26.3651 86.2892 26.3651 87.0078V89.3598H23.8851V87.0078C23.8851 86.281 24.4431 85.7012 25.1251 85.7012Z" fill="#BAD0F7"/>
<path d="M17.3752 93.2714C18.0472 93.2714 18.5919 92.6973 18.5919 91.9892C18.5919 91.2811 18.0472 90.707 17.3752 90.707C16.7032 90.707 16.1584 91.2811 16.1584 91.9892C16.1584 92.6973 16.7032 93.2714 17.3752 93.2714Z" fill="#7694AD"/>
<path d="M21.3819 93.2714C22.0539 93.2714 22.5987 92.6973 22.5987 91.9892C22.5987 91.2811 22.0539 90.707 21.3819 90.707C20.7099 90.707 20.1652 91.2811 20.1652 91.9892C20.1652 92.6973 20.7099 93.2714 21.3819 93.2714Z" fill="#7694AD"/>
<path d="M28.8607 93.2714C29.5327 93.2714 30.0774 92.6973 30.0774 91.9892C30.0774 91.2811 29.5327 90.707 28.8607 90.707C28.1887 90.707 27.6439 91.2811 27.6439 91.9892C27.6439 92.6973 28.1887 93.2714 28.8607 93.2714Z" fill="#7694AD"/>
<path d="M32.9294 93.2714C33.6014 93.2714 34.1461 92.6973 34.1461 91.9892C34.1461 91.2811 33.6014 90.707 32.9294 90.707C32.2574 90.707 31.7126 91.2811 31.7126 91.9892C31.7126 92.6973 32.2574 93.2714 32.9294 93.2714Z" fill="#7694AD"/>
<path d="M28.8917 92.2177C28.6979 92.2177 28.5429 92.0544 28.5429 91.8502V91.4583C28.5429 90.4946 27.7989 89.7106 26.8844 89.7106H19.4057C18.4912 89.7106 17.7472 90.4946 17.7472 91.4583V91.8502C17.7472 92.0544 17.5922 92.2177 17.3984 92.2177C17.2047 92.2177 17.0497 92.0544 17.0497 91.8502V91.4583C17.0497 90.0863 18.1037 88.9756 19.4057 88.9756H26.8844C28.1864 88.9756 29.2404 90.0863 29.2404 91.4583V91.8502C29.2327 92.0544 29.0777 92.2177 28.8917 92.2177Z" fill="#96B1CC"/>
<path d="M32.8984 92.2177C32.7046 92.2177 32.5496 92.0544 32.5496 91.8502V91.4583C32.5496 90.4946 31.8056 89.7106 30.8911 89.7106H23.4124C22.4979 89.7106 21.7539 90.4946 21.7539 91.4583V91.8502C21.7539 92.0544 21.5989 92.2177 21.4051 92.2177C21.2114 92.2177 21.0564 92.0544 21.0564 91.8502V91.4583C21.0564 90.0863 22.1104 88.9756 23.4124 88.9756H30.8911C32.1931 88.9756 33.2471 90.0863 33.2471 91.4583V91.8502C33.2471 92.0544 33.0921 92.2177 32.8984 92.2177Z" fill="#BAD0F7"/>
<path d="M77.3659 23.765C81.3023 21.9369 83.0871 17.0923 81.3522 12.9442C79.6174 8.79619 75.0199 6.91552 71.0835 8.74363C67.1471 10.5717 65.3624 15.4164 67.0973 19.5644C68.8321 23.7124 73.4295 25.5931 77.3659 23.765Z" fill="#BAD0F7"/>
<path d="M76.7127 22.0925C79.8109 20.6537 81.2155 16.8407 79.8501 13.5759C78.4847 10.3111 74.8662 8.83091 71.768 10.2698C68.6698 11.7086 67.2651 15.5216 68.6305 18.7864C69.996 22.0512 73.6145 23.5314 76.7127 22.0925Z" fill="white"/>
<path d="M76.006 20.4743C78.2386 19.4374 79.2508 16.6897 78.2669 14.3371C77.2829 11.9845 74.6754 10.9178 72.4428 11.9547C70.2103 12.9915 69.198 15.7392 70.182 18.0918C71.1659 20.4444 73.7734 21.5111 76.006 20.4743Z" fill="#BAD0F7"/>
<path d="M75.3542 18.9264C76.772 18.2679 77.4149 16.5229 76.79 15.0288C76.1651 13.5347 74.5091 12.8572 73.0912 13.5157C71.6733 14.1742 71.0305 15.9192 71.6554 17.4133C72.2803 18.9075 73.9363 19.5849 75.3542 18.9264Z" fill="white"/>
<path d="M86.5285 12.3887L84.219 13.4667L82.6147 12.4214L84.9242 11.3516L86.5285 12.3887Z" fill="#85A2BA"/>
<path d="M82.6379 12.4869L84.9474 11.4089L85.3039 9.45703L82.9944 10.535L82.6379 12.4869Z" fill="#85A2BA"/>
<path d="M74.6837 17.3386C75.279 17.0622 75.549 16.3294 75.2866 15.7021C75.0242 15.0747 74.3289 14.7903 73.7335 15.0668C73.1382 15.3432 72.8682 16.076 73.1306 16.7033C73.393 17.3307 74.0883 17.6151 74.6837 17.3386Z" fill="#BAD0F7"/>
<path d="M74.1361 16.3579C74.0818 16.2191 74.1361 16.0557 74.2678 15.9986L85.2728 10.8862C85.4046 10.8291 85.5596 10.8862 85.6138 11.0251C85.6681 11.1639 85.6138 11.3272 85.4821 11.3844L74.4771 16.4967C74.3531 16.5539 74.1981 16.4967 74.1361 16.3579Z" fill="#96B1CC"/>
<path d="M47.3058 50.8622C47.298 51.1072 47.2283 51.3931 47.0888 51.7361C46.8253 52.3812 45.9108 54.2596 45.9108 54.2596L45.2753 54.2024C45.2753 54.2024 45.2598 54.1371 45.2443 54.0227C45.1513 53.5001 44.88 51.9974 44.7793 51.4257C44.632 50.6091 45.0583 49.5229 46.213 49.6372C46.6315 49.6699 47.3523 49.9557 47.3058 50.8622Z" fill="#ACC5EA"/>
<path d="M44.9421 53.8838L44.3841 54.1615L44.3143 54.0798L43.4696 53.1406C43.3998 53.059 43.3378 52.9691 43.2913 52.8711C43.1751 52.6343 43.0278 52.1933 43.2448 51.7931C43.3456 51.6135 43.5006 51.4828 43.6866 51.4011C43.8726 51.3195 44.1516 51.2378 44.4073 51.3358C44.6553 51.4338 44.8723 51.6951 44.9421 52.3076C44.9886 52.6996 44.9421 53.8838 44.9421 53.8838Z" fill="#ACC5EA"/>
<path d="M45.2661 50.4875L45.1348 50.499L45.1637 50.8652L45.295 50.8537L45.2661 50.4875Z" fill="white"/>
<path d="M46.1596 50.9314L46.1157 51.2383L46.246 51.259L46.2899 50.9521L46.1596 50.9314Z" fill="white"/>
<path d="M45.3527 51.6377H45.2209V51.948H45.3527V51.6377Z" fill="white"/>
<path d="M46.2468 52.0123L46.1587 52.291L46.2824 52.3344L46.3705 52.0557L46.2468 52.0123Z" fill="white"/>
<path d="M45.4999 52.8955H45.3682V53.2058H45.4999V52.8955Z" fill="white"/>
<path d="M46.089 49.792H45.9573V50.1023H46.089V49.792Z" fill="white"/>
<path d="M44.3133 51.8626L44.1877 51.8994L44.2604 52.1746L44.386 52.1378L44.3133 51.8626Z" fill="white"/>
<path d="M43.6898 52.6205L43.5842 52.7021L43.7442 52.9319L43.8498 52.8503L43.6898 52.6205Z" fill="white"/>
<path d="M44.2682 53.0203L44.1489 53.0762L44.2652 53.3519L44.3845 53.2961L44.2682 53.0203Z" fill="white"/>
<path d="M43.503 51.758L43.3921 51.8311L43.5396 52.0798L43.6505 52.0068L43.503 51.758Z" fill="white"/>
<path d="M47.3056 50.8623C47.2979 51.1073 47.2281 51.3931 47.0886 51.7361C46.8251 52.3813 45.9106 54.2596 45.9106 54.2596L45.2751 54.2025C45.2751 54.2025 45.2596 54.1371 45.2441 54.0228L45.4379 53.8921C46.7476 52.512 47.1971 51.5238 47.3056 50.8623Z" fill="#96B1CC"/>
<path d="M44.942 53.8836L44.384 54.1613L44.3142 54.0796C44.4847 53.7693 44.9962 52.1522 44.3995 51.3438C44.6475 51.4418 44.8645 51.7031 44.9342 52.3156C44.9885 52.6994 44.942 53.8836 44.942 53.8836Z" fill="#96B1CC"/>
<path d="M47.0732 55.5087C47.0732 56.5786 46.2517 57.4442 45.2364 57.4442C44.6164 57.4442 44.0739 57.1257 43.7407 56.6357C43.5237 56.3172 43.3997 55.9252 43.3997 55.5087C43.3997 54.4389 44.2212 53.5732 45.2364 53.5732C45.5697 53.5732 45.8797 53.6631 46.1509 53.8264C46.6934 54.1612 47.0732 54.7901 47.0732 55.5087Z" fill="#ACC5EA"/>
<path d="M44.0988 54.3511L43.9751 54.3945L44.0633 54.6732L44.187 54.6298L44.0988 54.3511Z" fill="white"/>
<path d="M44.9541 54.6402L44.8245 54.665L44.8827 55.0025L45.0123 54.9777L44.9541 54.6402Z" fill="white"/>
<path d="M45.996 54.5293H45.8643V54.8396H45.996V54.5293Z" fill="white"/>
<path d="M47.0732 55.5089C47.0732 56.5787 46.2517 57.4444 45.2365 57.4444C44.6165 57.4444 44.074 57.1259 43.7407 56.6359C46.6702 55.9744 46.3912 54.4309 46.151 53.8184C46.6935 54.1614 47.0732 54.7902 47.0732 55.5089Z" fill="#96B1CC"/>
<path d="M47.7785 55.9253L47.6777 56.5296L47.0965 59.9678C47.05 60.2373 46.8252 60.4333 46.5695 60.4333H43.9655C43.702 60.4333 43.485 60.2373 43.4385 59.9678L42.7565 55.9253C42.7255 55.7538 42.8495 55.5986 43.0122 55.5986H47.515C47.6777 55.6068 47.8017 55.762 47.7785 55.9253Z" fill="#ACC5EA"/>
<path d="M47.6699 56.5303L47.0887 59.9684C47.0422 60.2379 46.8174 60.4339 46.5617 60.4339H45.4922L47.6699 56.5303Z" fill="#96B1CC"/>
<path d="M46.8354 50.4811L46.7473 50.7598L46.871 50.8032L46.9591 50.5245L46.8354 50.4811Z" fill="white"/>
<path d="M45.4613 53.835H45.3296V54.1535H45.4613V53.835Z" fill="white"/>
<path d="M47.577 55.501H43.1362V55.746H47.577V55.501Z" fill="#15173F"/>
<path d="M65.6734 52.0384L67.4326 60.1642C67.4791 60.3684 67.6496 60.5154 67.8511 60.5154H77.6859C77.9649 60.5154 78.1664 60.2459 78.1044 59.96L76.3451 51.8424C76.2986 51.6382 76.1281 51.4912 75.9266 51.4912H66.0919C65.8129 51.4912 65.6114 51.7607 65.6734 52.0384Z" fill="#96B1CC"/>
<path d="M84.5134 59.6572H76.7944V60.5147H84.5134V59.6572Z" fill="#96B1CC"/>
<path d="M65.0843 52.0135L66.8435 60.1639C66.89 60.368 67.0605 60.515 67.262 60.515H77.0968C77.3758 60.515 77.5773 60.2455 77.5153 59.9597L75.756 51.8094C75.7095 51.6052 75.539 51.4582 75.3375 51.4582H65.5028C65.2238 51.45 65.0223 51.7277 65.0843 52.0135Z" fill="#BAD0F7"/>
<path d="M71.1986 56.8628C71.5156 56.7858 71.6939 56.3636 71.5969 55.9197C71.4998 55.4757 71.1642 55.1782 70.8472 55.2552C70.5302 55.3321 70.3519 55.7544 70.4489 56.1983C70.546 56.6423 70.8816 56.9397 71.1986 56.8628Z" fill="white"/>
<path d="M119.543 93.1406H3.21594V93.6306H119.543V93.1406Z" fill="#15173F"/>
</g>
<rect x="53.8767" y="97.5615" width="64.1853" height="10.2696" rx="5.13482" fill="#292C33"/>
<rect x="4.24011" y="111.255" width="53.9156" height="10.2696" rx="5.13482" fill="#35373E"/>
<path d="M59.7481 109.419C59.6016 109.561 59.547 109.772 59.6045 109.969L60.9398 114.561C60.9975 114.769 61.1632 114.916 61.3737 114.956C61.5879 114.996 61.8598 114.855 61.9736 114.67L62.856 113.234C62.9465 113.087 62.9238 112.897 62.8009 112.775L61.1465 111.131C61.0604 111.048 61.0604 110.911 61.1465 110.828C61.2298 110.746 61.3648 110.746 61.4509 110.828L63.1055 112.475C63.2282 112.598 63.4191 112.62 63.5673 112.53L65.0175 111.653C65.1898 111.55 65.2874 111.373 65.2874 111.179C65.2874 111.157 65.2874 111.131 65.2845 111.108C65.2558 110.885 65.1036 110.709 64.8882 110.643L60.3023 109.282C60.107 109.222 59.8945 109.276 59.7481 109.419Z" fill="#020617"/>
<rect x="63.2905" y="113.822" width="37.467" height="11.467" rx="2.73349" fill="#020617"/>
<path d="M68.2492 120.621C67.6697 120.621 67.1905 120.43 66.8114 120.047C66.4324 119.665 66.2428 119.196 66.2428 118.642C66.2428 118.088 66.4324 117.62 66.8114 117.237C67.1905 116.855 67.6697 116.663 68.2492 116.663C68.6028 116.663 68.9271 116.749 69.2224 116.92C69.5176 117.088 69.7454 117.316 69.9057 117.603L69.5668 117.8C69.4465 117.567 69.2679 117.381 69.031 117.243C68.7941 117.104 68.5335 117.035 68.2492 117.035C67.7718 117.035 67.3818 117.19 67.0793 117.5C66.7768 117.809 66.6255 118.19 66.6255 118.642C66.6255 119.094 66.7768 119.475 67.0793 119.785C67.3818 120.095 67.7718 120.25 68.2492 120.25C68.5335 120.25 68.7941 120.18 69.031 120.042C69.2679 119.903 69.4465 119.717 69.5668 119.484L69.9057 119.675C69.749 119.963 69.5212 120.193 69.2224 120.364C68.9271 120.536 68.6028 120.621 68.2492 120.621ZM72.799 120.211C72.522 120.485 72.1831 120.621 71.7822 120.621C71.3813 120.621 71.0405 120.485 70.7599 120.211C70.4829 119.934 70.3444 119.593 70.3444 119.189C70.3444 118.784 70.4829 118.445 70.7599 118.172C71.0405 117.895 71.3813 117.757 71.7822 117.757C72.1831 117.757 72.522 117.895 72.799 118.172C73.0797 118.445 73.22 118.784 73.22 119.189C73.22 119.593 73.0797 119.934 72.799 120.211ZM71.0168 119.96C71.2245 120.168 71.4797 120.271 71.7822 120.271C72.0847 120.271 72.3398 120.168 72.5476 119.96C72.7553 119.748 72.8592 119.491 72.8592 119.189C72.8592 118.886 72.7553 118.631 72.5476 118.424C72.3398 118.212 72.0847 118.106 71.7822 118.106C71.4797 118.106 71.2245 118.212 71.0168 118.424C70.8091 118.631 70.7052 118.886 70.7052 119.189C70.7052 119.491 70.8091 119.748 71.0168 119.96ZM73.8785 120.556V116.565H74.2393V120.556H73.8785ZM75.0596 120.556V116.565H75.4205V120.556H75.0596ZM78.5916 117.822H78.9524V120.556H78.5916V120.02C78.3401 120.421 77.972 120.621 77.4873 120.621C77.0973 120.621 76.7638 120.483 76.4868 120.206C76.2135 119.929 76.0768 119.59 76.0768 119.189C76.0768 118.788 76.2135 118.449 76.4868 118.172C76.7638 117.895 77.0973 117.757 77.4873 117.757C77.972 117.757 78.3401 117.957 78.5916 118.358V117.822ZM76.7492 119.96C76.957 120.168 77.2121 120.271 77.5146 120.271C77.8171 120.271 78.0722 120.168 78.28 119.96C78.4877 119.748 78.5916 119.491 78.5916 119.189C78.5916 118.886 78.4877 118.631 78.28 118.424C78.0722 118.212 77.8171 118.106 77.5146 118.106C77.2121 118.106 76.957 118.212 76.7492 118.424C76.5415 118.631 76.4376 118.886 76.4376 119.189C76.4376 119.491 76.5415 119.748 76.7492 119.96ZM81.2362 117.757C81.6262 117.757 81.9578 117.895 82.2312 118.172C82.5082 118.449 82.6467 118.788 82.6467 119.189C82.6467 119.59 82.5082 119.929 82.2312 120.206C81.9578 120.483 81.6262 120.621 81.2362 120.621C80.7515 120.621 80.3834 120.421 80.1319 120.02V120.556H79.7711V116.729H80.1319V118.358C80.3834 117.957 80.7515 117.757 81.2362 117.757ZM80.4435 119.96C80.6512 120.168 80.9064 120.271 81.2089 120.271C81.5114 120.271 81.7665 120.168 81.9742 119.96C82.182 119.748 82.2859 119.491 82.2859 119.189C82.2859 118.886 82.182 118.631 81.9742 118.424C81.7665 118.212 81.5114 118.106 81.2089 118.106C80.9064 118.106 80.6512 118.212 80.4435 118.424C80.2358 118.631 80.1319 118.886 80.1319 119.189C80.1319 119.491 80.2358 119.748 80.4435 119.96ZM83.6621 118.276C83.8298 117.944 84.1177 117.778 84.5259 117.778V118.128C84.2781 118.128 84.0722 118.201 83.9081 118.347C83.7441 118.493 83.6621 118.722 83.6621 119.036V120.556H83.3013V117.822H83.6621V118.276ZM87.2604 117.822H87.6212V120.556H87.2604V120.02C87.0089 120.421 86.6408 120.621 86.1561 120.621C85.7661 120.621 85.4326 120.483 85.1556 120.206C84.8823 119.929 84.7456 119.59 84.7456 119.189C84.7456 118.788 84.8823 118.449 85.1556 118.172C85.4326 117.895 85.7661 117.757 86.1561 117.757C86.6408 117.757 87.0089 117.957 87.2604 118.358V117.822ZM85.418 119.96C85.6258 120.168 85.8809 120.271 86.1834 120.271C86.4859 120.271 86.741 120.168 86.9488 119.96C87.1565 119.748 87.2604 119.491 87.2604 119.189C87.2604 118.886 87.1565 118.631 86.9488 118.424C86.741 118.212 86.4859 118.106 86.1834 118.106C85.8809 118.106 85.6258 118.212 85.418 118.424C85.2103 118.631 85.1064 118.886 85.1064 119.189C85.1064 119.491 85.2103 119.748 85.418 119.96ZM89.8886 118.172H89.1014V119.829C89.1014 119.978 89.1305 120.086 89.1888 120.151C89.2471 120.213 89.3346 120.246 89.4512 120.25C89.5679 120.25 89.7137 120.246 89.8886 120.239V120.556C89.5059 120.614 89.218 120.587 89.0248 120.474C88.8353 120.361 88.7405 120.146 88.7405 119.829V118.172H88.1665V117.822H88.7405V117.166L89.1014 117.057V117.822H89.8886V118.172ZM90.9109 117.166C90.8599 117.217 90.7979 117.243 90.725 117.243C90.6522 117.243 90.5902 117.217 90.5392 117.166C90.4881 117.115 90.4626 117.053 90.4626 116.98C90.4626 116.907 90.4881 116.845 90.5392 116.794C90.5902 116.743 90.6522 116.718 90.725 116.718C90.7979 116.718 90.8599 116.743 90.9109 116.794C90.9619 116.845 90.9875 116.907 90.9875 116.98C90.9875 117.053 90.9619 117.115 90.9109 117.166ZM90.5446 120.556V117.822H90.9055V120.556H90.5446ZM94.0165 120.211C93.7395 120.485 93.4005 120.621 92.9996 120.621C92.5987 120.621 92.2579 120.485 91.9773 120.211C91.7003 119.934 91.5618 119.593 91.5618 119.189C91.5618 118.784 91.7003 118.445 91.9773 118.172C92.2579 117.895 92.5987 117.757 92.9996 117.757C93.4005 117.757 93.7395 117.895 94.0165 118.172C94.2971 118.445 94.4374 118.784 94.4374 119.189C94.4374 119.593 94.2971 119.934 94.0165 120.211ZM92.2342 119.96C92.442 120.168 92.6971 120.271 92.9996 120.271C93.3021 120.271 93.5572 120.168 93.765 119.96C93.9727 119.748 94.0766 119.491 94.0766 119.189C94.0766 118.886 93.9727 118.631 93.765 118.424C93.5572 118.212 93.3021 118.106 92.9996 118.106C92.6971 118.106 92.442 118.212 92.2342 118.424C92.0265 118.631 91.9226 118.886 91.9226 119.189C91.9226 119.491 92.0265 119.748 92.2342 119.96ZM96.3752 117.757C96.7068 117.757 96.9674 117.859 97.1569 118.063C97.3501 118.263 97.4467 118.535 97.4467 118.877V120.556H97.0859V118.877C97.0859 118.633 97.0203 118.444 96.8891 118.309C96.7615 118.174 96.5793 118.106 96.3424 118.106C96.0799 118.106 95.8667 118.19 95.7027 118.358C95.5387 118.522 95.4567 118.777 95.4567 119.123V120.556H95.0959V117.822H95.4567V118.249C95.6608 117.921 95.967 117.757 96.3752 117.757Z" fill="white"/>
<defs>
<clipPath id="clip0_1_3380">
<rect width="114" height="95" fill="white" transform="translate(4 3)"/>
</clipPath>
</defs>
</svg>
