<svg width="156" height="24" viewBox="0 0 156 24" fill="none" xmlns="http://www.w3.org/2000/svg">
<mask id="mask0_1_3344" style="mask-type:alpha" maskUnits="userSpaceOnUse" x="0" y="0" width="22" height="24">
<path d="M9.80248 0.511993C10.3393 0.196003 11.0053 0.196003 11.5421 0.511993L20.4997 5.78467C21.0232 6.09281 21.3446 6.65492 21.3446 7.26237V16.7375C21.3446 17.3449 21.0232 17.9071 20.4997 18.2152L11.5421 23.4879C11.0053 23.8039 10.3393 23.8039 9.80248 23.4879L0.844878 18.2152C0.321388 17.9071 0 17.3449 0 16.7375V7.26237C0 6.65492 0.321388 6.09281 0.844878 5.78467L9.80248 0.511993Z" fill="#C4C4C4"/>
</mask>
<g mask="url(#mask0_1_3344)">
<rect x="4.57251" y="11.4219" width="1.9143" height="11.1398" fill="#3940A0"/>
<mask id="mask1_1_3344" style="mask-type:alpha" maskUnits="userSpaceOnUse" x="7" y="7" width="4" height="3">
<rect x="10.8893" y="7.21973" width="1.80493" height="3.8286" transform="rotate(90 10.8893 7.21973)" fill="#CD6767"/>
</mask>
<g mask="url(#mask1_1_3344)">
<path d="M7.06068 9.02465C7.06068 8.78763 7.1102 8.55292 7.2064 8.33394C7.3026 8.11495 7.44361 7.91598 7.62137 7.74838C7.79913 7.58077 8.01016 7.44782 8.24241 7.35712C8.47467 7.26641 8.72359 7.21973 8.97498 7.21973L8.97498 9.02465L7.06068 9.02465Z" fill="#3940A0"/>
</g>
<mask id="mask2_1_3344" style="mask-type:alpha" maskUnits="userSpaceOnUse" x="10" y="7" width="5" height="3">
<rect x="14.2917" y="7.21973" width="1.80493" height="3.8286" rx="0.107168" transform="rotate(90 14.2917 7.21973)" fill="#CD6767"/>
</mask>
<g mask="url(#mask2_1_3344)">
<path d="M10.5703 9.02465C10.5111 9.02465 10.4628 8.97661 10.4665 8.91754C10.4942 8.47791 10.6917 8.06153 11.0238 7.74838C11.3828 7.40989 11.8697 7.21973 12.3774 7.21973C12.8852 7.21973 13.3721 7.40989 13.7311 7.74838C14.0632 8.06153 14.2607 8.47791 14.2884 8.91754C14.2921 8.97661 14.2438 9.02465 14.1846 9.02465L12.3774 9.02465L10.5703 9.02465Z" fill="#3940A0"/>
</g>
<path d="M11.7333 13.9033C11.7925 13.9033 11.8405 13.9513 11.8405 14.0105L11.8405 15.6011C11.8405 15.6603 11.7925 15.7082 11.7333 15.7082L6.4864 15.7082L6.4864 13.9033L11.7333 13.9033Z" fill="#3940A0"/>
<path d="M14.2988 16.2441L12.3845 16.2441L12.3845 12.0082C12.3845 11.949 12.4325 11.901 12.4917 11.901L14.1917 11.901C14.2508 11.901 14.2988 11.949 14.2988 12.0082L14.2988 16.2441Z" fill="#3940A0"/>
<path d="M7.05627 9.02441L8.97057 9.02441L8.97057 13.2603C8.97057 13.3195 8.92259 13.3675 8.86341 13.3675L7.16344 13.3675C7.10426 13.3675 7.05628 13.3195 7.05628 13.2603L7.05627 9.02441Z" fill="#3940A0"/>
<path d="M14.8622 9.56055L14.8622 11.3655L9.64521 11.3655C9.58602 11.3655 9.53804 11.3175 9.53804 11.2583L9.53804 9.66771C9.53804 9.60853 9.58602 9.56055 9.64521 9.56055L14.8622 9.56055Z" fill="#3940A0"/>
<path d="M12.3845 16.2441L12.3845 18.0491L7.06038 18.0491L7.06038 16.3513C7.06038 16.2921 7.10836 16.2441 7.16754 16.2441L12.3845 16.2441Z" fill="#3940A0"/>
<rect x="12.3544" y="7.21973" width="1.80493" height="3.37994" transform="rotate(90 12.3544 7.21973)" fill="#3940A0"/>
<mask id="mask3_1_3344" style="mask-type:alpha" maskUnits="userSpaceOnUse" x="14" y="9" width="3" height="5">
<rect x="16.7731" y="13.1709" width="1.9143" height="3.60985" transform="rotate(-180 16.7731 13.1709)" fill="#CD6767"/>
</mask>
<g mask="url(#mask3_1_3344)">
<path d="M14.8588 9.56105C15.3665 9.56105 15.8534 9.75121 16.2124 10.0897C16.5714 10.4282 16.7731 10.8873 16.7731 11.366L14.8588 11.366L14.8588 9.56105Z" fill="#3940A0"/>
</g>
<mask id="mask4_1_3344" style="mask-type:alpha" maskUnits="userSpaceOnUse" x="14" y="12" width="3" height="5">
<rect x="16.7783" y="16.3867" width="1.9143" height="3.60985" rx="0.107168" transform="rotate(-180 16.7783 16.3867)" fill="#CD6767"/>
</mask>
<g mask="url(#mask4_1_3344)">
<path d="M14.864 12.884C14.864 12.8248 14.912 12.7766 14.9712 12.7797C15.4398 12.8044 15.884 12.9909 16.2176 13.3055C16.5766 13.644 16.7783 14.1031 16.7783 14.5818C16.7783 15.0605 16.5766 15.5196 16.2176 15.8581C15.884 16.1727 15.4398 16.3591 14.9712 16.3839C14.912 16.387 14.864 16.3387 14.864 16.2796L14.864 14.5818L14.864 12.884Z" fill="#3940A0"/>
</g>
<rect x="16.7783" y="14.5811" width="1.9143" height="3.21502" transform="rotate(-180 16.7783 14.5811)" fill="#3940A0"/>
<path d="M7.06104 18.0488H8.97533V23.6949C8.97533 23.754 8.92735 23.802 8.86817 23.802H7.1682C7.10902 23.802 7.06104 23.754 7.06104 23.6949L7.06104 18.0488Z" fill="#3940A0"/>
<mask id="mask5_1_3344" style="mask-type:alpha" maskUnits="userSpaceOnUse" x="4" y="9" width="3" height="5">
<rect x="4.57251" y="9.61719" width="1.9143" height="3.60985" rx="0.107168" fill="#CD6767"/>
</mask>
<g mask="url(#mask5_1_3344)">
<ellipse cx="6.48681" cy="11.4221" rx="1.9143" ry="1.80493" fill="#3940A0"/>
</g>
<mask id="mask6_1_3344" style="mask-type:alpha" maskUnits="userSpaceOnUse" x="12" y="16" width="3" height="3">
<rect x="12.3845" y="18.0488" width="1.80493" height="1.9143" transform="rotate(-90 12.3845 18.0488)" fill="#CD6767"/>
</mask>
<g mask="url(#mask6_1_3344)">
<path d="M14.2915 16.2439C14.2915 16.4809 14.242 16.7156 14.1458 16.9346C14.0496 17.1536 13.9086 17.3526 13.7308 17.5202C13.553 17.6878 13.342 17.8207 13.1098 17.9114C12.8775 18.0021 12.6286 18.0488 12.3772 18.0488L12.3772 16.2439L14.2915 16.2439Z" fill="#3940A0"/>
</g>
</g>
<path d="M32.8439 8.85948C33.6016 8.85948 34.2392 9.11454 34.7568 9.62466C35.2745 10.1348 35.5333 10.7612 35.5333 11.5038C35.5333 12.2465 35.2745 12.8729 34.7568 13.383C34.2392 13.8932 33.6016 14.1482 32.8439 14.1482H31.4598V16.7363H29.907V8.85948H32.8439ZM32.8439 12.6966C33.174 12.6966 33.4478 12.5841 33.6653 12.359C33.8829 12.1265 33.9917 11.8414 33.9917 11.5038C33.9917 11.1588 33.8829 10.8737 33.6653 10.6486C33.4478 10.4236 33.174 10.3111 32.8439 10.3111H31.4598V12.6966H32.8439ZM37.8075 12.0777C37.9425 11.7176 38.1638 11.4476 38.4714 11.2675C38.7864 11.0875 39.1353 10.9975 39.5179 10.9975V12.6179C39.0753 12.5653 38.6777 12.6554 38.3251 12.8879C37.98 13.1205 37.8075 13.5068 37.8075 14.0469V16.7363H36.3559V11.11H37.8075V12.0777ZM44.9517 16.0387C44.374 16.6088 43.6689 16.8939 42.8362 16.8939C42.0035 16.8939 41.2983 16.6088 40.7207 16.0387C40.1505 15.461 39.8655 14.7559 39.8655 13.9232C39.8655 13.0905 40.1505 12.3891 40.7207 11.8189C41.2983 11.2413 42.0035 10.9525 42.8362 10.9525C43.6689 10.9525 44.374 11.2413 44.9517 11.8189C45.5293 12.3891 45.8181 13.0905 45.8181 13.9232C45.8181 14.7559 45.5293 15.461 44.9517 16.0387ZM41.7447 15.0372C42.0372 15.3297 42.4011 15.476 42.8362 15.476C43.2713 15.476 43.6351 15.3297 43.9277 15.0372C44.2202 14.7446 44.3665 14.3733 44.3665 13.9232C44.3665 13.4731 44.2202 13.1017 43.9277 12.8092C43.6351 12.5166 43.2713 12.3703 42.8362 12.3703C42.4011 12.3703 42.0372 12.5166 41.7447 12.8092C41.4596 13.1017 41.3171 13.4731 41.3171 13.9232C41.3171 14.3733 41.4596 14.7446 41.7447 15.0372ZM51.149 11.11H52.5669V16.4663C52.5669 17.3365 52.2781 18.0004 51.7004 18.458C51.1303 18.9156 50.4401 19.1444 49.6299 19.1444C49.0223 19.1444 48.4859 19.0281 48.0208 18.7956C47.5632 18.563 47.2106 18.2217 46.9631 17.7716L48.2009 17.0627C48.4859 17.5878 48.9773 17.8503 49.675 17.8503C50.1326 17.8503 50.4926 17.7303 50.7552 17.4903C51.0178 17.2502 51.149 16.9089 51.149 16.4663V15.8586C50.7214 16.4288 50.1213 16.7138 49.3486 16.7138C48.5534 16.7138 47.8858 16.4363 47.3457 15.8811C46.813 15.3185 46.5467 14.6358 46.5467 13.8331C46.5467 13.038 46.8168 12.359 47.3569 11.7964C47.897 11.2338 48.5609 10.9525 49.3486 10.9525C50.1213 10.9525 50.7214 11.2375 51.149 11.8077V11.11ZM48.4372 14.9472C48.7372 15.2322 49.1161 15.3748 49.5737 15.3748C50.0313 15.3748 50.4064 15.2322 50.6989 14.9472C50.999 14.6546 51.149 14.2833 51.149 13.8331C51.149 13.3905 50.999 13.0267 50.6989 12.7416C50.4064 12.4491 50.0313 12.3028 49.5737 12.3028C49.1161 12.3028 48.7372 12.4491 48.4372 12.7416C48.1446 13.0267 47.9983 13.3905 47.9983 13.8331C47.9983 14.2833 48.1446 14.6546 48.4372 14.9472ZM55.3348 12.0777C55.4698 11.7176 55.6911 11.4476 55.9987 11.2675C56.3137 11.0875 56.6626 10.9975 57.0452 10.9975V12.6179C56.6026 12.5653 56.205 12.6554 55.8524 12.8879C55.5073 13.1205 55.3348 13.5068 55.3348 14.0469V16.7363H53.8832V11.11H55.3348V12.0777ZM61.9613 11.11H63.4129V16.7363H61.9613V16.0724C61.5262 16.6201 60.9148 16.8939 60.1272 16.8939C59.377 16.8939 58.7318 16.6088 58.1917 16.0387C57.6591 15.461 57.3928 14.7559 57.3928 13.9232C57.3928 13.0905 57.6591 12.3891 58.1917 11.8189C58.7318 11.2413 59.377 10.9525 60.1272 10.9525C60.9148 10.9525 61.5262 11.2263 61.9613 11.7739V11.11ZM59.2832 15.0709C59.5758 15.3635 59.9471 15.5098 60.3972 15.5098C60.8473 15.5098 61.2187 15.3635 61.5112 15.0709C61.8113 14.7709 61.9613 14.3883 61.9613 13.9232C61.9613 13.4581 61.8113 13.0792 61.5112 12.7867C61.2187 12.4866 60.8473 12.3365 60.3972 12.3365C59.9471 12.3365 59.5758 12.4866 59.2832 12.7867C58.9906 13.0792 58.8444 13.4581 58.8444 13.9232C58.8444 14.3883 58.9906 14.7709 59.2832 15.0709ZM70.9519 10.9525C71.5971 10.9525 72.111 11.1625 72.4936 11.5826C72.8836 12.0027 73.0787 12.5653 73.0787 13.2705V16.7363H71.6271V13.3718C71.6271 13.0342 71.5446 12.7716 71.3795 12.5841C71.2145 12.3966 70.982 12.3028 70.6819 12.3028C70.3518 12.3028 70.093 12.4116 69.9054 12.6291C69.7254 12.8467 69.6354 13.1617 69.6354 13.5743V16.7363H68.1838V13.3718C68.1838 13.0342 68.1013 12.7716 67.9362 12.5841C67.7712 12.3966 67.5386 12.3028 67.2386 12.3028C66.916 12.3028 66.6572 12.4116 66.4621 12.6291C66.2746 12.8467 66.1808 13.1617 66.1808 13.5743V16.7363H64.7292V11.11H66.1808V11.7064C66.5184 11.2038 67.0398 10.9525 67.7449 10.9525C68.4351 10.9525 68.9452 11.2225 69.2753 11.7627C69.6504 11.2225 70.2093 10.9525 70.9519 10.9525ZM80.5343 10.9525C81.1794 10.9525 81.6933 11.1625 82.0759 11.5826C82.466 12.0027 82.661 12.5653 82.661 13.2705V16.7363H81.2094V13.3718C81.2094 13.0342 81.1269 12.7716 80.9619 12.5841C80.7968 12.3966 80.5643 12.3028 80.2642 12.3028C79.9341 12.3028 79.6753 12.4116 79.4878 12.6291C79.3077 12.8467 79.2177 13.1617 79.2177 13.5743V16.7363H77.7661V13.3718C77.7661 13.0342 77.6836 12.7716 77.5186 12.5841C77.3535 12.3966 77.121 12.3028 76.8209 12.3028C76.4983 12.3028 76.2395 12.4116 76.0445 12.6291C75.8569 12.8467 75.7632 13.1617 75.7632 13.5743V16.7363H74.3116V11.11H75.7632V11.7064C76.1007 11.2038 76.6221 10.9525 77.3273 10.9525C78.0174 10.9525 78.5276 11.2225 78.8576 11.7627C79.2327 11.2225 79.7916 10.9525 80.5343 10.9525ZM84.6141 10.4348C84.374 10.4348 84.164 10.3486 83.9839 10.176C83.8114 9.99599 83.7251 9.78594 83.7251 9.54589C83.7251 9.30583 83.8114 9.09578 83.9839 8.91574C84.164 8.7357 84.374 8.64568 84.6141 8.64568C84.8616 8.64568 85.0717 8.7357 85.2442 8.91574C85.4242 9.09578 85.5143 9.30583 85.5143 9.54589C85.5143 9.78594 85.4242 9.99599 85.2442 10.176C85.0717 10.3486 84.8616 10.4348 84.6141 10.4348ZM83.8939 16.7363V11.11H85.3455V16.7363H83.8939ZM89.8023 10.9525C90.4175 10.9525 90.9238 11.1588 91.3214 11.5714C91.7265 11.984 91.9291 12.5541 91.9291 13.2818V16.7363H90.4775V13.4618C90.4775 13.0867 90.3762 12.8017 90.1737 12.6066C89.9711 12.4041 89.701 12.3028 89.3635 12.3028C88.9884 12.3028 88.6883 12.4191 88.4633 12.6516C88.2382 12.8842 88.1257 13.233 88.1257 13.6981V16.7363H86.6741V11.11H88.1257V11.7402C88.4783 11.215 89.0371 10.9525 89.8023 10.9525ZM97.4783 11.11H98.8961V16.4663C98.8961 17.3365 98.6073 18.0004 98.0297 18.458C97.4595 18.9156 96.7694 19.1444 95.9592 19.1444C95.3515 19.1444 94.8152 19.0281 94.3501 18.7956C93.8924 18.563 93.5399 18.2217 93.2923 17.7716L94.5301 17.0627C94.8152 17.5878 95.3065 17.8503 96.0042 17.8503C96.4618 17.8503 96.8219 17.7303 97.0844 17.4903C97.347 17.2502 97.4783 16.9089 97.4783 16.4663V15.8586C97.0507 16.4288 96.4506 16.7138 95.6779 16.7138C94.8827 16.7138 94.215 16.4363 93.6749 15.8811C93.1423 15.3185 92.876 14.6358 92.876 13.8331C92.876 13.038 93.146 12.359 93.6862 11.7964C94.2263 11.2338 94.8902 10.9525 95.6779 10.9525C96.4506 10.9525 97.0507 11.2375 97.4783 11.8077V11.11ZM94.7664 14.9472C95.0665 15.2322 95.4453 15.3748 95.9029 15.3748C96.3605 15.3748 96.7356 15.2322 97.0282 14.9472C97.3283 14.6546 97.4783 14.2833 97.4783 13.8331C97.4783 13.3905 97.3283 13.0267 97.0282 12.7416C96.7356 12.4491 96.3605 12.3028 95.9029 12.3028C95.4453 12.3028 95.0665 12.4491 94.7664 12.7416C94.4738 13.0267 94.3276 13.3905 94.3276 13.8331C94.3276 14.2833 94.4738 14.6546 94.7664 14.9472ZM106.03 8.85948C106.788 8.85948 107.425 9.11454 107.943 9.62466C108.461 10.1348 108.719 10.7612 108.719 11.5038C108.719 12.2465 108.461 12.8729 107.943 13.383C107.425 13.8932 106.788 14.1482 106.03 14.1482H104.646V16.7363H103.093V8.85948H106.03ZM106.03 12.6966C106.36 12.6966 106.634 12.5841 106.851 12.359C107.069 12.1265 107.178 11.8414 107.178 11.5038C107.178 11.1588 107.069 10.8737 106.851 10.6486C106.634 10.4236 106.36 10.3111 106.03 10.3111H104.646V12.6966H106.03ZM113.565 11.11H115.017V16.7363H113.565V16.0724C113.13 16.6201 112.519 16.8939 111.731 16.8939C110.981 16.8939 110.336 16.6088 109.796 16.0387C109.263 15.461 108.997 14.7559 108.997 13.9232C108.997 13.0905 109.263 12.3891 109.796 11.8189C110.336 11.2413 110.981 10.9525 111.731 10.9525C112.519 10.9525 113.13 11.2263 113.565 11.7739V11.11ZM110.887 15.0709C111.18 15.3635 111.551 15.5098 112.001 15.5098C112.451 15.5098 112.823 15.3635 113.115 15.0709C113.415 14.7709 113.565 14.3883 113.565 13.9232C113.565 13.4581 113.415 13.0792 113.115 12.7867C112.823 12.4866 112.451 12.3365 112.001 12.3365C111.551 12.3365 111.18 12.4866 110.887 12.7867C110.595 13.0792 110.448 13.4581 110.448 13.9232C110.448 14.3883 110.595 14.7709 110.887 15.0709ZM119.551 12.5053H118.28V14.8459C118.28 15.0409 118.329 15.1835 118.426 15.2735C118.524 15.3635 118.666 15.416 118.854 15.431C119.041 15.4385 119.274 15.4348 119.551 15.4198V16.7363C118.554 16.8489 117.849 16.7551 117.436 16.455C117.031 16.1549 116.828 15.6186 116.828 14.8459V12.5053H115.849V11.11H116.828V9.97349L118.28 9.53464V11.11H119.551V12.5053ZM123.703 10.9525C124.318 10.9525 124.825 11.1588 125.222 11.5714C125.627 11.984 125.83 12.5541 125.83 13.2818V16.7363H124.378V13.4618C124.378 13.0867 124.277 12.8017 124.074 12.6066C123.872 12.4041 123.602 12.3028 123.264 12.3028C122.889 12.3028 122.589 12.4191 122.364 12.6516C122.139 12.8842 122.026 13.233 122.026 13.6981V16.7363H120.575V8.85948H122.026V11.7402C122.379 11.215 122.938 10.9525 123.703 10.9525ZM128.408 12.7079C128.408 12.8579 128.506 12.9817 128.701 13.0792C128.903 13.1692 129.147 13.2518 129.432 13.3268C129.717 13.3943 130.003 13.4843 130.288 13.5968C130.573 13.7019 130.813 13.8819 131.008 14.137C131.21 14.392 131.312 14.7109 131.312 15.0934C131.312 15.6711 131.094 16.1174 130.659 16.4325C130.231 16.7401 129.695 16.8939 129.05 16.8939C127.895 16.8939 127.107 16.4475 126.687 15.5548L127.947 14.8459C128.112 15.3335 128.48 15.5773 129.05 15.5773C129.567 15.5773 129.826 15.416 129.826 15.0934C129.826 14.9434 129.725 14.8234 129.522 14.7334C129.327 14.6358 129.087 14.5496 128.802 14.4745C128.517 14.3995 128.232 14.3058 127.947 14.1932C127.662 14.0807 127.418 13.9044 127.216 13.6644C127.021 13.4168 126.923 13.1092 126.923 12.7416C126.923 12.1865 127.126 11.7514 127.531 11.4363C127.943 11.1138 128.453 10.9525 129.061 10.9525C129.519 10.9525 129.935 11.0575 130.31 11.2675C130.685 11.4701 130.981 11.7627 131.199 12.1452L129.961 12.8204C129.781 12.4378 129.481 12.2465 129.061 12.2465C128.873 12.2465 128.716 12.2878 128.588 12.3703C128.468 12.4528 128.408 12.5653 128.408 12.7079ZM135.373 10.9525C135.988 10.9525 136.495 11.1588 136.892 11.5714C137.298 11.984 137.5 12.5541 137.5 13.2818V16.7363H136.048V13.4618C136.048 13.0867 135.947 12.8017 135.745 12.6066C135.542 12.4041 135.272 12.3028 134.934 12.3028C134.559 12.3028 134.259 12.4191 134.034 12.6516C133.809 12.8842 133.697 13.233 133.697 13.6981V16.7363H132.245V8.85948H133.697V11.7402C134.049 11.215 134.608 10.9525 135.373 10.9525ZM143.016 11.11H144.467V16.7363H143.016V16.0724C142.58 16.6201 141.969 16.8939 141.181 16.8939C140.431 16.8939 139.786 16.6088 139.246 16.0387C138.713 15.461 138.447 14.7559 138.447 13.9232C138.447 13.0905 138.713 12.3891 139.246 11.8189C139.786 11.2413 140.431 10.9525 141.181 10.9525C141.969 10.9525 142.58 11.2263 143.016 11.7739V11.11ZM140.337 15.0709C140.63 15.3635 141.001 15.5098 141.451 15.5098C141.902 15.5098 142.273 15.3635 142.565 15.0709C142.866 14.7709 143.016 14.3883 143.016 13.9232C143.016 13.4581 142.866 13.0792 142.565 12.7867C142.273 12.4866 141.902 12.3365 141.451 12.3365C141.001 12.3365 140.63 12.4866 140.337 12.7867C140.045 13.0792 139.899 13.4581 139.899 13.9232C139.899 14.3883 140.045 14.7709 140.337 15.0709ZM145.783 16.7363V8.5219H147.235V16.7363H145.783ZM152.84 11.11H154.291V16.7363H152.84V16.0724C152.405 16.6201 151.793 16.8939 151.005 16.8939C150.255 16.8939 149.61 16.6088 149.07 16.0387C148.537 15.461 148.271 14.7559 148.271 13.9232C148.271 13.0905 148.537 12.3891 149.07 11.8189C149.61 11.2413 150.255 10.9525 151.005 10.9525C151.793 10.9525 152.405 11.2263 152.84 11.7739V11.11ZM150.162 15.0709C150.454 15.3635 150.825 15.5098 151.276 15.5098C151.726 15.5098 152.097 15.3635 152.39 15.0709C152.69 14.7709 152.84 14.3883 152.84 13.9232C152.84 13.4581 152.69 13.0792 152.39 12.7867C152.097 12.4866 151.726 12.3365 151.276 12.3365C150.825 12.3365 150.454 12.4866 150.162 12.7867C149.869 13.0792 149.723 13.4581 149.723 13.9232C149.723 14.3883 149.869 14.7709 150.162 15.0709Z" fill="#F8FAFC"/>
</svg>
