<svg width="20" height="20" viewBox="0 0 20 20" fill="none" xmlns="http://www.w3.org/2000/svg">
<path d="M8.23529 0C8.23529 0 8.47195 4.39569 10.2734 6.19716C12.0749 7.99864 16.4706 8.23529 16.4706 8.23529C16.4706 8.23529 12.0749 8.47195 10.2734 10.2734C8.47195 12.0749 8.23529 16.4706 8.23529 16.4706C8.23529 16.4706 7.99864 12.0749 6.19716 10.2734C4.39569 8.47195 0 8.23529 0 8.23529C0 8.23529 4.39569 7.99864 6.19716 6.19716C7.99864 4.39569 8.23529 0 8.23529 0Z" fill="#D97706"/>
<path d="M15.2941 10.5879C15.2941 10.5879 15.4294 13.0997 16.4588 14.1291C17.4882 15.1585 20 15.2938 20 15.2938C20 15.2938 17.4882 15.429 16.4588 16.4584C15.4294 17.4878 15.2941 19.9997 15.2941 19.9997C15.2941 19.9997 15.1589 17.4878 14.1295 16.4584C13.1001 15.429 10.5883 15.2938 10.5883 15.2938C10.5883 15.2938 13.1001 15.1585 14.1295 14.1291C15.1589 13.0997 15.2941 10.5879 15.2941 10.5879Z" fill="#D97706"/>
</svg>
