<svg width="563" height="48" viewBox="0 0 563 48" fill="none" xmlns="http://www.w3.org/2000/svg">
<path d="M2 13.68H8.4V15H0.6V0.999999H2V13.68ZM18.6969 5H20.0169V15H18.6969V13.04C17.7769 14.5067 16.4302 15.24 14.6569 15.24C13.2302 15.24 12.0102 14.7333 10.9969 13.72C9.99687 12.7067 9.49687 11.4667 9.49687 10C9.49687 8.53333 9.99687 7.29333 10.9969 6.28C12.0102 5.26667 13.2302 4.76 14.6569 4.76C16.4302 4.76 17.7769 5.49333 18.6969 6.96V5ZM11.9569 12.82C12.7169 13.58 13.6502 13.96 14.7569 13.96C15.8635 13.96 16.7969 13.58 17.5569 12.82C18.3169 12.0467 18.6969 11.1067 18.6969 10C18.6969 8.89333 18.3169 7.96 17.5569 7.2C16.7969 6.42667 15.8635 6.04 14.7569 6.04C13.6502 6.04 12.7169 6.42667 11.9569 7.2C11.1969 7.96 10.8169 8.89333 10.8169 10C10.8169 11.1067 11.1969 12.0467 11.9569 12.82ZM30.2517 5H31.5717V15H30.2517V13.44C29.5051 14.64 28.3851 15.24 26.8917 15.24C25.6784 15.24 24.7184 14.8733 24.0117 14.14C23.3184 13.3933 22.9717 12.3933 22.9717 11.14V5H24.2917V11.14C24.2917 12.0333 24.5251 12.7267 24.9917 13.22C25.4717 13.7133 26.1451 13.96 27.0117 13.96C27.9717 13.96 28.7517 13.66 29.3517 13.06C29.9517 12.4467 30.2517 11.5067 30.2517 10.24V5ZM39.4441 4.76C40.6574 4.76 41.6107 5.13333 42.3041 5.88C43.0107 6.61333 43.3641 7.60667 43.3641 8.86V15H42.0441V8.86C42.0441 7.96667 41.8041 7.27333 41.3241 6.78C40.8574 6.28667 40.1907 6.04 39.3241 6.04C38.3641 6.04 37.5841 6.34667 36.9841 6.96C36.3841 7.56 36.0841 8.49333 36.0841 9.76V15H34.7641V5H36.0841V6.56C36.8307 5.36 37.9507 4.76 39.4441 4.76ZM50.9764 15.24C49.4697 15.24 48.2164 14.74 47.2164 13.74C46.2164 12.7267 45.7164 11.48 45.7164 10C45.7164 8.52 46.2164 7.28 47.2164 6.28C48.2164 5.26667 49.4697 4.76 50.9764 4.76C51.9631 4.76 52.8497 5 53.6364 5.48C54.4231 5.94667 54.9964 6.58 55.3564 7.38L54.2764 8C54.0097 7.4 53.5764 6.92667 52.9764 6.58C52.3897 6.22 51.7231 6.04 50.9764 6.04C49.8697 6.04 48.9364 6.42667 48.1764 7.2C47.4164 7.96 47.0364 8.89333 47.0364 10C47.0364 11.1067 47.4164 12.0467 48.1764 12.82C48.9364 13.58 49.8697 13.96 50.9764 13.96C51.7231 13.96 52.3897 13.7867 52.9764 13.44C53.5631 13.08 54.0231 12.6 54.3564 12L55.4564 12.64C55.0431 13.44 54.4364 14.0733 53.6364 14.54C52.8364 15.0067 51.9497 15.24 50.9764 15.24ZM62.4316 4.76C63.6449 4.76 64.5982 5.13333 65.2916 5.88C65.9982 6.61333 66.3516 7.60667 66.3516 8.86V15H65.0316V8.86C65.0316 7.96667 64.7916 7.27333 64.3116 6.78C63.8449 6.28667 63.1782 6.04 62.3116 6.04C61.3516 6.04 60.5716 6.34667 59.9716 6.96C59.3716 7.56 59.0716 8.49333 59.0716 9.76V15H57.7516V0.999999H59.0716V6.56C59.8182 5.36 60.9382 4.76 62.4316 4.76ZM85.0039 0.999999L79.9439 9.26V15H78.5439V9.22L73.5039 0.999999H75.0839L79.2639 7.86L83.4239 0.999999H85.0039ZM93.3862 13.74C92.3729 14.74 91.1329 15.24 89.6662 15.24C88.1996 15.24 86.9529 14.74 85.9262 13.74C84.9129 12.7267 84.4062 11.48 84.4062 10C84.4062 8.52 84.9129 7.28 85.9262 6.28C86.9529 5.26667 88.1996 4.76 89.6662 4.76C91.1329 4.76 92.3729 5.26667 93.3862 6.28C94.4129 7.28 94.9262 8.52 94.9262 10C94.9262 11.48 94.4129 12.7267 93.3862 13.74ZM86.8662 12.82C87.6262 13.58 88.5596 13.96 89.6662 13.96C90.7729 13.96 91.7062 13.58 92.4662 12.82C93.2262 12.0467 93.6062 11.1067 93.6062 10C93.6062 8.89333 93.2262 7.96 92.4662 7.2C91.7062 6.42667 90.7729 6.04 89.6662 6.04C88.5596 6.04 87.6262 6.42667 86.8662 7.2C86.1062 7.96 85.7262 8.89333 85.7262 10C85.7262 11.1067 86.1062 12.0467 86.8662 12.82ZM104.575 5H105.895V15H104.575V13.44C103.828 14.64 102.708 15.24 101.215 15.24C100.002 15.24 99.0418 14.8733 98.3352 14.14C97.6418 13.3933 97.2952 12.3933 97.2952 11.14V5H98.6152V11.14C98.6152 12.0333 98.8485 12.7267 99.3152 13.22C99.7952 13.7133 100.468 13.96 101.335 13.96C102.295 13.96 103.075 13.66 103.675 13.06C104.275 12.4467 104.575 11.5067 104.575 10.24V5ZM110.408 6.66C111.021 5.44667 112.074 4.84 113.567 4.84V6.12C112.661 6.12 111.908 6.38667 111.308 6.92C110.708 7.45333 110.408 8.29333 110.408 9.44V15H109.088V5H110.408V6.66ZM130.177 0.999999V2.32H125.877V15H124.477V2.32H120.177V0.999999H130.177ZM135.2 4.76C136.68 4.76 137.874 5.28667 138.78 6.34C139.7 7.38 140.16 8.61333 140.16 10.04C140.16 10.1867 140.147 10.3933 140.12 10.66H131.34C131.474 11.6733 131.9 12.48 132.62 13.08C133.354 13.6667 134.254 13.96 135.32 13.96C136.08 13.96 136.734 13.8067 137.28 13.5C137.84 13.18 138.26 12.7667 138.54 12.26L139.7 12.94C139.26 13.6467 138.66 14.2067 137.9 14.62C137.14 15.0333 136.274 15.24 135.3 15.24C133.727 15.24 132.447 14.7467 131.46 13.76C130.474 12.7733 129.98 11.52 129.98 10C129.98 8.50667 130.467 7.26 131.44 6.26C132.414 5.26 133.667 4.76 135.2 4.76ZM135.2 6.04C134.16 6.04 133.287 6.35333 132.58 6.98C131.887 7.59333 131.474 8.39333 131.34 9.38H138.8C138.667 8.32667 138.26 7.50667 137.58 6.92C136.9 6.33333 136.107 6.04 135.2 6.04ZM147.32 15.24C145.813 15.24 144.56 14.74 143.56 13.74C142.56 12.7267 142.06 11.48 142.06 10C142.06 8.52 142.56 7.28 143.56 6.28C144.56 5.26667 145.813 4.76 147.32 4.76C148.307 4.76 149.193 5 149.98 5.48C150.767 5.94667 151.34 6.58 151.7 7.38L150.62 8C150.353 7.4 149.92 6.92667 149.32 6.58C148.733 6.22 148.067 6.04 147.32 6.04C146.213 6.04 145.28 6.42667 144.52 7.2C143.76 7.96 143.38 8.89333 143.38 10C143.38 11.1067 143.76 12.0467 144.52 12.82C145.28 13.58 146.213 13.96 147.32 13.96C148.067 13.96 148.733 13.7867 149.32 13.44C149.907 13.08 150.367 12.6 150.7 12L151.8 12.64C151.387 13.44 150.78 14.0733 149.98 14.54C149.18 15.0067 148.293 15.24 147.32 15.24ZM158.775 4.76C159.989 4.76 160.942 5.13333 161.635 5.88C162.342 6.61333 162.695 7.60667 162.695 8.86V15H161.375V8.86C161.375 7.96667 161.135 7.27333 160.655 6.78C160.189 6.28667 159.522 6.04 158.655 6.04C157.695 6.04 156.915 6.34667 156.315 6.96C155.715 7.56 155.415 8.49333 155.415 9.76V15H154.095V0.999999H155.415V6.56C156.162 5.36 157.282 4.76 158.775 4.76ZM177.788 15.24C175.668 15.24 173.914 14.54 172.528 13.14C171.141 11.74 170.448 10.0267 170.448 8C170.448 5.97333 171.141 4.26 172.528 2.86C173.914 1.46 175.668 0.76 177.788 0.76C179.081 0.76 180.268 1.07333 181.348 1.7C182.428 2.31333 183.261 3.14667 183.848 4.2L182.608 4.92C182.168 4.06667 181.514 3.38667 180.648 2.88C179.781 2.37333 178.828 2.12 177.788 2.12C176.041 2.12 174.614 2.68667 173.508 3.82C172.401 4.95333 171.848 6.34667 171.848 8C171.848 9.65333 172.401 11.0467 173.508 12.18C174.614 13.3133 176.041 13.88 177.788 13.88C178.828 13.88 179.781 13.6267 180.648 13.12C181.514 12.6133 182.168 11.9333 182.608 11.08L183.848 11.78C183.274 12.8333 182.441 13.6733 181.348 14.3C180.268 14.9267 179.081 15.24 177.788 15.24ZM194.852 5H196.172V15H194.852V13.04C193.932 14.5067 192.586 15.24 190.812 15.24C189.386 15.24 188.166 14.7333 187.152 13.72C186.152 12.7067 185.652 11.4667 185.652 10C185.652 8.53333 186.152 7.29333 187.152 6.28C188.166 5.26667 189.386 4.76 190.812 4.76C192.586 4.76 193.932 5.49333 194.852 6.96V5ZM188.112 12.82C188.872 13.58 189.806 13.96 190.912 13.96C192.019 13.96 192.952 13.58 193.712 12.82C194.472 12.0467 194.852 11.1067 194.852 10C194.852 8.89333 194.472 7.96 193.712 7.2C192.952 6.42667 192.019 6.04 190.912 6.04C189.806 6.04 188.872 6.42667 188.112 7.2C187.352 7.96 186.972 8.89333 186.972 10C186.972 11.1067 187.352 12.0467 188.112 12.82ZM200.687 6.66C201.301 5.44667 202.354 4.84 203.847 4.84V6.12C202.941 6.12 202.187 6.38667 201.587 6.92C200.987 7.45333 200.687 8.29333 200.687 9.44V15H199.367V5H200.687V6.66ZM210.071 4.76C211.551 4.76 212.744 5.28667 213.651 6.34C214.571 7.38 215.031 8.61333 215.031 10.04C215.031 10.1867 215.017 10.3933 214.991 10.66H206.211C206.344 11.6733 206.771 12.48 207.491 13.08C208.224 13.6667 209.124 13.96 210.191 13.96C210.951 13.96 211.604 13.8067 212.151 13.5C212.711 13.18 213.131 12.7667 213.411 12.26L214.571 12.94C214.131 13.6467 213.531 14.2067 212.771 14.62C212.011 15.0333 211.144 15.24 210.171 15.24C208.597 15.24 207.317 14.7467 206.331 13.76C205.344 12.7733 204.851 11.52 204.851 10C204.851 8.50667 205.337 7.26 206.311 6.26C207.284 5.26 208.537 4.76 210.071 4.76ZM210.071 6.04C209.031 6.04 208.157 6.35333 207.451 6.98C206.757 7.59333 206.344 8.39333 206.211 9.38H213.671C213.537 8.32667 213.131 7.50667 212.451 6.92C211.771 6.33333 210.977 6.04 210.071 6.04ZM222.15 4.76C223.63 4.76 224.824 5.28667 225.73 6.34C226.65 7.38 227.11 8.61333 227.11 10.04C227.11 10.1867 227.097 10.3933 227.07 10.66H218.29C218.424 11.6733 218.85 12.48 219.57 13.08C220.304 13.6667 221.204 13.96 222.27 13.96C223.03 13.96 223.684 13.8067 224.23 13.5C224.79 13.18 225.21 12.7667 225.49 12.26L226.65 12.94C226.21 13.6467 225.61 14.2067 224.85 14.62C224.09 15.0333 223.224 15.24 222.25 15.24C220.677 15.24 219.397 14.7467 218.41 13.76C217.424 12.7733 216.93 11.52 216.93 10C216.93 8.50667 217.417 7.26 218.39 6.26C219.364 5.26 220.617 4.76 222.15 4.76ZM222.15 6.04C221.11 6.04 220.237 6.35333 219.53 6.98C218.837 7.59333 218.424 8.39333 218.29 9.38H225.75C225.617 8.32667 225.21 7.50667 224.53 6.92C223.85 6.33333 223.057 6.04 222.15 6.04ZM230.93 6.66C231.543 5.44667 232.597 4.84 234.09 4.84V6.12C233.183 6.12 232.43 6.38667 231.83 6.92C231.23 7.45333 230.93 8.29333 230.93 9.44V15H229.61V5H230.93V6.66ZM253.739 5H255.099L252.019 15H250.579L247.999 6.94L245.419 15H243.979L240.899 5H242.259L244.719 13.3L247.339 5H248.659L251.279 13.3L253.739 5ZM258.83 2.6C258.643 2.78667 258.417 2.88 258.15 2.88C257.883 2.88 257.657 2.78667 257.47 2.6C257.283 2.41333 257.19 2.18667 257.19 1.92C257.19 1.65333 257.283 1.42667 257.47 1.24C257.657 1.05333 257.883 0.96 258.15 0.96C258.417 0.96 258.643 1.05333 258.83 1.24C259.017 1.42667 259.11 1.65333 259.11 1.92C259.11 2.18667 259.017 2.41333 258.83 2.6ZM257.49 15V5H258.81V15H257.49ZM267.311 6.28H264.431V12.34C264.431 12.8867 264.538 13.28 264.751 13.52C264.964 13.7467 265.284 13.8667 265.711 13.88C266.138 13.88 266.671 13.8667 267.311 13.84V15C265.911 15.2133 264.858 15.1133 264.151 14.7C263.458 14.2867 263.111 13.5 263.111 12.34V6.28H261.011V5H263.111V2.6L264.431 2.2V5H267.311V6.28ZM274.591 4.76C275.804 4.76 276.758 5.13333 277.451 5.88C278.158 6.61333 278.511 7.60667 278.511 8.86V15H277.191V8.86C277.191 7.96667 276.951 7.27333 276.471 6.78C276.004 6.28667 275.338 6.04 274.471 6.04C273.511 6.04 272.731 6.34667 272.131 6.96C271.531 7.56 271.231 8.49333 271.231 9.76V15H269.911V0.999999H271.231V6.56C271.978 5.36 273.098 4.76 274.591 4.76ZM296.063 0.999999H297.463V15H296.063V8.46H288.463V15H287.063V0.999999H288.463V7.14H296.063V0.999999ZM309.457 5H310.777V15H309.457V13.04C308.537 14.5067 307.19 15.24 305.417 15.24C303.99 15.24 302.77 14.7333 301.757 13.72C300.757 12.7067 300.257 11.4667 300.257 10C300.257 8.53333 300.757 7.29333 301.757 6.28C302.77 5.26667 303.99 4.76 305.417 4.76C307.19 4.76 308.537 5.49333 309.457 6.96V5ZM302.717 12.82C303.477 13.58 304.41 13.96 305.517 13.96C306.624 13.96 307.557 13.58 308.317 12.82C309.077 12.0467 309.457 11.1067 309.457 10C309.457 8.89333 309.077 7.96 308.317 7.2C307.557 6.42667 306.624 6.04 305.517 6.04C304.41 6.04 303.477 6.42667 302.717 7.2C301.957 7.96 301.577 8.89333 301.577 10C301.577 11.1067 301.957 12.0467 302.717 12.82ZM318.652 4.76C319.865 4.76 320.819 5.13333 321.512 5.88C322.219 6.61333 322.572 7.60667 322.572 8.86V15H321.252V8.86C321.252 7.96667 321.012 7.27333 320.532 6.78C320.065 6.28667 319.399 6.04 318.532 6.04C317.572 6.04 316.792 6.34667 316.192 6.96C315.592 7.56 315.292 8.49333 315.292 9.76V15H313.972V5H315.292V6.56C316.039 5.36 317.159 4.76 318.652 4.76ZM334.124 0.999999H335.444V15H334.124V13.04C333.204 14.5067 331.858 15.24 330.084 15.24C328.658 15.24 327.438 14.7333 326.424 13.72C325.424 12.7067 324.924 11.4667 324.924 10C324.924 8.53333 325.424 7.29333 326.424 6.28C327.438 5.26667 328.658 4.76 330.084 4.76C331.858 4.76 333.204 5.49333 334.124 6.96V0.999999ZM327.384 12.82C328.144 13.58 329.078 13.96 330.184 13.96C331.291 13.96 332.224 13.58 332.984 12.82C333.744 12.0467 334.124 11.1067 334.124 10C334.124 8.89333 333.744 7.96 332.984 7.2C332.224 6.42667 331.291 6.04 330.184 6.04C329.078 6.04 328.144 6.42667 327.384 7.2C326.624 7.96 326.244 8.89333 326.244 10C326.244 11.1067 326.624 12.0467 327.384 12.82ZM339.679 7.62C339.679 8.07333 339.879 8.43333 340.279 8.7C340.679 8.96667 341.166 9.17333 341.739 9.32C342.312 9.46667 342.886 9.63333 343.459 9.82C344.032 9.99333 344.519 10.2933 344.919 10.72C345.319 11.1333 345.519 11.68 345.519 12.36C345.519 13.2133 345.179 13.9067 344.499 14.44C343.832 14.9733 342.966 15.24 341.899 15.24C340.939 15.24 340.119 15.0267 339.439 14.6C338.772 14.1733 338.306 13.62 338.039 12.94L339.159 12.28C339.346 12.8 339.679 13.2133 340.159 13.52C340.652 13.8133 341.232 13.96 341.899 13.96C342.552 13.96 343.099 13.8333 343.539 13.58C343.979 13.3133 344.199 12.9067 344.199 12.36C344.199 11.9067 343.999 11.5467 343.599 11.28C343.199 11.0133 342.712 10.8067 342.139 10.66C341.566 10.5133 340.992 10.3533 340.419 10.18C339.846 9.99333 339.359 9.69333 338.959 9.28C338.559 8.85333 338.359 8.3 338.359 7.62C338.359 6.80667 338.679 6.12667 339.319 5.58C339.972 5.03333 340.792 4.76 341.779 4.76C342.592 4.76 343.306 4.94667 343.919 5.32C344.532 5.68 344.986 6.17333 345.279 6.8L344.179 7.44C343.792 6.50667 342.992 6.04 341.779 6.04C341.206 6.04 340.712 6.18 340.299 6.46C339.886 6.72667 339.679 7.11333 339.679 7.62ZM347.93 9.46V8.18H355.13V9.46H347.93ZM370.301 13.14C368.901 14.54 367.188 15.24 365.161 15.24C363.134 15.24 361.421 14.54 360.021 13.14C358.621 11.7267 357.921 10.0133 357.921 8C357.921 5.98667 358.621 4.28 360.021 2.88C361.421 1.46667 363.134 0.76 365.161 0.76C367.188 0.76 368.901 1.46667 370.301 2.88C371.701 4.28 372.401 5.98667 372.401 8C372.401 10.0133 371.701 11.7267 370.301 13.14ZM361.001 12.18C362.121 13.3133 363.508 13.88 365.161 13.88C366.814 13.88 368.201 13.3133 369.321 12.18C370.441 11.0333 371.001 9.64 371.001 8C371.001 6.36 370.441 4.97333 369.321 3.84C368.201 2.69333 366.814 2.12 365.161 2.12C363.508 2.12 362.121 2.69333 361.001 3.84C359.881 4.97333 359.321 6.36 359.321 8C359.321 9.64 359.881 11.0333 361.001 12.18ZM379.675 4.76C380.889 4.76 381.842 5.13333 382.535 5.88C383.242 6.61333 383.595 7.60667 383.595 8.86V15H382.275V8.86C382.275 7.96667 382.035 7.27333 381.555 6.78C381.089 6.28667 380.422 6.04 379.555 6.04C378.595 6.04 377.815 6.34667 377.215 6.96C376.615 7.56 376.315 8.49333 376.315 9.76V15H374.995V5H376.315V6.56C377.062 5.36 378.182 4.76 379.675 4.76ZM393.548 13.68H400.348V15H392.148V0.999999H400.248V2.32H393.548V7.28H399.748V8.6H393.548V13.68ZM411.353 15H409.773L406.653 10.88L403.533 15H401.953L405.873 9.82L402.213 5H403.793L406.653 8.78L409.513 5H411.093L407.453 9.82L411.353 15ZM418.908 4.76C420.335 4.76 421.548 5.26667 422.548 6.28C423.562 7.29333 424.068 8.53333 424.068 10C424.068 11.4667 423.562 12.7067 422.548 13.72C421.548 14.7333 420.335 15.24 418.908 15.24C417.135 15.24 415.788 14.5067 414.868 13.04V19H413.548V5H414.868V6.96C415.788 5.49333 417.135 4.76 418.908 4.76ZM416.008 12.82C416.768 13.58 417.702 13.96 418.808 13.96C419.915 13.96 420.848 13.58 421.608 12.82C422.368 12.0467 422.748 11.1067 422.748 10C422.748 8.89333 422.368 7.96 421.608 7.2C420.848 6.42667 419.915 6.04 418.808 6.04C417.702 6.04 416.768 6.42667 416.008 7.2C415.248 7.96 414.868 8.89333 414.868 10C414.868 11.1067 415.248 12.0467 416.008 12.82ZM431.283 4.76C432.763 4.76 433.957 5.28667 434.863 6.34C435.783 7.38 436.243 8.61333 436.243 10.04C436.243 10.1867 436.23 10.3933 436.203 10.66H427.423C427.557 11.6733 427.983 12.48 428.703 13.08C429.437 13.6667 430.337 13.96 431.403 13.96C432.163 13.96 432.817 13.8067 433.363 13.5C433.923 13.18 434.343 12.7667 434.623 12.26L435.783 12.94C435.343 13.6467 434.743 14.2067 433.983 14.62C433.223 15.0333 432.357 15.24 431.383 15.24C429.81 15.24 428.53 14.7467 427.543 13.76C426.557 12.7733 426.063 11.52 426.063 10C426.063 8.50667 426.55 7.26 427.523 6.26C428.497 5.26 429.75 4.76 431.283 4.76ZM431.283 6.04C430.243 6.04 429.37 6.35333 428.663 6.98C427.97 7.59333 427.557 8.39333 427.423 9.38H434.883C434.75 8.32667 434.343 7.50667 433.663 6.92C432.983 6.33333 432.19 6.04 431.283 6.04ZM440.063 6.66C440.676 5.44667 441.73 4.84 443.223 4.84V6.12C442.316 6.12 441.563 6.38667 440.963 6.92C440.363 7.45333 440.063 8.29333 440.063 9.44V15H438.743V5H440.063V6.66ZM446.772 2.6C446.585 2.78667 446.359 2.88 446.092 2.88C445.825 2.88 445.599 2.78667 445.412 2.6C445.225 2.41333 445.132 2.18667 445.132 1.92C445.132 1.65333 445.225 1.42667 445.412 1.24C445.599 1.05333 445.825 0.96 446.092 0.96C446.359 0.96 446.585 1.05333 446.772 1.24C446.959 1.42667 447.052 1.65333 447.052 1.92C447.052 2.18667 446.959 2.41333 446.772 2.6ZM445.432 15V5H446.752V15H445.432ZM454.573 4.76C456.053 4.76 457.246 5.28667 458.153 6.34C459.073 7.38 459.533 8.61333 459.533 10.04C459.533 10.1867 459.52 10.3933 459.493 10.66H450.713C450.846 11.6733 451.273 12.48 451.993 13.08C452.726 13.6667 453.626 13.96 454.693 13.96C455.453 13.96 456.106 13.8067 456.653 13.5C457.213 13.18 457.633 12.7667 457.913 12.26L459.073 12.94C458.633 13.6467 458.033 14.2067 457.273 14.62C456.513 15.0333 455.646 15.24 454.673 15.24C453.1 15.24 451.82 14.7467 450.833 13.76C449.846 12.7733 449.353 11.52 449.353 10C449.353 8.50667 449.84 7.26 450.813 6.26C451.786 5.26 453.04 4.76 454.573 4.76ZM454.573 6.04C453.533 6.04 452.66 6.35333 451.953 6.98C451.26 7.59333 450.846 8.39333 450.713 9.38H458.173C458.04 8.32667 457.633 7.50667 456.953 6.92C456.273 6.33333 455.48 6.04 454.573 6.04ZM466.713 4.76C467.926 4.76 468.879 5.13333 469.573 5.88C470.279 6.61333 470.633 7.60667 470.633 8.86V15H469.313V8.86C469.313 7.96667 469.073 7.27333 468.593 6.78C468.126 6.28667 467.459 6.04 466.593 6.04C465.633 6.04 464.853 6.34667 464.253 6.96C463.653 7.56 463.353 8.49333 463.353 9.76V15H462.033V5H463.353V6.56C464.099 5.36 465.219 4.76 466.713 4.76ZM478.245 15.24C476.738 15.24 475.485 14.74 474.485 13.74C473.485 12.7267 472.985 11.48 472.985 10C472.985 8.52 473.485 7.28 474.485 6.28C475.485 5.26667 476.738 4.76 478.245 4.76C479.232 4.76 480.118 5 480.905 5.48C481.692 5.94667 482.265 6.58 482.625 7.38L481.545 8C481.278 7.4 480.845 6.92667 480.245 6.58C479.658 6.22 478.992 6.04 478.245 6.04C477.138 6.04 476.205 6.42667 475.445 7.2C474.685 7.96 474.305 8.89333 474.305 10C474.305 11.1067 474.685 12.0467 475.445 12.82C476.205 13.58 477.138 13.96 478.245 13.96C478.992 13.96 479.658 13.7867 480.245 13.44C480.832 13.08 481.292 12.6 481.625 12L482.725 12.64C482.312 13.44 481.705 14.0733 480.905 14.54C480.105 15.0067 479.218 15.24 478.245 15.24ZM489.543 4.76C491.023 4.76 492.216 5.28667 493.123 6.34C494.043 7.38 494.503 8.61333 494.503 10.04C494.503 10.1867 494.489 10.3933 494.463 10.66H485.683C485.816 11.6733 486.243 12.48 486.963 13.08C487.696 13.6667 488.596 13.96 489.663 13.96C490.423 13.96 491.076 13.8067 491.623 13.5C492.183 13.18 492.603 12.7667 492.883 12.26L494.043 12.94C493.603 13.6467 493.003 14.2067 492.243 14.62C491.483 15.0333 490.616 15.24 489.643 15.24C488.069 15.24 486.789 14.7467 485.803 13.76C484.816 12.7733 484.323 11.52 484.323 10C484.323 8.50667 484.809 7.26 485.783 6.26C486.756 5.26 488.009 4.76 489.543 4.76ZM489.543 6.04C488.503 6.04 487.629 6.35333 486.923 6.98C486.229 7.59333 485.816 8.39333 485.683 9.38H493.143C493.009 8.32667 492.603 7.50667 491.923 6.92C491.243 6.33333 490.449 6.04 489.543 6.04ZM503.742 2.6C503.556 2.78667 503.329 2.88 503.062 2.88C502.796 2.88 502.569 2.78667 502.382 2.6C502.196 2.41333 502.102 2.18667 502.102 1.92C502.102 1.65333 502.196 1.42667 502.382 1.24C502.569 1.05333 502.796 0.96 503.062 0.96C503.329 0.96 503.556 1.05333 503.742 1.24C503.929 1.42667 504.022 1.65333 504.022 1.92C504.022 2.18667 503.929 2.41333 503.742 2.6ZM502.402 15V5H503.722V15H502.402ZM511.603 4.76C512.817 4.76 513.77 5.13333 514.463 5.88C515.17 6.61333 515.523 7.60667 515.523 8.86V15H514.203V8.86C514.203 7.96667 513.963 7.27333 513.483 6.78C513.017 6.28667 512.35 6.04 511.483 6.04C510.523 6.04 509.743 6.34667 509.143 6.96C508.543 7.56 508.243 8.49333 508.243 9.76V15H506.923V5H508.243V6.56C508.99 5.36 510.11 4.76 511.603 4.76ZM532.676 15L529.396 9.4H525.476V15H524.076V0.999999H529.676C530.836 0.999999 531.822 1.41333 532.636 2.24C533.462 3.05333 533.876 4.04 533.876 5.2C533.876 6.14667 533.589 6.99333 533.016 7.74C532.456 8.47333 531.736 8.96667 530.856 9.22L534.276 15H532.676ZM525.476 2.32V8.08H529.676C530.449 8.08 531.109 7.8 531.656 7.24C532.202 6.66667 532.476 5.98667 532.476 5.2C532.476 4.4 532.202 3.72 531.656 3.16C531.109 2.6 530.449 2.32 529.676 2.32H525.476ZM540.595 4.76C542.075 4.76 543.268 5.28667 544.175 6.34C545.095 7.38 545.555 8.61333 545.555 10.04C545.555 10.1867 545.542 10.3933 545.515 10.66H536.735C536.868 11.6733 537.295 12.48 538.015 13.08C538.748 13.6667 539.648 13.96 540.715 13.96C541.475 13.96 542.128 13.8067 542.675 13.5C543.235 13.18 543.655 12.7667 543.935 12.26L545.095 12.94C544.655 13.6467 544.055 14.2067 543.295 14.62C542.535 15.0333 541.668 15.24 540.695 15.24C539.122 15.24 537.842 14.7467 536.855 13.76C535.868 12.7733 535.375 11.52 535.375 10C535.375 8.50667 535.862 7.26 536.835 6.26C537.808 5.26 539.062 4.76 540.595 4.76ZM540.595 6.04C539.555 6.04 538.682 6.35333 537.975 6.98C537.282 7.59333 536.868 8.39333 536.735 9.38H544.195C544.062 8.32667 543.655 7.50667 542.975 6.92C542.295 6.33333 541.502 6.04 540.595 6.04ZM556.655 5H557.975V15H556.655V13.04C555.735 14.5067 554.388 15.24 552.615 15.24C551.188 15.24 549.968 14.7333 548.955 13.72C547.955 12.7067 547.455 11.4667 547.455 10C547.455 8.53333 547.955 7.29333 548.955 6.28C549.968 5.26667 551.188 4.76 552.615 4.76C554.388 4.76 555.735 5.49333 556.655 6.96V5ZM549.915 12.82C550.675 13.58 551.608 13.96 552.715 13.96C553.821 13.96 554.755 13.58 555.515 12.82C556.275 12.0467 556.655 11.1067 556.655 10C556.655 8.89333 556.275 7.96 555.515 7.2C554.755 6.42667 553.821 6.04 552.715 6.04C551.608 6.04 550.675 6.42667 549.915 7.2C549.155 7.96 548.775 8.89333 548.775 10C548.775 11.1067 549.155 12.0467 549.915 12.82ZM561.17 15V0.4H562.49V15H561.17ZM5.6 29C6.85333 29 7.9 29.42 8.74 30.26C9.58 31.1 10 32.1467 10 33.4C10 34.6533 9.58 35.7 8.74 36.54C7.9 37.38 6.85333 37.8 5.6 37.8H2V43H0.6V29H5.6ZM5.6 36.48C6.46667 36.48 7.18 36.1933 7.74 35.62C8.31333 35.0333 8.6 34.2933 8.6 33.4C8.6 32.5067 8.31333 31.7733 7.74 31.2C7.18 30.6133 6.46667 30.32 5.6 30.32H2V36.48H5.6ZM13.7216 34.66C14.3349 33.4467 15.3882 32.84 16.8816 32.84V34.12C15.9749 34.12 15.2216 34.3867 14.6216 34.92C14.0216 35.4533 13.7216 36.2933 13.7216 37.44V43H12.4016V33H13.7216V34.66ZM26.8652 41.74C25.8518 42.74 24.6118 43.24 23.1452 43.24C21.6785 43.24 20.4318 42.74 19.4052 41.74C18.3918 40.7267 17.8852 39.48 17.8852 38C17.8852 36.52 18.3918 35.28 19.4052 34.28C20.4318 33.2667 21.6785 32.76 23.1452 32.76C24.6118 32.76 25.8518 33.2667 26.8652 34.28C27.8918 35.28 28.4052 36.52 28.4052 38C28.4052 39.48 27.8918 40.7267 26.8652 41.74ZM20.3452 40.82C21.1052 41.58 22.0385 41.96 23.1452 41.96C24.2518 41.96 25.1852 41.58 25.9452 40.82C26.7052 40.0467 27.0852 39.1067 27.0852 38C27.0852 36.8933 26.7052 35.96 25.9452 35.2C25.1852 34.4267 24.2518 34.04 23.1452 34.04C22.0385 34.04 21.1052 34.4267 20.3452 35.2C19.5852 35.96 19.2052 36.8933 19.2052 38C19.2052 39.1067 19.5852 40.0467 20.3452 40.82ZM31.1811 29.24C31.3678 29.0533 31.5944 28.96 31.8611 28.96C32.1278 28.96 32.3544 29.0533 32.5411 29.24C32.7278 29.4267 32.8211 29.6533 32.8211 29.92C32.8211 30.1867 32.7278 30.4133 32.5411 30.6C32.3544 30.7867 32.1278 30.88 31.8611 30.88C31.5944 30.88 31.3678 30.7867 31.1811 30.6C30.9944 30.4133 30.9011 30.1867 30.9011 29.92C30.9011 29.6533 30.9944 29.4267 31.1811 29.24ZM31.2011 43.8V33H32.5211V43.8C32.5211 45 32.2078 45.9 31.5811 46.5C30.9544 47.1 30.0678 47.3467 28.9211 47.24V45.96C29.7078 46.04 30.2811 45.9133 30.6411 45.58C31.0144 45.2467 31.2011 44.6533 31.2011 43.8ZM40.3505 32.76C41.8305 32.76 43.0238 33.2867 43.9305 34.34C44.8505 35.38 45.3105 36.6133 45.3105 38.04C45.3105 38.1867 45.2971 38.3933 45.2705 38.66H36.4905C36.6238 39.6733 37.0505 40.48 37.7705 41.08C38.5038 41.6667 39.4038 41.96 40.4705 41.96C41.2305 41.96 41.8838 41.8067 42.4305 41.5C42.9905 41.18 43.4105 40.7667 43.6905 40.26L44.8505 40.94C44.4105 41.6467 43.8105 42.2067 43.0505 42.62C42.2905 43.0333 41.4238 43.24 40.4505 43.24C38.8771 43.24 37.5971 42.7467 36.6105 41.76C35.6238 40.7733 35.1305 39.52 35.1305 38C35.1305 36.5067 35.6171 35.26 36.5905 34.26C37.5638 33.26 38.8171 32.76 40.3505 32.76ZM40.3505 34.04C39.3105 34.04 38.4371 34.3533 37.7305 34.98C37.0371 35.5933 36.6238 36.3933 36.4905 37.38H43.9505C43.8171 36.3267 43.4105 35.5067 42.7305 34.92C42.0505 34.3333 41.2571 34.04 40.3505 34.04ZM52.4702 43.24C50.9635 43.24 49.7102 42.74 48.7102 41.74C47.7102 40.7267 47.2102 39.48 47.2102 38C47.2102 36.52 47.7102 35.28 48.7102 34.28C49.7102 33.2667 50.9635 32.76 52.4702 32.76C53.4568 32.76 54.3435 33 55.1302 33.48C55.9168 33.9467 56.4902 34.58 56.8502 35.38L55.7702 36C55.5035 35.4 55.0702 34.9267 54.4702 34.58C53.8835 34.22 53.2168 34.04 52.4702 34.04C51.3635 34.04 50.4302 34.4267 49.6702 35.2C48.9102 35.96 48.5302 36.8933 48.5302 38C48.5302 39.1067 48.9102 40.0467 49.6702 40.82C50.4302 41.58 51.3635 41.96 52.4702 41.96C53.2168 41.96 53.8835 41.7867 54.4702 41.44C55.0568 41.08 55.5168 40.6 55.8502 40L56.9502 40.64C56.5368 41.44 55.9302 42.0733 55.1302 42.54C54.3302 43.0067 53.4435 43.24 52.4702 43.24ZM64.5453 34.28H61.6653V40.34C61.6653 40.8867 61.772 41.28 61.9853 41.52C62.1986 41.7467 62.5186 41.8667 62.9453 41.88C63.372 41.88 63.9053 41.8667 64.5453 41.84V43C63.1453 43.2133 62.092 43.1133 61.3853 42.7C60.692 42.2867 60.3453 41.5 60.3453 40.34V34.28H58.2453V33H60.3453V30.6L61.6653 30.2V33H64.5453V34.28ZM67.5798 35.62C67.5798 36.0733 67.7798 36.4333 68.1798 36.7C68.5798 36.9667 69.0665 37.1733 69.6398 37.32C70.2132 37.4667 70.7865 37.6333 71.3598 37.82C71.9332 37.9933 72.4198 38.2933 72.8198 38.72C73.2198 39.1333 73.4198 39.68 73.4198 40.36C73.4198 41.2133 73.0798 41.9067 72.3998 42.44C71.7332 42.9733 70.8665 43.24 69.7998 43.24C68.8398 43.24 68.0198 43.0267 67.3398 42.6C66.6732 42.1733 66.2065 41.62 65.9398 40.94L67.0598 40.28C67.2465 40.8 67.5798 41.2133 68.0598 41.52C68.5532 41.8133 69.1332 41.96 69.7998 41.96C70.4532 41.96 70.9998 41.8333 71.4398 41.58C71.8798 41.3133 72.0998 40.9067 72.0998 40.36C72.0998 39.9067 71.8998 39.5467 71.4998 39.28C71.0998 39.0133 70.6132 38.8067 70.0398 38.66C69.4665 38.5133 68.8932 38.3533 68.3198 38.18C67.7465 37.9933 67.2598 37.6933 66.8598 37.28C66.4598 36.8533 66.2598 36.3 66.2598 35.62C66.2598 34.8067 66.5798 34.1267 67.2198 33.58C67.8732 33.0333 68.6932 32.76 69.6798 32.76C70.4932 32.76 71.2065 32.9467 71.8198 33.32C72.4332 33.68 72.8865 34.1733 73.1798 34.8L72.0798 35.44C71.6932 34.5067 70.8932 34.04 69.6798 34.04C69.1065 34.04 68.6132 34.18 68.1998 34.46C67.7865 34.7267 67.5798 35.1133 67.5798 35.62ZM86.4219 30.04C85.4485 29.96 84.7219 30.1267 84.2419 30.54C83.7752 30.9533 83.5419 31.64 83.5419 32.6V33H86.4219V34.28H83.5419V43H82.2219V34.28H80.5219V33H82.2219V32.6C82.2219 31.2933 82.5819 30.3067 83.3019 29.64C84.0352 28.96 85.0752 28.6667 86.4219 28.76V30.04ZM89.5481 34.66C90.1615 33.4467 91.2148 32.84 92.7081 32.84V34.12C91.8015 34.12 91.0481 34.3867 90.4481 34.92C89.8481 35.4533 89.5481 36.2933 89.5481 37.44V43H88.2281V33H89.5481V34.66ZM102.692 41.74C101.678 42.74 100.438 43.24 98.9717 43.24C97.5051 43.24 96.2584 42.74 95.2317 41.74C94.2184 40.7267 93.7117 39.48 93.7117 38C93.7117 36.52 94.2184 35.28 95.2317 34.28C96.2584 33.2667 97.5051 32.76 98.9717 32.76C100.438 32.76 101.678 33.2667 102.692 34.28C103.718 35.28 104.232 36.52 104.232 38C104.232 39.48 103.718 40.7267 102.692 41.74ZM96.1717 40.82C96.9317 41.58 97.8651 41.96 98.9717 41.96C100.078 41.96 101.012 41.58 101.772 40.82C102.532 40.0467 102.912 39.1067 102.912 38C102.912 36.8933 102.532 35.96 101.772 35.2C101.012 34.4267 100.078 34.04 98.9717 34.04C97.8651 34.04 96.9317 34.4267 96.1717 35.2C95.4117 35.96 95.0317 36.8933 95.0317 38C95.0317 39.1067 95.4117 40.0467 96.1717 40.82ZM117.501 32.76C118.621 32.76 119.521 33.12 120.201 33.84C120.894 34.56 121.241 35.5333 121.241 36.76V43H119.921V36.76C119.921 35.8933 119.694 35.2267 119.241 34.76C118.801 34.28 118.214 34.04 117.481 34.04C116.654 34.04 115.981 34.32 115.461 34.88C114.954 35.4267 114.701 36.2867 114.701 37.46V43H113.381V36.76C113.381 35.88 113.167 35.2067 112.741 34.74C112.327 34.2733 111.761 34.04 111.041 34.04C110.241 34.04 109.561 34.32 109.001 34.88C108.441 35.44 108.161 36.3 108.161 37.46V43H106.841V33H108.161V34.46C108.881 33.3267 109.901 32.76 111.221 32.76C112.661 32.76 113.674 33.3667 114.261 34.58C114.981 33.3667 116.061 32.76 117.501 32.76ZM131.194 41.68H137.594V43H129.794V29H131.194V41.68ZM143.911 32.76C145.391 32.76 146.584 33.2867 147.491 34.34C148.411 35.38 148.871 36.6133 148.871 38.04C148.871 38.1867 148.857 38.3933 148.831 38.66H140.051C140.184 39.6733 140.611 40.48 141.331 41.08C142.064 41.6667 142.964 41.96 144.031 41.96C144.791 41.96 145.444 41.8067 145.991 41.5C146.551 41.18 146.971 40.7667 147.251 40.26L148.411 40.94C147.971 41.6467 147.371 42.2067 146.611 42.62C145.851 43.0333 144.984 43.24 144.011 43.24C142.437 43.24 141.157 42.7467 140.171 41.76C139.184 40.7733 138.691 39.52 138.691 38C138.691 36.5067 139.177 35.26 140.151 34.26C141.124 33.26 142.377 32.76 143.911 32.76ZM143.911 34.04C142.871 34.04 141.997 34.3533 141.291 34.98C140.597 35.5933 140.184 36.3933 140.051 37.38H147.511C147.377 36.3267 146.971 35.5067 146.291 34.92C145.611 34.3333 144.817 34.04 143.911 34.04ZM159.97 33H161.29V43H159.97V41.04C159.05 42.5067 157.704 43.24 155.93 43.24C154.504 43.24 153.284 42.7333 152.27 41.72C151.27 40.7067 150.77 39.4667 150.77 38C150.77 36.5333 151.27 35.2933 152.27 34.28C153.284 33.2667 154.504 32.76 155.93 32.76C157.704 32.76 159.05 33.4933 159.97 34.96V33ZM153.23 40.82C153.99 41.58 154.924 41.96 156.03 41.96C157.137 41.96 158.07 41.58 158.83 40.82C159.59 40.0467 159.97 39.1067 159.97 38C159.97 36.8933 159.59 35.96 158.83 35.2C158.07 34.4267 157.137 34.04 156.03 34.04C154.924 34.04 153.99 34.4267 153.23 35.2C152.47 35.96 152.09 36.8933 152.09 38C152.09 39.1067 152.47 40.0467 153.23 40.82ZM173.085 29H174.405V43H173.085V41.04C172.165 42.5067 170.818 43.24 169.045 43.24C167.618 43.24 166.398 42.7333 165.385 41.72C164.385 40.7067 163.885 39.4667 163.885 38C163.885 36.5333 164.385 35.2933 165.385 34.28C166.398 33.2667 167.618 32.76 169.045 32.76C170.818 32.76 172.165 33.4933 173.085 34.96V29ZM166.345 40.82C167.105 41.58 168.038 41.96 169.145 41.96C170.252 41.96 171.185 41.58 171.945 40.82C172.705 40.0467 173.085 39.1067 173.085 38C173.085 36.8933 172.705 35.96 171.945 35.2C171.185 34.4267 170.252 34.04 169.145 34.04C168.038 34.04 167.105 34.4267 166.345 35.2C165.585 35.96 165.205 36.8933 165.205 38C165.205 39.1067 165.585 40.0467 166.345 40.82ZM178.94 30.6C178.753 30.7867 178.527 30.88 178.26 30.88C177.993 30.88 177.767 30.7867 177.58 30.6C177.393 30.4133 177.3 30.1867 177.3 29.92C177.3 29.6533 177.393 29.4267 177.58 29.24C177.767 29.0533 177.993 28.96 178.26 28.96C178.527 28.96 178.753 29.0533 178.94 29.24C179.127 29.4267 179.22 29.6533 179.22 29.92C179.22 30.1867 179.127 30.4133 178.94 30.6ZM177.6 43V33H178.92V43H177.6ZM186.801 32.76C188.014 32.76 188.968 33.1333 189.661 33.88C190.368 34.6133 190.721 35.6067 190.721 36.86V43H189.401V36.86C189.401 35.9667 189.161 35.2733 188.681 34.78C188.214 34.2867 187.548 34.04 186.681 34.04C185.721 34.04 184.941 34.3467 184.341 34.96C183.741 35.56 183.441 36.4933 183.441 37.76V43H182.121V33H183.441V34.56C184.188 33.36 185.308 32.76 186.801 32.76ZM202.273 33H203.593V42.6C203.593 44.04 203.1 45.1733 202.113 46C201.127 46.8267 199.947 47.24 198.573 47.24C196.227 47.24 194.647 46.4267 193.833 44.8L194.993 44.14C195.593 45.3533 196.787 45.96 198.573 45.96C199.72 45.96 200.62 45.6533 201.273 45.04C201.94 44.44 202.273 43.6267 202.273 42.6V41.04C201.353 42.5067 200.007 43.24 198.233 43.24C196.807 43.24 195.587 42.7333 194.573 41.72C193.573 40.7067 193.073 39.4667 193.073 38C193.073 36.5333 193.573 35.2933 194.573 34.28C195.587 33.2667 196.807 32.76 198.233 32.76C200.007 32.76 201.353 33.4933 202.273 34.96V33ZM195.533 40.82C196.293 41.58 197.227 41.96 198.333 41.96C199.44 41.96 200.373 41.58 201.133 40.82C201.893 40.0467 202.273 39.1067 202.273 38C202.273 36.8933 201.893 35.96 201.133 35.2C200.373 34.4267 199.44 34.04 198.333 34.04C197.227 34.04 196.293 34.4267 195.533 35.2C194.773 35.96 194.393 36.8933 194.393 38C194.393 39.1067 194.773 40.0467 195.533 40.82ZM218.928 43.24C216.808 43.24 215.055 42.54 213.668 41.14C212.282 39.74 211.588 38.0267 211.588 36C211.588 33.9733 212.282 32.26 213.668 30.86C215.055 29.46 216.808 28.76 218.928 28.76C220.222 28.76 221.408 29.0733 222.488 29.7C223.568 30.3133 224.402 31.1467 224.988 32.2L223.748 32.92C223.308 32.0667 222.655 31.3867 221.788 30.88C220.922 30.3733 219.968 30.12 218.928 30.12C217.182 30.12 215.755 30.6867 214.648 31.82C213.542 32.9533 212.988 34.3467 212.988 36C212.988 37.6533 213.542 39.0467 214.648 40.18C215.755 41.3133 217.182 41.88 218.928 41.88C219.968 41.88 220.922 41.6267 221.788 41.12C222.655 40.6133 223.308 39.9333 223.748 39.08L224.988 39.78C224.415 40.8333 223.582 41.6733 222.488 42.3C221.408 42.9267 220.222 43.24 218.928 43.24ZM235.773 41.74C234.76 42.74 233.52 43.24 232.053 43.24C230.586 43.24 229.34 42.74 228.313 41.74C227.3 40.7267 226.793 39.48 226.793 38C226.793 36.52 227.3 35.28 228.313 34.28C229.34 33.2667 230.586 32.76 232.053 32.76C233.52 32.76 234.76 33.2667 235.773 34.28C236.8 35.28 237.313 36.52 237.313 38C237.313 39.48 236.8 40.7267 235.773 41.74ZM229.253 40.82C230.013 41.58 230.946 41.96 232.053 41.96C233.16 41.96 234.093 41.58 234.853 40.82C235.613 40.0467 235.993 39.1067 235.993 38C235.993 36.8933 235.613 35.96 234.853 35.2C234.093 34.4267 233.16 34.04 232.053 34.04C230.946 34.04 230.013 34.4267 229.253 35.2C228.493 35.96 228.113 36.8933 228.113 38C228.113 39.1067 228.493 40.0467 229.253 40.82ZM250.582 32.76C251.702 32.76 252.602 33.12 253.282 33.84C253.975 34.56 254.322 35.5333 254.322 36.76V43H253.002V36.76C253.002 35.8933 252.775 35.2267 252.322 34.76C251.882 34.28 251.295 34.04 250.562 34.04C249.735 34.04 249.062 34.32 248.542 34.88C248.035 35.4267 247.782 36.2867 247.782 37.46V43H246.462V36.76C246.462 35.88 246.249 35.2067 245.822 34.74C245.409 34.2733 244.842 34.04 244.122 34.04C243.322 34.04 242.642 34.32 242.082 34.88C241.522 35.44 241.242 36.3 241.242 37.46V43H239.922V33H241.242V34.46C241.962 33.3267 242.982 32.76 244.302 32.76C245.742 32.76 246.755 33.3667 247.342 34.58C248.062 33.3667 249.142 32.76 250.582 32.76ZM262.635 32.76C264.062 32.76 265.275 33.2667 266.275 34.28C267.288 35.2933 267.795 36.5333 267.795 38C267.795 39.4667 267.288 40.7067 266.275 41.72C265.275 42.7333 264.062 43.24 262.635 43.24C260.862 43.24 259.515 42.5067 258.595 41.04V47H257.275V33H258.595V34.96C259.515 33.4933 260.862 32.76 262.635 32.76ZM259.735 40.82C260.495 41.58 261.428 41.96 262.535 41.96C263.642 41.96 264.575 41.58 265.335 40.82C266.095 40.0467 266.475 39.1067 266.475 38C266.475 36.8933 266.095 35.96 265.335 35.2C264.575 34.4267 263.642 34.04 262.535 34.04C261.428 34.04 260.495 34.4267 259.735 35.2C258.975 35.96 258.595 36.8933 258.595 38C258.595 39.1067 258.975 40.0467 259.735 40.82ZM278.99 33H280.31V43H278.99V41.04C278.07 42.5067 276.723 43.24 274.95 43.24C273.523 43.24 272.303 42.7333 271.29 41.72C270.29 40.7067 269.79 39.4667 269.79 38C269.79 36.5333 270.29 35.2933 271.29 34.28C272.303 33.2667 273.523 32.76 274.95 32.76C276.723 32.76 278.07 33.4933 278.99 34.96V33ZM272.25 40.82C273.01 41.58 273.943 41.96 275.05 41.96C276.157 41.96 277.09 41.58 277.85 40.82C278.61 40.0467 278.99 39.1067 278.99 38C278.99 36.8933 278.61 35.96 277.85 35.2C277.09 34.4267 276.157 34.04 275.05 34.04C273.943 34.04 273.01 34.4267 272.25 35.2C271.49 35.96 271.11 36.8933 271.11 38C271.11 39.1067 271.49 40.0467 272.25 40.82ZM288.185 32.76C289.398 32.76 290.351 33.1333 291.045 33.88C291.751 34.6133 292.105 35.6067 292.105 36.86V43H290.785V36.86C290.785 35.9667 290.545 35.2733 290.065 34.78C289.598 34.2867 288.931 34.04 288.065 34.04C287.105 34.04 286.325 34.3467 285.725 34.96C285.125 35.56 284.825 36.4933 284.825 37.76V43H283.505V33H284.825V34.56C285.571 33.36 286.691 32.76 288.185 32.76ZM296.397 30.6C296.21 30.7867 295.984 30.88 295.717 30.88C295.45 30.88 295.224 30.7867 295.037 30.6C294.85 30.4133 294.757 30.1867 294.757 29.92C294.757 29.6533 294.85 29.4267 295.037 29.24C295.224 29.0533 295.45 28.96 295.717 28.96C295.984 28.96 296.21 29.0533 296.397 29.24C296.584 29.4267 296.677 29.6533 296.677 29.92C296.677 30.1867 296.584 30.4133 296.397 30.6ZM295.057 43V33H296.377V43H295.057ZM304.198 32.76C305.678 32.76 306.871 33.2867 307.778 34.34C308.698 35.38 309.158 36.6133 309.158 38.04C309.158 38.1867 309.145 38.3933 309.118 38.66H300.338C300.471 39.6733 300.898 40.48 301.618 41.08C302.351 41.6667 303.251 41.96 304.318 41.96C305.078 41.96 305.731 41.8067 306.278 41.5C306.838 41.18 307.258 40.7667 307.538 40.26L308.698 40.94C308.258 41.6467 307.658 42.2067 306.898 42.62C306.138 43.0333 305.271 43.24 304.298 43.24C302.725 43.24 301.445 42.7467 300.458 41.76C299.471 40.7733 298.978 39.52 298.978 38C298.978 36.5067 299.465 35.26 300.438 34.26C301.411 33.26 302.665 32.76 304.198 32.76ZM304.198 34.04C303.158 34.04 302.285 34.3533 301.578 34.98C300.885 35.5933 300.471 36.3933 300.338 37.38H307.798C307.665 36.3267 307.258 35.5067 306.578 34.92C305.898 34.3333 305.105 34.04 304.198 34.04ZM312.307 35.62C312.307 36.0733 312.507 36.4333 312.907 36.7C313.307 36.9667 313.794 37.1733 314.367 37.32C314.941 37.4667 315.514 37.6333 316.087 37.82C316.661 37.9933 317.147 38.2933 317.547 38.72C317.947 39.1333 318.147 39.68 318.147 40.36C318.147 41.2133 317.807 41.9067 317.127 42.44C316.461 42.9733 315.594 43.24 314.527 43.24C313.567 43.24 312.747 43.0267 312.067 42.6C311.401 42.1733 310.934 41.62 310.667 40.94L311.787 40.28C311.974 40.8 312.307 41.2133 312.787 41.52C313.281 41.8133 313.861 41.96 314.527 41.96C315.181 41.96 315.727 41.8333 316.167 41.58C316.607 41.3133 316.827 40.9067 316.827 40.36C316.827 39.9067 316.627 39.5467 316.227 39.28C315.827 39.0133 315.341 38.8067 314.767 38.66C314.194 38.5133 313.621 38.3533 313.047 38.18C312.474 37.9933 311.987 37.6933 311.587 37.28C311.187 36.8533 310.987 36.3 310.987 35.62C310.987 34.8067 311.307 34.1267 311.947 33.58C312.601 33.0333 313.421 32.76 314.407 32.76C315.221 32.76 315.934 32.9467 316.547 33.32C317.161 33.68 317.614 34.1733 317.907 34.8L316.807 35.44C316.421 34.5067 315.621 34.04 314.407 34.04C313.834 34.04 313.341 34.18 312.927 34.46C312.514 34.7267 312.307 35.1133 312.307 35.62Z" fill="#F8FAFC"/>
</svg>
