<svg width="256" height="15" viewBox="0 0 256 15" fill="none" xmlns="http://www.w3.org/2000/svg">
<path d="M1.688 10.592H6.52V12H0.2V0.799999H1.688V10.592ZM8.8925 2.544C8.62583 2.544 8.40183 2.45333 8.2205 2.272C8.03917 2.09067 7.9485 1.872 7.9485 1.616C7.9485 1.36 8.03917 1.14133 8.2205 0.959999C8.40183 0.768 8.62583 0.672 8.8925 0.672C9.1485 0.672 9.36717 0.768 9.5485 0.959999C9.72983 1.14133 9.8205 1.36 9.8205 1.616C9.8205 1.872 9.72983 2.09067 9.5485 2.272C9.36717 2.45333 9.1485 2.544 8.8925 2.544ZM8.1885 12V4H9.5805V12H8.1885ZM17.6241 4H19.1281L15.9281 12H14.2961L11.0961 4H12.6001L15.1121 10.512L17.6241 4ZM21.2889 8.64C21.4275 9.35467 21.7529 9.90933 22.2649 10.304C22.7875 10.6987 23.4275 10.896 24.1849 10.896C25.2409 10.896 26.0089 10.5067 26.4889 9.728L27.6729 10.4C26.8942 11.6053 25.7209 12.208 24.1529 12.208C22.8835 12.208 21.8489 11.8133 21.0489 11.024C20.2595 10.224 19.8649 9.216 19.8649 8C19.8649 6.79467 20.2542 5.792 21.0329 4.992C21.8115 4.192 22.8195 3.792 24.0569 3.792C25.2302 3.792 26.1849 4.208 26.9209 5.04C27.6675 5.86133 28.0409 6.85333 28.0409 8.016C28.0409 8.21867 28.0249 8.42667 27.9929 8.64H21.2889ZM24.0569 5.104C23.3102 5.104 22.6915 5.31733 22.2009 5.744C21.7102 6.16 21.4062 6.72 21.2889 7.424H26.6329C26.5155 6.66667 26.2169 6.09067 25.7369 5.696C25.2569 5.30133 24.6969 5.104 24.0569 5.104ZM38.633 5.344H36.505V9.68C36.505 10.0747 36.5797 10.3573 36.729 10.528C36.889 10.688 37.129 10.7733 37.449 10.784C37.769 10.784 38.1637 10.7733 38.633 10.752V12C37.417 12.16 36.5263 12.064 35.961 11.712C35.3957 11.3493 35.113 10.672 35.113 9.68V5.344H33.529V4H35.113V2.176L36.505 1.76V4H38.633V5.344ZM44.585 3.792C45.5237 3.792 46.2757 4.09067 46.841 4.688C47.4063 5.27467 47.689 6.07467 47.689 7.088V12H46.297V7.168C46.297 6.51733 46.121 6.016 45.769 5.664C45.417 5.30133 44.9317 5.12 44.313 5.12C43.6197 5.12 43.0597 5.33867 42.633 5.776C42.2063 6.20267 41.993 6.864 41.993 7.76V12H40.601V0.799999H41.993V5.152C42.5583 4.24533 43.4223 3.792 44.585 3.792ZM50.9283 8.64C51.0669 9.35467 51.3923 9.90933 51.9043 10.304C52.4269 10.6987 53.0669 10.896 53.8243 10.896C54.8803 10.896 55.6483 10.5067 56.1283 9.728L57.3123 10.4C56.5336 11.6053 55.3603 12.208 53.7923 12.208C52.5229 12.208 51.4883 11.8133 50.6883 11.024C49.8989 10.224 49.5043 9.216 49.5043 8C49.5043 6.79467 49.8936 5.792 50.6723 4.992C51.4509 4.192 52.4589 3.792 53.6963 3.792C54.8696 3.792 55.8243 4.208 56.5603 5.04C57.3069 5.86133 57.6803 6.85333 57.6803 8.016C57.6803 8.21867 57.6643 8.42667 57.6323 8.64H50.9283ZM53.6963 5.104C52.9496 5.104 52.3309 5.31733 51.8403 5.744C51.3496 6.16 51.0456 6.72 50.9283 7.424H56.2723C56.1549 6.66667 55.8563 6.09067 55.3763 5.696C54.8963 5.30133 54.3363 5.104 53.6963 5.104ZM69.3284 12.208C67.6324 12.208 66.2297 11.648 65.1204 10.528C64.0217 9.408 63.4724 8.032 63.4724 6.4C63.4724 4.768 64.0217 3.392 65.1204 2.272C66.2297 1.152 67.6324 0.591999 69.3284 0.591999C70.3524 0.591999 71.291 0.837332 72.1444 1.328C73.0084 1.81867 73.6804 2.48 74.1604 3.312L72.8644 4.064C72.5444 3.44533 72.0644 2.95467 71.4244 2.592C70.795 2.21867 70.0964 2.032 69.3284 2.032C68.0377 2.032 66.9817 2.448 66.1604 3.28C65.3497 4.112 64.9444 5.152 64.9444 6.4C64.9444 7.63733 65.3497 8.672 66.1604 9.504C66.9817 10.336 68.0377 10.752 69.3284 10.752C70.0964 10.752 70.795 10.5707 71.4244 10.208C72.0644 9.83467 72.5444 9.344 72.8644 8.736L74.1604 9.472C73.691 10.304 73.0244 10.9707 72.1604 11.472C71.2964 11.9627 70.3524 12.208 69.3284 12.208ZM82.7424 10.992C81.921 11.8027 80.9237 12.208 79.7504 12.208C78.577 12.208 77.5797 11.8027 76.7584 10.992C75.9477 10.1813 75.5424 9.184 75.5424 8C75.5424 6.816 75.9477 5.81867 76.7584 5.008C77.5797 4.19733 78.577 3.792 79.7504 3.792C80.9237 3.792 81.921 4.19733 82.7424 5.008C83.5637 5.81867 83.9744 6.816 83.9744 8C83.9744 9.184 83.5637 10.1813 82.7424 10.992ZM79.7504 10.848C80.5504 10.848 81.2224 10.576 81.7664 10.032C82.3104 9.488 82.5824 8.81067 82.5824 8C82.5824 7.18933 82.3104 6.512 81.7664 5.968C81.2224 5.424 80.5504 5.152 79.7504 5.152C78.961 5.152 78.2944 5.424 77.7504 5.968C77.2064 6.512 76.9344 7.18933 76.9344 8C76.9344 8.81067 77.2064 9.488 77.7504 10.032C78.2944 10.576 78.961 10.848 79.7504 10.848ZM92.5594 0.799999H93.9514V12H92.5594V10.624C91.866 11.68 90.858 12.208 89.5354 12.208C88.4154 12.208 87.4607 11.8027 86.6714 10.992C85.882 10.1707 85.4874 9.17333 85.4874 8C85.4874 6.82667 85.882 5.83467 86.6714 5.024C87.4607 4.20267 88.4154 3.792 89.5354 3.792C90.858 3.792 91.866 4.32 92.5594 5.376V0.799999ZM89.7114 10.864C90.522 10.864 91.1994 10.592 91.7434 10.048C92.2874 9.49333 92.5594 8.81067 92.5594 8C92.5594 7.18933 92.2874 6.512 91.7434 5.968C91.1994 5.41333 90.522 5.136 89.7114 5.136C88.9114 5.136 88.2394 5.41333 87.6954 5.968C87.1514 6.512 86.8794 7.18933 86.8794 8C86.8794 8.81067 87.1514 9.49333 87.6954 10.048C88.2394 10.592 88.9114 10.864 89.7114 10.864ZM97.3564 8.64C97.495 9.35467 97.8204 9.90933 98.3324 10.304C98.855 10.6987 99.495 10.896 100.252 10.896C101.308 10.896 102.076 10.5067 102.556 9.728L103.74 10.4C102.962 11.6053 101.788 12.208 100.22 12.208C98.951 12.208 97.9164 11.8133 97.1164 11.024C96.327 10.224 95.9324 9.216 95.9324 8C95.9324 6.79467 96.3217 5.792 97.1004 4.992C97.879 4.192 98.887 3.792 100.124 3.792C101.298 3.792 102.252 4.208 102.988 5.04C103.735 5.86133 104.108 6.85333 104.108 8.016C104.108 8.21867 104.092 8.42667 104.06 8.64H97.3564ZM100.124 5.104C99.3777 5.104 98.759 5.31733 98.2684 5.744C97.7777 6.16 97.4737 6.72 97.3564 7.424H102.7C102.583 6.66667 102.284 6.09067 101.804 5.696C101.324 5.30133 100.764 5.104 100.124 5.104ZM107.468 10.352L106.428 14.24H105.228L105.868 10.352H107.468ZM118.587 0.799999C120.112 0.799999 121.376 1.344 122.379 2.432C123.392 3.50933 123.899 4.832 123.899 6.4C123.899 7.968 123.392 9.296 122.379 10.384C121.376 11.4613 120.112 12 118.587 12H114.219V0.799999H118.587ZM118.587 10.592C119.728 10.592 120.661 10.192 121.387 9.392C122.112 8.592 122.475 7.59467 122.475 6.4C122.475 5.20533 122.112 4.208 121.387 3.408C120.661 2.608 119.728 2.208 118.587 2.208H115.707V10.592H118.587ZM132.631 10.992C131.81 11.8027 130.812 12.208 129.639 12.208C128.466 12.208 127.468 11.8027 126.647 10.992C125.836 10.1813 125.431 9.184 125.431 8C125.431 6.816 125.836 5.81867 126.647 5.008C127.468 4.19733 128.466 3.792 129.639 3.792C130.812 3.792 131.81 4.19733 132.631 5.008C133.452 5.81867 133.863 6.816 133.863 8C133.863 9.184 133.452 10.1813 132.631 10.992ZM129.639 10.848C130.439 10.848 131.111 10.576 131.655 10.032C132.199 9.488 132.471 8.81067 132.471 8C132.471 7.18933 132.199 6.512 131.655 5.968C131.111 5.424 130.439 5.152 129.639 5.152C128.85 5.152 128.183 5.424 127.639 5.968C127.095 6.512 126.823 7.18933 126.823 8C126.823 8.81067 127.095 9.488 127.639 10.032C128.183 10.576 128.85 10.848 129.639 10.848ZM139.808 3.792C140.747 3.792 141.499 4.09067 142.064 4.688C142.629 5.27467 142.912 6.07467 142.912 7.088V12H141.52V7.168C141.52 6.51733 141.344 6.016 140.992 5.664C140.64 5.30133 140.155 5.12 139.536 5.12C138.843 5.12 138.283 5.33867 137.856 5.776C137.429 6.20267 137.216 6.864 137.216 7.76V12H135.824V4H137.216V5.152C137.781 4.24533 138.645 3.792 139.808 3.792ZM146.443 0.783999L145.403 4.672H144.203L144.843 0.783999H146.443ZM153.082 5.344H150.954V9.68C150.954 10.0747 151.028 10.3573 151.178 10.528C151.338 10.688 151.578 10.7733 151.898 10.784C152.218 10.784 152.612 10.7733 153.082 10.752V12C151.866 12.16 150.975 12.064 150.41 11.712C149.844 11.3493 149.562 10.672 149.562 9.68V5.344H147.978V4H149.562V2.176L150.954 1.76V4H153.082V5.344ZM162.473 12.208C161.662 12.208 160.947 12.0373 160.329 11.696C159.71 11.3547 159.257 10.8587 158.969 10.208L160.233 9.472C160.563 10.3253 161.31 10.752 162.473 10.752C163.187 10.752 163.747 10.5813 164.153 10.24C164.558 9.89867 164.761 9.392 164.761 8.72V0.799999H166.233V8.72C166.233 9.84 165.875 10.704 165.161 11.312C164.457 11.9093 163.561 12.208 162.473 12.208ZM174.178 4H175.57V12H174.178V10.848C173.613 11.7547 172.749 12.208 171.586 12.208C170.648 12.208 169.896 11.9147 169.33 11.328C168.765 10.7307 168.482 9.92533 168.482 8.912V4H169.874V8.832C169.874 9.48267 170.05 9.98933 170.402 10.352C170.754 10.704 171.24 10.88 171.858 10.88C172.552 10.88 173.112 10.6667 173.538 10.24C173.965 9.80267 174.178 9.136 174.178 8.24V4ZM179.194 6.16C179.194 6.46933 179.349 6.72 179.658 6.912C179.967 7.09333 180.341 7.24267 180.778 7.36C181.215 7.46667 181.653 7.59467 182.09 7.744C182.527 7.88267 182.901 8.128 183.21 8.48C183.519 8.82133 183.674 9.264 183.674 9.808C183.674 10.5333 183.391 11.1147 182.826 11.552C182.271 11.9893 181.557 12.208 180.682 12.208C179.903 12.208 179.237 12.0373 178.682 11.696C178.127 11.3547 177.733 10.9013 177.498 10.336L178.698 9.648C178.826 10.032 179.066 10.336 179.418 10.56C179.77 10.784 180.191 10.896 180.682 10.896C181.141 10.896 181.519 10.8107 181.818 10.64C182.117 10.4587 182.266 10.1813 182.266 9.808C182.266 9.49867 182.111 9.25333 181.802 9.072C181.493 8.88 181.119 8.73067 180.682 8.624C180.245 8.50667 179.807 8.37333 179.37 8.224C178.933 8.07467 178.559 7.82933 178.25 7.488C177.941 7.14667 177.786 6.70933 177.786 6.176C177.786 5.48267 178.053 4.912 178.586 4.464C179.13 4.016 179.807 3.792 180.618 3.792C181.269 3.792 181.845 3.94133 182.346 4.24C182.858 4.528 183.242 4.93333 183.498 5.456L182.33 6.112C182.042 5.42933 181.471 5.088 180.618 5.088C180.223 5.088 179.887 5.184 179.61 5.376C179.333 5.55733 179.194 5.81867 179.194 6.16ZM189.682 5.344H187.554V9.68C187.554 10.0747 187.628 10.3573 187.778 10.528C187.938 10.688 188.178 10.7733 188.498 10.784C188.818 10.784 189.212 10.7733 189.682 10.752V12C188.466 12.16 187.575 12.064 187.01 11.712C186.444 11.3493 186.162 10.672 186.162 9.68V5.344H184.578V4H186.162V2.176L187.554 1.76V4H189.682V5.344ZM197.649 10.592H202.481V12H196.161V0.799999H197.649V10.592ZM204.813 8.64C204.951 9.35467 205.277 9.90933 205.789 10.304C206.311 10.6987 206.951 10.896 207.709 10.896C208.765 10.896 209.533 10.5067 210.013 9.728L211.197 10.4C210.418 11.6053 209.245 12.208 207.677 12.208C206.407 12.208 205.373 11.8133 204.573 11.024C203.783 10.224 203.389 9.216 203.389 8C203.389 6.79467 203.778 5.792 204.557 4.992C205.335 4.192 206.343 3.792 207.581 3.792C208.754 3.792 209.709 4.208 210.445 5.04C211.191 5.86133 211.565 6.85333 211.565 8.016C211.565 8.21867 211.549 8.42667 211.517 8.64H204.813ZM207.581 5.104C206.834 5.104 206.215 5.31733 205.725 5.744C205.234 6.16 204.93 6.72 204.813 7.424H210.157C210.039 6.66667 209.741 6.09067 209.261 5.696C208.781 5.30133 208.221 5.104 207.581 5.104ZM220.093 4H221.485V12H220.093V10.624C219.4 11.68 218.392 12.208 217.069 12.208C215.949 12.208 214.994 11.8027 214.205 10.992C213.416 10.1707 213.021 9.17333 213.021 8C213.021 6.82667 213.416 5.83467 214.205 5.024C214.994 4.20267 215.949 3.792 217.069 3.792C218.392 3.792 219.4 4.32 220.093 5.376V4ZM217.245 10.864C218.056 10.864 218.733 10.592 219.277 10.048C219.821 9.49333 220.093 8.81067 220.093 8C220.093 7.18933 219.821 6.512 219.277 5.968C218.733 5.41333 218.056 5.136 217.245 5.136C216.445 5.136 215.773 5.41333 215.229 5.968C214.685 6.512 214.413 7.18933 214.413 8C214.413 8.81067 214.685 9.49333 215.229 10.048C215.773 10.592 216.445 10.864 217.245 10.864ZM225.306 5.344C225.765 4.352 226.597 3.856 227.802 3.856V5.312C227.119 5.28 226.533 5.46133 226.042 5.856C225.551 6.25067 225.306 6.88533 225.306 7.76V12H223.914V4H225.306V5.344ZM233.468 3.792C234.407 3.792 235.159 4.09067 235.724 4.688C236.289 5.27467 236.572 6.07467 236.572 7.088V12H235.18V7.168C235.18 6.51733 235.004 6.016 234.652 5.664C234.3 5.30133 233.815 5.12 233.196 5.12C232.503 5.12 231.943 5.33867 231.516 5.776C231.089 6.20267 230.876 6.864 230.876 7.76V12H229.484V4H230.876V5.152C231.441 4.24533 232.305 3.792 233.468 3.792ZM243.299 0.799999H244.787V12H243.299V0.799999ZM251.718 5.344H249.59V9.68C249.59 10.0747 249.665 10.3573 249.814 10.528C249.974 10.688 250.214 10.7733 250.534 10.784C250.854 10.784 251.249 10.7733 251.718 10.752V12C250.502 12.16 249.611 12.064 249.046 11.712C248.481 11.3493 248.198 10.672 248.198 9.68V5.344H246.614V4H248.198V2.176L249.59 1.76V4H251.718V5.344ZM254.085 8.72L253.781 4V0.799999H255.461V4L255.157 8.72H254.085ZM254.613 12.176C254.325 12.176 254.08 12.0747 253.877 11.872C253.674 11.6693 253.573 11.424 253.573 11.136C253.573 10.848 253.674 10.6027 253.877 10.4C254.08 10.1973 254.325 10.096 254.613 10.096C254.912 10.096 255.157 10.1973 255.349 10.4C255.552 10.6027 255.653 10.848 255.653 11.136C255.653 11.424 255.552 11.6693 255.349 11.872C255.157 12.0747 254.912 12.176 254.613 12.176Z" fill="#F8FAFC"/>
</svg>
