<svg width="22" height="24" viewBox="0 0 22 24" fill="none" xmlns="http://www.w3.org/2000/svg">
<mask id="mask0_1_3345" style="mask-type:alpha" maskUnits="userSpaceOnUse" x="0" y="0" width="22" height="24">
<path d="M9.80248 0.511993C10.3393 0.196003 11.0053 0.196003 11.5421 0.511993L20.4997 5.78467C21.0232 6.09281 21.3446 6.65492 21.3446 7.26237V16.7375C21.3446 17.3449 21.0232 17.9071 20.4997 18.2152L11.5421 23.4879C11.0053 23.8039 10.3393 23.8039 9.80248 23.4879L0.844878 18.2152C0.321388 17.9071 0 17.3449 0 16.7375V7.26237C0 6.65492 0.321388 6.09281 0.844878 5.78467L9.80248 0.511993Z" fill="#C4C4C4"/>
</mask>
<g mask="url(#mask0_1_3345)">
<rect x="4.57251" y="11.4219" width="1.9143" height="11.1398" fill="#3940A0"/>
<mask id="mask1_1_3345" style="mask-type:alpha" maskUnits="userSpaceOnUse" x="7" y="7" width="4" height="3">
<rect x="10.8893" y="7.21973" width="1.80493" height="3.8286" transform="rotate(90 10.8893 7.21973)" fill="#CD6767"/>
</mask>
<g mask="url(#mask1_1_3345)">
<path d="M7.06068 9.02465C7.06068 8.78763 7.1102 8.55292 7.2064 8.33394C7.3026 8.11495 7.44361 7.91598 7.62137 7.74838C7.79913 7.58077 8.01016 7.44782 8.24241 7.35712C8.47467 7.26641 8.72359 7.21973 8.97498 7.21973L8.97498 9.02465L7.06068 9.02465Z" fill="#3940A0"/>
</g>
<mask id="mask2_1_3345" style="mask-type:alpha" maskUnits="userSpaceOnUse" x="10" y="7" width="5" height="3">
<rect x="14.2917" y="7.21973" width="1.80493" height="3.8286" rx="0.107168" transform="rotate(90 14.2917 7.21973)" fill="#CD6767"/>
</mask>
<g mask="url(#mask2_1_3345)">
<path d="M10.5703 9.02465C10.5111 9.02465 10.4628 8.97661 10.4665 8.91754C10.4942 8.47791 10.6917 8.06153 11.0238 7.74838C11.3828 7.40989 11.8697 7.21973 12.3774 7.21973C12.8852 7.21973 13.3721 7.40989 13.7311 7.74838C14.0632 8.06153 14.2607 8.47791 14.2884 8.91754C14.2921 8.97661 14.2438 9.02465 14.1846 9.02465L12.3774 9.02465L10.5703 9.02465Z" fill="#3940A0"/>
</g>
<path d="M11.7333 13.9033C11.7925 13.9033 11.8405 13.9513 11.8405 14.0105L11.8405 15.6011C11.8405 15.6603 11.7925 15.7082 11.7333 15.7082L6.4864 15.7082L6.4864 13.9033L11.7333 13.9033Z" fill="#3940A0"/>
<path d="M14.2988 16.2441L12.3845 16.2441L12.3845 12.0082C12.3845 11.949 12.4325 11.901 12.4917 11.901L14.1917 11.901C14.2508 11.901 14.2988 11.949 14.2988 12.0082L14.2988 16.2441Z" fill="#3940A0"/>
<path d="M7.05627 9.02441L8.97057 9.02441L8.97057 13.2603C8.97057 13.3195 8.92259 13.3675 8.86341 13.3675L7.16344 13.3675C7.10426 13.3675 7.05628 13.3195 7.05628 13.2603L7.05627 9.02441Z" fill="#3940A0"/>
<path d="M14.8622 9.56055L14.8622 11.3655L9.64521 11.3655C9.58602 11.3655 9.53804 11.3175 9.53804 11.2583L9.53804 9.66771C9.53804 9.60853 9.58602 9.56055 9.64521 9.56055L14.8622 9.56055Z" fill="#3940A0"/>
<path d="M12.3845 16.2441L12.3845 18.0491L7.06038 18.0491L7.06038 16.3513C7.06038 16.2921 7.10836 16.2441 7.16754 16.2441L12.3845 16.2441Z" fill="#3940A0"/>
<rect x="12.3544" y="7.21973" width="1.80493" height="3.37994" transform="rotate(90 12.3544 7.21973)" fill="#3940A0"/>
<mask id="mask3_1_3345" style="mask-type:alpha" maskUnits="userSpaceOnUse" x="14" y="9" width="3" height="5">
<rect x="16.7731" y="13.1709" width="1.9143" height="3.60985" transform="rotate(-180 16.7731 13.1709)" fill="#CD6767"/>
</mask>
<g mask="url(#mask3_1_3345)">
<path d="M14.8588 9.56105C15.3665 9.56105 15.8534 9.75121 16.2124 10.0897C16.5714 10.4282 16.7731 10.8873 16.7731 11.366L14.8588 11.366L14.8588 9.56105Z" fill="#3940A0"/>
</g>
<mask id="mask4_1_3345" style="mask-type:alpha" maskUnits="userSpaceOnUse" x="14" y="12" width="3" height="5">
<rect x="16.7783" y="16.3867" width="1.9143" height="3.60985" rx="0.107168" transform="rotate(-180 16.7783 16.3867)" fill="#CD6767"/>
</mask>
<g mask="url(#mask4_1_3345)">
<path d="M14.864 12.884C14.864 12.8248 14.912 12.7766 14.9712 12.7797C15.4398 12.8044 15.884 12.9909 16.2176 13.3055C16.5766 13.644 16.7783 14.1031 16.7783 14.5818C16.7783 15.0605 16.5766 15.5196 16.2176 15.8581C15.884 16.1727 15.4398 16.3591 14.9712 16.3839C14.912 16.387 14.864 16.3387 14.864 16.2796L14.864 14.5818L14.864 12.884Z" fill="#3940A0"/>
</g>
<rect x="16.7783" y="14.5811" width="1.9143" height="3.21502" transform="rotate(-180 16.7783 14.5811)" fill="#3940A0"/>
<path d="M7.06104 18.0488H8.97533V23.6949C8.97533 23.754 8.92735 23.802 8.86817 23.802H7.1682C7.10902 23.802 7.06104 23.754 7.06104 23.6949L7.06104 18.0488Z" fill="#3940A0"/>
<mask id="mask5_1_3345" style="mask-type:alpha" maskUnits="userSpaceOnUse" x="4" y="9" width="3" height="5">
<rect x="4.57251" y="9.61719" width="1.9143" height="3.60985" rx="0.107168" fill="#CD6767"/>
</mask>
<g mask="url(#mask5_1_3345)">
<ellipse cx="6.48681" cy="11.4221" rx="1.9143" ry="1.80493" fill="#3940A0"/>
</g>
<mask id="mask6_1_3345" style="mask-type:alpha" maskUnits="userSpaceOnUse" x="12" y="16" width="3" height="3">
<rect x="12.3845" y="18.0488" width="1.80493" height="1.9143" transform="rotate(-90 12.3845 18.0488)" fill="#CD6767"/>
</mask>
<g mask="url(#mask6_1_3345)">
<path d="M14.2915 16.2439C14.2915 16.4809 14.242 16.7156 14.1458 16.9346C14.0496 17.1536 13.9086 17.3526 13.7308 17.5202C13.553 17.6878 13.342 17.8207 13.1098 17.9114C12.8775 18.0021 12.6286 18.0488 12.3772 18.0488L12.3772 16.2439L14.2915 16.2439Z" fill="#3940A0"/>
</g>
</g>
</svg>
