<svg width="84" height="9" viewBox="0 0 84 9" fill="none" xmlns="http://www.w3.org/2000/svg">
<path d="M6.55 7.08C5.85 7.78 4.99333 8.13 3.98 8.13C2.96667 8.13 2.10667 7.78 1.4 7.08C0.7 6.37333 0.35 5.51333 0.35 4.5C0.35 3.48667 0.7 2.63 1.4 1.93C2.10667 1.22333 2.96667 0.869999 3.98 0.869999C4.99333 0.869999 5.85 1.22333 6.55 1.93C7.25667 2.63 7.61 3.48667 7.61 4.5C7.61 5.51333 7.25667 6.37333 6.55 7.08ZM2.21 6.3C2.69 6.77333 3.28 7.01 3.98 7.01C4.68 7.01 5.26667 6.77333 5.74 6.3C6.22 5.82 6.46 5.22 6.46 4.5C6.46 3.78 6.22 3.18333 5.74 2.71C5.26667 2.23 4.68 1.99 3.98 1.99C3.28 1.99 2.69 2.23 2.21 2.71C1.73667 3.18333 1.5 3.78 1.5 4.5C1.5 5.22 1.73667 5.82 2.21 6.3ZM14.159 0.77C14.6323 0.77 15.1523 0.83 15.719 0.95V8H14.639V1.73C14.5323 1.72333 14.3723 1.72 14.159 1.72C13.3723 1.72 12.979 2.08 12.979 2.8V3H13.909V4.04H12.979V8H11.899V4.04H10.229V8H9.14898V4.04H8.38898V3H9.14898V2.9C9.14898 2.21333 9.33898 1.69333 9.71898 1.34C10.1057 0.98 10.669 0.823333 11.409 0.869999V1.91C10.6223 1.83667 10.229 2.16667 10.229 2.9V3H11.899V2.8C11.899 1.44667 12.6523 0.77 14.159 0.77ZM18.1926 2.05C18.0592 2.18333 17.8992 2.25 17.7126 2.25C17.5259 2.25 17.3626 2.18333 17.2226 2.05C17.0892 1.91 17.0226 1.74667 17.0226 1.56C17.0226 1.37333 17.0892 1.21333 17.2226 1.08C17.3559 0.94 17.5192 0.869999 17.7126 0.869999C17.9059 0.869999 18.0692 0.94 18.2026 1.08C18.3359 1.21333 18.4026 1.37333 18.4026 1.56C18.4026 1.74667 18.3326 1.91 18.1926 2.05ZM17.1726 8V3H18.2526V8H17.1726ZM22.3366 2.87C22.9099 2.87 23.3732 3.05333 23.7266 3.42C24.0799 3.78667 24.2566 4.29 24.2566 4.93V8H23.1766V5.04C23.1766 4.66667 23.0766 4.38 22.8766 4.18C22.6766 3.98 22.4032 3.88 22.0566 3.88C21.6766 3.88 21.3699 4 21.1366 4.24C20.9032 4.47333 20.7866 4.83333 20.7866 5.32V8H19.7066V3H20.7866V3.64C21.1132 3.12667 21.6299 2.87 22.3366 2.87ZM26.4695 5.96C26.5495 6.34 26.7328 6.63333 27.0195 6.84C27.3061 7.04 27.6561 7.14 28.0695 7.14C28.6428 7.14 29.0728 6.93333 29.3595 6.52L30.2495 7.04C29.7561 7.76667 29.0261 8.13 28.0595 8.13C27.2461 8.13 26.5895 7.88333 26.0895 7.39C25.5895 6.89 25.3395 6.26 25.3395 5.5C25.3395 4.75333 25.5861 4.13 26.0795 3.63C26.5728 3.12333 27.2061 2.87 27.9795 2.87C28.7128 2.87 29.3128 3.12667 29.7795 3.64C30.2528 4.15333 30.4895 4.77667 30.4895 5.51C30.4895 5.62333 30.4761 5.77333 30.4495 5.96H26.4695ZM26.4595 5.08H29.3995C29.3261 4.67333 29.1561 4.36667 28.8895 4.16C28.6295 3.95333 28.3228 3.85 27.9695 3.85C27.5695 3.85 27.2361 3.96 26.9695 4.18C26.7028 4.4 26.5328 4.7 26.4595 5.08ZM37.7198 8.13C36.6664 8.13 35.7931 7.78333 35.0998 7.09C34.4064 6.39 34.0598 5.52667 34.0598 4.5C34.0598 3.47333 34.4064 2.61333 35.0998 1.92C35.7931 1.22 36.6664 0.869999 37.7198 0.869999C38.3531 0.869999 38.9364 1.02 39.4698 1.32C40.0098 1.62 40.4298 2.02667 40.7298 2.54L39.7298 3.12C39.5431 2.77333 39.2698 2.5 38.9098 2.3C38.5564 2.09333 38.1598 1.99 37.7198 1.99C36.9731 1.99 36.3664 2.22667 35.8998 2.7C35.4398 3.17333 35.2098 3.77333 35.2098 4.5C35.2098 5.22667 35.4398 5.82667 35.8998 6.3C36.3664 6.77333 36.9731 7.01 37.7198 7.01C38.1598 7.01 38.5598 6.91 38.9198 6.71C39.2798 6.50333 39.5498 6.22667 39.7298 5.88L40.7298 6.45C40.4364 6.96333 40.0198 7.37333 39.4798 7.68C38.9464 7.98 38.3598 8.13 37.7198 8.13ZM41.864 8V0.7H42.944V8H41.864ZM48.358 3H49.438V8H48.358V7.28C47.9513 7.84667 47.368 8.13 46.608 8.13C45.9213 8.13 45.3346 7.87667 44.848 7.37C44.3613 6.85667 44.118 6.23333 44.118 5.5C44.118 4.76 44.3613 4.13667 44.848 3.63C45.3346 3.12333 45.9213 2.87 46.608 2.87C47.368 2.87 47.9513 3.15 48.358 3.71V3ZM45.648 6.65C45.948 6.95 46.3246 7.1 46.778 7.1C47.2313 7.1 47.608 6.95 47.908 6.65C48.208 6.34333 48.358 5.96 48.358 5.5C48.358 5.04 48.208 4.66 47.908 4.36C47.608 4.05333 47.2313 3.9 46.778 3.9C46.3246 3.9 45.948 4.05333 45.648 4.36C45.348 4.66 45.198 5.04 45.198 5.5C45.198 5.96 45.348 6.34333 45.648 6.65ZM51.8375 4.38C51.8375 4.54667 51.9275 4.68 52.1075 4.78C52.2942 4.87333 52.5175 4.95667 52.7775 5.03C53.0442 5.09667 53.3108 5.17667 53.5775 5.27C53.8442 5.36333 54.0675 5.52333 54.2475 5.75C54.4342 5.97 54.5275 6.25 54.5275 6.59C54.5275 7.07 54.3408 7.44667 53.9675 7.72C53.6008 7.99333 53.1375 8.13 52.5775 8.13C52.0842 8.13 51.6608 8.02667 51.3075 7.82C50.9542 7.61333 50.6975 7.32667 50.5375 6.96L51.4675 6.42C51.6408 6.9 52.0108 7.14 52.5775 7.14C53.1442 7.14 53.4275 6.95333 53.4275 6.58C53.4275 6.42 53.3342 6.29 53.1475 6.19C52.9675 6.09 52.7442 6.00667 52.4775 5.94C52.2175 5.86667 51.9542 5.78333 51.6875 5.69C51.4208 5.59667 51.1942 5.44333 51.0075 5.23C50.8275 5.01 50.7375 4.73333 50.7375 4.4C50.7375 3.94 50.9108 3.57 51.2575 3.29C51.6108 3.01 52.0475 2.87 52.5675 2.87C52.9808 2.87 53.3475 2.96333 53.6675 3.15C53.9942 3.33 54.2442 3.58333 54.4175 3.91L53.5075 4.42C53.3342 4.04 53.0208 3.85 52.5675 3.85C52.3608 3.85 52.1875 3.89667 52.0475 3.99C51.9075 4.07667 51.8375 4.20667 51.8375 4.38ZM56.3441 4.38C56.3441 4.54667 56.4341 4.68 56.6141 4.78C56.8008 4.87333 57.0241 4.95667 57.2841 5.03C57.5508 5.09667 57.8175 5.17667 58.0841 5.27C58.3508 5.36333 58.5741 5.52333 58.7541 5.75C58.9408 5.97 59.0341 6.25 59.0341 6.59C59.0341 7.07 58.8475 7.44667 58.4741 7.72C58.1075 7.99333 57.6441 8.13 57.0841 8.13C56.5908 8.13 56.1675 8.02667 55.8141 7.82C55.4608 7.61333 55.2041 7.32667 55.0441 6.96L55.9741 6.42C56.1475 6.9 56.5175 7.14 57.0841 7.14C57.6508 7.14 57.9341 6.95333 57.9341 6.58C57.9341 6.42 57.8408 6.29 57.6541 6.19C57.4741 6.09 57.2508 6.00667 56.9841 5.94C56.7241 5.86667 56.4608 5.78333 56.1941 5.69C55.9275 5.59667 55.7008 5.44333 55.5141 5.23C55.3341 5.01 55.2441 4.73333 55.2441 4.4C55.2441 3.94 55.4175 3.57 55.7641 3.29C56.1175 3.01 56.5541 2.87 57.0741 2.87C57.4875 2.87 57.8541 2.96333 58.1741 3.15C58.5008 3.33 58.7508 3.58333 58.9241 3.91L58.0141 4.42C57.8408 4.04 57.5275 3.85 57.0741 3.85C56.8675 3.85 56.6941 3.89667 56.5541 3.99C56.4141 4.07667 56.3441 4.20667 56.3441 4.38ZM61.2635 3.84C61.5368 3.22 62.0502 2.91 62.8035 2.91V4.08C62.3902 4.05333 62.0302 4.15333 61.7235 4.38C61.4168 4.6 61.2635 4.96667 61.2635 5.48V8H60.1835V3H61.2635V3.84ZM65.9271 8.13C65.1938 8.13 64.5704 7.87667 64.0571 7.37C63.5438 6.86333 63.2871 6.24 63.2871 5.5C63.2871 4.76 63.5438 4.13667 64.0571 3.63C64.5704 3.12333 65.1938 2.87 65.9271 2.87C66.6671 2.87 67.2904 3.12333 67.7971 3.63C68.3104 4.13667 68.5671 4.76 68.5671 5.5C68.5671 6.24 68.3104 6.86333 67.7971 7.37C67.2904 7.87667 66.6671 8.13 65.9271 8.13ZM64.8171 6.63C65.1171 6.93 65.4871 7.08 65.9271 7.08C66.3671 7.08 66.7371 6.93 67.0371 6.63C67.3371 6.33 67.4871 5.95333 67.4871 5.5C67.4871 5.04667 67.3371 4.67 67.0371 4.37C66.7371 4.07 66.3671 3.92 65.9271 3.92C65.4871 3.92 65.1171 4.07 64.8171 4.37C64.5171 4.67 64.3671 5.04667 64.3671 5.5C64.3671 5.95333 64.5171 6.33 64.8171 6.63ZM72.1037 8.13C71.3703 8.13 70.747 7.87667 70.2337 7.37C69.7203 6.86333 69.4637 6.24 69.4637 5.5C69.4637 4.76 69.7203 4.13667 70.2337 3.63C70.747 3.12333 71.3703 2.87 72.1037 2.87C72.8437 2.87 73.467 3.12333 73.9737 3.63C74.487 4.13667 74.7437 4.76 74.7437 5.5C74.7437 6.24 74.487 6.86333 73.9737 7.37C73.467 7.87667 72.8437 8.13 72.1037 8.13ZM70.9937 6.63C71.2937 6.93 71.6637 7.08 72.1037 7.08C72.5437 7.08 72.9137 6.93 73.2137 6.63C73.5137 6.33 73.6637 5.95333 73.6637 5.5C73.6637 5.04667 73.5137 4.67 73.2137 4.37C72.9137 4.07 72.5437 3.92 72.1037 3.92C71.6637 3.92 71.2937 4.07 70.9937 4.37C70.6937 4.67 70.5437 5.04667 70.5437 5.5C70.5437 5.95333 70.6937 6.33 70.9937 6.63ZM81.3802 2.87C81.9469 2.87 82.4036 3.05333 82.7502 3.42C83.0969 3.78667 83.2702 4.28 83.2702 4.9V8H82.1902V4.97C82.1902 4.62333 82.1036 4.35667 81.9302 4.17C81.7569 3.97667 81.5202 3.88 81.2202 3.88C80.8869 3.88 80.6202 3.99 80.4202 4.21C80.2269 4.43 80.1302 4.76 80.1302 5.2V8H79.0502V4.97C79.0502 4.62333 78.9669 4.35667 78.8002 4.17C78.6402 3.97667 78.4102 3.88 78.1102 3.88C77.7836 3.88 77.5169 3.99333 77.3102 4.22C77.1036 4.44 77.0002 4.76667 77.0002 5.2V8H75.9202V3H77.0002V3.6C77.3202 3.11333 77.7969 2.87 78.4302 2.87C79.0702 2.87 79.5436 3.13333 79.8502 3.66C80.1836 3.13333 80.6936 2.87 81.3802 2.87Z" fill="#D97706"/>
</svg>
