<svg width="126" height="12" viewBox="0 0 126 12" fill="none" xmlns="http://www.w3.org/2000/svg">
<path d="M3.8439 0.859477C4.60158 0.859477 5.23923 1.11454 5.75685 1.62466C6.27447 2.13478 6.53328 2.76117 6.53328 3.50385C6.53328 4.24652 6.27447 4.87292 5.75685 5.38304C5.23923 5.89316 4.60158 6.14822 3.8439 6.14822H2.45982V8.73633H0.906959V0.859477H3.8439ZM3.8439 4.69663C4.17398 4.69663 4.44779 4.5841 4.66534 4.35905C4.88289 4.12649 4.99167 3.84143 4.99167 3.50385C4.99167 3.15877 4.88289 2.8737 4.66534 2.64865C4.44779 2.42359 4.17398 2.31107 3.8439 2.31107H2.45982V4.69663H3.8439ZM8.80746 4.07773C8.94249 3.71765 9.16379 3.44759 9.47136 3.26754C9.78644 3.0875 10.1353 2.99748 10.5179 2.99748V4.61786C10.0753 4.56535 9.67766 4.65537 9.32508 4.88792C8.98 5.12048 8.80746 5.50682 8.80746 6.04695V8.73633H7.35587V3.11001H8.80746V4.07773ZM15.9517 8.03866C15.374 8.6088 14.6689 8.89387 13.8362 8.89387C13.0035 8.89387 12.2983 8.6088 11.7207 8.03866C11.1505 7.46103 10.8655 6.75586 10.8655 5.92317C10.8655 5.09047 11.1505 4.38906 11.7207 3.81892C12.2983 3.24129 13.0035 2.95247 13.8362 2.95247C14.6689 2.95247 15.374 3.24129 15.9517 3.81892C16.5293 4.38906 16.8181 5.09047 16.8181 5.92317C16.8181 6.75586 16.5293 7.46103 15.9517 8.03866ZM12.7447 7.03718C13.0372 7.32975 13.4011 7.47603 13.8362 7.47603C14.2713 7.47603 14.6351 7.32975 14.9277 7.03718C15.2202 6.74461 15.3665 6.37327 15.3665 5.92317C15.3665 5.47306 15.2202 5.10172 14.9277 4.80916C14.6351 4.51659 14.2713 4.3703 13.8362 4.3703C13.4011 4.3703 13.0372 4.51659 12.7447 4.80916C12.4596 5.10172 12.3171 5.47306 12.3171 5.92317C12.3171 6.37327 12.4596 6.74461 12.7447 7.03718ZM22.149 3.11001H23.5669V8.46626C23.5669 9.33647 23.2781 10.0004 22.7004 10.458C22.1303 10.9156 21.4401 11.1444 20.6299 11.1444C20.0223 11.1444 19.4859 11.0281 19.0208 10.7956C18.5632 10.563 18.2106 10.2217 17.9631 9.77157L19.2009 9.06265C19.4859 9.58778 19.9773 9.85034 20.675 9.85034C21.1326 9.85034 21.4926 9.73031 21.7552 9.49026C22.0178 9.2502 22.149 8.90887 22.149 8.46626V7.85862C21.7214 8.42876 21.1213 8.71382 20.3486 8.71382C19.5534 8.71382 18.8858 8.43626 18.3457 7.88113C17.813 7.31849 17.5467 6.63583 17.5467 5.83315C17.5467 5.03796 17.8168 4.35905 18.3569 3.79642C18.897 3.23379 19.5609 2.95247 20.3486 2.95247C21.1213 2.95247 21.7214 3.23754 22.149 3.80767V3.11001ZM19.4372 6.94716C19.7372 7.23222 20.1161 7.37476 20.5737 7.37476C21.0313 7.37476 21.4064 7.23222 21.6989 6.94716C21.999 6.65459 22.149 6.28325 22.149 5.83315C22.149 5.39054 21.999 5.02671 21.6989 4.74164C21.4064 4.44907 21.0313 4.30279 20.5737 4.30279C20.1161 4.30279 19.7372 4.44907 19.4372 4.74164C19.1446 5.02671 18.9983 5.39054 18.9983 5.83315C18.9983 6.28325 19.1446 6.65459 19.4372 6.94716ZM26.3348 4.07773C26.4698 3.71765 26.6911 3.44759 26.9987 3.26754C27.3137 3.0875 27.6626 2.99748 28.0452 2.99748V4.61786C27.6026 4.56535 27.205 4.65537 26.8524 4.88792C26.5073 5.12048 26.3348 5.50682 26.3348 6.04695V8.73633H24.8832V3.11001H26.3348V4.07773ZM32.9613 3.11001H34.4129V8.73633H32.9613V8.07242C32.5262 8.62005 31.9148 8.89387 31.1272 8.89387C30.377 8.89387 29.7318 8.6088 29.1917 8.03866C28.6591 7.46103 28.3928 6.75586 28.3928 5.92317C28.3928 5.09047 28.6591 4.38906 29.1917 3.81892C29.7318 3.24129 30.377 2.95247 31.1272 2.95247C31.9148 2.95247 32.5262 3.22628 32.9613 3.77391V3.11001ZM30.2832 7.07094C30.5758 7.36351 30.9471 7.50979 31.3972 7.50979C31.8473 7.50979 32.2187 7.36351 32.5112 7.07094C32.8113 6.77087 32.9613 6.38828 32.9613 5.92317C32.9613 5.45806 32.8113 5.07922 32.5112 4.78665C32.2187 4.48658 31.8473 4.33654 31.3972 4.33654C30.9471 4.33654 30.5758 4.48658 30.2832 4.78665C29.9906 5.07922 29.8444 5.45806 29.8444 5.92317C29.8444 6.38828 29.9906 6.77087 30.2832 7.07094ZM41.9519 2.95247C42.5971 2.95247 43.111 3.16252 43.4936 3.58262C43.8836 4.00272 44.0787 4.56535 44.0787 5.27051V8.73633H42.6271V5.37179C42.6271 5.03421 42.5446 4.77165 42.3795 4.5841C42.2145 4.39656 41.982 4.30279 41.6819 4.30279C41.3518 4.30279 41.093 4.41156 40.9054 4.62911C40.7254 4.84666 40.6354 5.16174 40.6354 5.57434V8.73633H39.1838V5.37179C39.1838 5.03421 39.1013 4.77165 38.9362 4.5841C38.7712 4.39656 38.5386 4.30279 38.2386 4.30279C37.916 4.30279 37.6572 4.41156 37.4621 4.62911C37.2746 4.84666 37.1808 5.16174 37.1808 5.57434V8.73633H35.7292V3.11001H37.1808V3.7064C37.5184 3.20378 38.0398 2.95247 38.7449 2.95247C39.4351 2.95247 39.9452 3.22253 40.2753 3.76266C40.6504 3.22253 41.2093 2.95247 41.9519 2.95247ZM51.5343 2.95247C52.1794 2.95247 52.6933 3.16252 53.0759 3.58262C53.466 4.00272 53.661 4.56535 53.661 5.27051V8.73633H52.2094V5.37179C52.2094 5.03421 52.1269 4.77165 51.9619 4.5841C51.7968 4.39656 51.5643 4.30279 51.2642 4.30279C50.9341 4.30279 50.6753 4.41156 50.4878 4.62911C50.3077 4.84666 50.2177 5.16174 50.2177 5.57434V8.73633H48.7661V5.37179C48.7661 5.03421 48.6836 4.77165 48.5186 4.5841C48.3535 4.39656 48.121 4.30279 47.8209 4.30279C47.4983 4.30279 47.2395 4.41156 47.0445 4.62911C46.8569 4.84666 46.7632 5.16174 46.7632 5.57434V8.73633H45.3116V3.11001H46.7632V3.7064C47.1007 3.20378 47.6221 2.95247 48.3273 2.95247C49.0174 2.95247 49.5276 3.22253 49.8576 3.76266C50.2327 3.22253 50.7916 2.95247 51.5343 2.95247ZM55.6141 2.43485C55.374 2.43485 55.164 2.34858 54.9839 2.17604C54.8114 1.99599 54.7251 1.78594 54.7251 1.54589C54.7251 1.30583 54.8114 1.09578 54.9839 0.91574C55.164 0.735698 55.374 0.645677 55.6141 0.645677C55.8616 0.645677 56.0717 0.735698 56.2442 0.91574C56.4242 1.09578 56.5143 1.30583 56.5143 1.54589C56.5143 1.78594 56.4242 1.99599 56.2442 2.17604C56.0717 2.34858 55.8616 2.43485 55.6141 2.43485ZM54.8939 8.73633V3.11001H56.3455V8.73633H54.8939ZM60.8023 2.95247C61.4175 2.95247 61.9238 3.15877 62.3214 3.57136C62.7265 3.98396 62.9291 4.5541 62.9291 5.28177V8.73633H61.4775V5.46181C61.4775 5.08672 61.3762 4.80165 61.1737 4.60661C60.9711 4.40406 60.701 4.30279 60.3635 4.30279C59.9884 4.30279 59.6883 4.41906 59.4633 4.65162C59.2382 4.88417 59.1257 5.233 59.1257 5.69811V8.73633H57.6741V3.11001H59.1257V3.74015C59.4783 3.21503 60.0371 2.95247 60.8023 2.95247ZM68.4783 3.11001H69.8961V8.46626C69.8961 9.33647 69.6073 10.0004 69.0297 10.458C68.4595 10.9156 67.7694 11.1444 66.9592 11.1444C66.3515 11.1444 65.8152 11.0281 65.3501 10.7956C64.8924 10.563 64.5399 10.2217 64.2923 9.77157L65.5301 9.06265C65.8152 9.58778 66.3065 9.85034 67.0042 9.85034C67.4618 9.85034 67.8219 9.73031 68.0844 9.49026C68.347 9.2502 68.4783 8.90887 68.4783 8.46626V7.85862C68.0507 8.42876 67.4506 8.71382 66.6779 8.71382C65.8827 8.71382 65.215 8.43626 64.6749 7.88113C64.1423 7.31849 63.876 6.63583 63.876 5.83315C63.876 5.03796 64.146 4.35905 64.6862 3.79642C65.2263 3.23379 65.8902 2.95247 66.6779 2.95247C67.4506 2.95247 68.0507 3.23754 68.4783 3.80767V3.11001ZM65.7664 6.94716C66.0665 7.23222 66.4453 7.37476 66.9029 7.37476C67.3605 7.37476 67.7356 7.23222 68.0282 6.94716C68.3283 6.65459 68.4783 6.28325 68.4783 5.83315C68.4783 5.39054 68.3283 5.02671 68.0282 4.74164C67.7356 4.44907 67.3605 4.30279 66.9029 4.30279C66.4453 4.30279 66.0665 4.44907 65.7664 4.74164C65.4738 5.02671 65.3276 5.39054 65.3276 5.83315C65.3276 6.28325 65.4738 6.65459 65.7664 6.94716ZM77.03 0.859477C77.7877 0.859477 78.4254 1.11454 78.943 1.62466C79.4606 2.13478 79.7194 2.76117 79.7194 3.50385C79.7194 4.24652 79.4606 4.87292 78.943 5.38304C78.4254 5.89316 77.7877 6.14822 77.03 6.14822H75.646V8.73633H74.0931V0.859477H77.03ZM77.03 4.69663C77.3601 4.69663 77.6339 4.5841 77.8515 4.35905C78.069 4.12649 78.1778 3.84143 78.1778 3.50385C78.1778 3.15877 78.069 2.8737 77.8515 2.64865C77.6339 2.42359 77.3601 2.31107 77.03 2.31107H75.646V4.69663H77.03ZM84.5653 3.11001H86.0169V8.73633H84.5653V8.07242C84.1302 8.62005 83.5188 8.89387 82.7311 8.89387C81.9809 8.89387 81.3358 8.6088 80.7956 8.03866C80.263 7.46103 79.9967 6.75586 79.9967 5.92317C79.9967 5.09047 80.263 4.38906 80.7956 3.81892C81.3358 3.24129 81.9809 2.95247 82.7311 2.95247C83.5188 2.95247 84.1302 3.22628 84.5653 3.77391V3.11001ZM81.8871 7.07094C82.1797 7.36351 82.551 7.50979 83.0012 7.50979C83.4513 7.50979 83.8226 7.36351 84.1152 7.07094C84.4152 6.77087 84.5653 6.38828 84.5653 5.92317C84.5653 5.45806 84.4152 5.07922 84.1152 4.78665C83.8226 4.48658 83.4513 4.33654 83.0012 4.33654C82.551 4.33654 82.1797 4.48658 81.8871 4.78665C81.5946 5.07922 81.4483 5.45806 81.4483 5.92317C81.4483 6.38828 81.5946 6.77087 81.8871 7.07094ZM90.5514 4.50533H89.2799V6.84588C89.2799 7.04093 89.3286 7.18346 89.4261 7.27348C89.5237 7.36351 89.6662 7.41602 89.8537 7.43102C90.0413 7.43852 90.2738 7.43477 90.5514 7.41977V8.73633C89.5537 8.84885 88.8485 8.75508 88.4359 8.45501C88.0308 8.15494 87.8283 7.61857 87.8283 6.84588V4.50533H86.8493V3.11001H87.8283V1.97349L89.2799 1.53464V3.11001H90.5514V4.50533ZM94.7031 2.95247C95.3183 2.95247 95.8246 3.15877 96.2222 3.57136C96.6273 3.98396 96.8299 4.5541 96.8299 5.28177V8.73633H95.3783V5.46181C95.3783 5.08672 95.277 4.80165 95.0744 4.60661C94.8719 4.40406 94.6018 4.30279 94.2643 4.30279C93.8892 4.30279 93.5891 4.41906 93.364 4.65162C93.139 4.88417 93.0265 5.233 93.0265 5.69811V8.73633H91.5749V0.859477H93.0265V3.74015C93.379 3.21503 93.9379 2.95247 94.7031 2.95247ZM99.4084 4.70788C99.4084 4.85792 99.5059 4.9817 99.701 5.07922C99.9035 5.16924 100.147 5.25176 100.432 5.32678C100.717 5.39429 101.003 5.48431 101.288 5.59684C101.573 5.70187 101.813 5.88191 102.008 6.13697C102.21 6.39203 102.312 6.71085 102.312 7.09344C102.312 7.67108 102.094 8.11743 101.659 8.43251C101.231 8.74008 100.695 8.89387 100.05 8.89387C98.8945 8.89387 98.1068 8.44751 97.6867 7.5548L98.947 6.84588C99.1121 7.3335 99.4796 7.57731 100.05 7.57731C100.567 7.57731 100.826 7.41602 100.826 7.09344C100.826 6.94341 100.725 6.82338 100.522 6.73336C100.327 6.63583 100.087 6.54956 99.8022 6.47455C99.5172 6.39953 99.2321 6.30576 98.947 6.19323C98.662 6.0807 98.4181 5.90441 98.2156 5.66436C98.0206 5.4168 97.923 5.10923 97.923 4.74164C97.923 4.18651 98.1256 3.75141 98.5307 3.43633C98.9433 3.11376 99.4534 2.95247 100.061 2.95247C100.519 2.95247 100.935 3.05749 101.31 3.26754C101.685 3.47009 101.981 3.76266 102.199 4.14525L100.961 4.82041C100.781 4.43782 100.481 4.24652 100.061 4.24652C99.8735 4.24652 99.716 4.28778 99.5884 4.3703C99.4684 4.45282 99.4084 4.56535 99.4084 4.70788ZM106.373 2.95247C106.988 2.95247 107.495 3.15877 107.892 3.57136C108.298 3.98396 108.5 4.5541 108.5 5.28177V8.73633H107.048V5.46181C107.048 5.08672 106.947 4.80165 106.745 4.60661C106.542 4.40406 106.272 4.30279 105.934 4.30279C105.559 4.30279 105.259 4.41906 105.034 4.65162C104.809 4.88417 104.697 5.233 104.697 5.69811V8.73633H103.245V0.859477H104.697V3.74015C105.049 3.21503 105.608 2.95247 106.373 2.95247ZM114.016 3.11001H115.467V8.73633H114.016V8.07242C113.58 8.62005 112.969 8.89387 112.181 8.89387C111.431 8.89387 110.786 8.6088 110.246 8.03866C109.713 7.46103 109.447 6.75586 109.447 5.92317C109.447 5.09047 109.713 4.38906 110.246 3.81892C110.786 3.24129 111.431 2.95247 112.181 2.95247C112.969 2.95247 113.58 3.22628 114.016 3.77391V3.11001ZM111.337 7.07094C111.63 7.36351 112.001 7.50979 112.451 7.50979C112.902 7.50979 113.273 7.36351 113.565 7.07094C113.866 6.77087 114.016 6.38828 114.016 5.92317C114.016 5.45806 113.866 5.07922 113.565 4.78665C113.273 4.48658 112.902 4.33654 112.451 4.33654C112.001 4.33654 111.63 4.48658 111.337 4.78665C111.045 5.07922 110.899 5.45806 110.899 5.92317C110.899 6.38828 111.045 6.77087 111.337 7.07094ZM116.783 8.73633V0.521898H118.235V8.73633H116.783ZM123.84 3.11001H125.291V8.73633H123.84V8.07242C123.405 8.62005 122.793 8.89387 122.005 8.89387C121.255 8.89387 120.61 8.6088 120.07 8.03866C119.537 7.46103 119.271 6.75586 119.271 5.92317C119.271 5.09047 119.537 4.38906 120.07 3.81892C120.61 3.24129 121.255 2.95247 122.005 2.95247C122.793 2.95247 123.405 3.22628 123.84 3.77391V3.11001ZM121.162 7.07094C121.454 7.36351 121.825 7.50979 122.276 7.50979C122.726 7.50979 123.097 7.36351 123.39 7.07094C123.69 6.77087 123.84 6.38828 123.84 5.92317C123.84 5.45806 123.69 5.07922 123.39 4.78665C123.097 4.48658 122.726 4.33654 122.276 4.33654C121.825 4.33654 121.454 4.48658 121.162 4.78665C120.869 5.07922 120.723 5.45806 120.723 5.92317C120.723 6.38828 120.869 6.77087 121.162 7.07094Z" fill="#F8FAFC"/>
</svg>
