<svg width="490" height="39" viewBox="0 0 490 39" fill="none" xmlns="http://www.w3.org/2000/svg">
<path d="M21.12 2V7.28H13.56V30H8.04V7.28H0.52V2H21.12ZM26.2888 22.12C26.9821 24.6267 28.8621 25.88 31.9288 25.88C33.9021 25.88 35.3954 25.2133 36.4088 23.88L40.5688 26.28C38.5954 29.1333 35.6888 30.56 31.8488 30.56C28.5421 30.56 25.8888 29.56 23.8888 27.56C21.8888 25.56 20.8888 23.04 20.8888 20C20.8888 16.9867 21.8754 14.48 23.8488 12.48C25.8221 10.4533 28.3554 9.44 31.4488 9.44C34.3821 9.44 36.7954 10.4533 38.6888 12.48C40.6088 14.5067 41.5688 17.0133 41.5688 20C41.5688 20.6667 41.5021 21.3733 41.3688 22.12H26.2888ZM26.2088 18.12H36.4088C36.1154 16.76 35.5021 15.7467 34.5688 15.08C33.6621 14.4133 32.6221 14.08 31.4488 14.08C30.0621 14.08 28.9154 14.44 28.0088 15.16C27.1021 15.8533 26.5021 16.84 26.2088 18.12ZM56.1347 30.56C53.1214 30.56 50.6014 29.5467 48.5747 27.52C46.5747 25.4933 45.5747 22.9867 45.5747 20C45.5747 17.0133 46.5747 14.5067 48.5747 12.48C50.6014 10.4533 53.1214 9.44 56.1347 9.44C58.0814 9.44 59.8547 9.90667 61.4547 10.84C63.0547 11.7733 64.268 13.0267 65.0947 14.6L60.6547 17.2C60.2547 16.3733 59.6414 15.72 58.8147 15.24C58.0147 14.76 57.108 14.52 56.0947 14.52C54.548 14.52 53.268 15.04 52.2547 16.08C51.2414 17.0933 50.7347 18.4 50.7347 20C50.7347 21.5733 51.2414 22.88 52.2547 23.92C53.268 24.9333 54.548 25.44 56.0947 25.44C57.1347 25.44 58.0547 25.2133 58.8547 24.76C59.6814 24.28 60.2947 23.6267 60.6947 22.8L65.1747 25.36C64.2947 26.9333 63.0547 28.2 61.4547 29.16C59.8547 30.0933 58.0814 30.56 56.1347 30.56ZM80.6238 9.44C82.8104 9.44 84.6104 10.1733 86.0238 11.64C87.4638 13.1067 88.1838 15.1333 88.1838 17.72V30H83.0238V18.36C83.0238 17.0267 82.6638 16.0133 81.9438 15.32C81.2238 14.6 80.2638 14.24 79.0638 14.24C77.7304 14.24 76.6638 14.6533 75.8638 15.48C75.0638 16.3067 74.6638 17.5467 74.6638 19.2V30H69.5038V2H74.6638V12.24C75.9171 10.3733 77.9038 9.44 80.6238 9.44ZM122.75 7.28H111.55V13.92H122.43V19.2H111.55V30H106.03V2H122.75V7.28ZM132.492 22.12C133.185 24.6267 135.065 25.88 138.132 25.88C140.105 25.88 141.599 25.2133 142.612 23.88L146.772 26.28C144.799 29.1333 141.892 30.56 138.052 30.56C134.745 30.56 132.092 29.56 130.092 27.56C128.092 25.56 127.092 23.04 127.092 20C127.092 16.9867 128.079 14.48 130.052 12.48C132.025 10.4533 134.559 9.44 137.652 9.44C140.585 9.44 142.999 10.4533 144.892 12.48C146.812 14.5067 147.772 17.0133 147.772 20C147.772 20.6667 147.705 21.3733 147.572 22.12H132.492ZM132.412 18.12H142.612C142.319 16.76 141.705 15.7467 140.772 15.08C139.865 14.4133 138.825 14.08 137.652 14.08C136.265 14.08 135.119 14.44 134.212 15.16C133.305 15.8533 132.705 16.84 132.412 18.12ZM152.974 30V0.799999H158.134V30H152.974ZM164.457 30V0.799999H169.617V30H164.457ZM192.98 27.52C190.926 29.5467 188.42 30.56 185.46 30.56C182.5 30.56 179.993 29.5467 177.94 27.52C175.913 25.4667 174.9 22.96 174.9 20C174.9 17.04 175.913 14.5467 177.94 12.52C179.993 10.4667 182.5 9.44 185.46 9.44C188.42 9.44 190.926 10.4667 192.98 12.52C195.033 14.5467 196.06 17.04 196.06 20C196.06 22.96 195.033 25.4667 192.98 27.52ZM181.58 23.96C182.62 25 183.913 25.52 185.46 25.52C187.006 25.52 188.3 25 189.34 23.96C190.38 22.92 190.9 21.6 190.9 20C190.9 18.4 190.38 17.08 189.34 16.04C188.3 15 187.006 14.48 185.46 14.48C183.913 14.48 182.62 15 181.58 16.04C180.566 17.08 180.06 18.4 180.06 20C180.06 21.6 180.566 22.92 181.58 23.96ZM223.028 10H228.508L222.148 30H217.228L213.548 17.88L209.868 30H204.948L198.588 10H204.068L207.468 22.28L211.108 10H215.988L219.628 22.32L223.028 10ZM236.4 15.68C236.4 16.2133 236.746 16.6533 237.44 17C238.16 17.32 239.026 17.6133 240.04 17.88C241.053 18.12 242.066 18.44 243.08 18.84C244.093 19.2133 244.946 19.8533 245.64 20.76C246.36 21.6667 246.72 22.8 246.72 24.16C246.72 26.2133 245.946 27.8 244.4 28.92C242.88 30.0133 240.973 30.56 238.68 30.56C234.573 30.56 231.773 28.9733 230.28 25.8L234.76 23.28C235.346 25.0133 236.653 25.88 238.68 25.88C240.52 25.88 241.44 25.3067 241.44 24.16C241.44 23.6267 241.08 23.2 240.36 22.88C239.666 22.5333 238.813 22.2267 237.8 21.96C236.786 21.6933 235.773 21.36 234.76 20.96C233.746 20.56 232.88 19.9333 232.16 19.08C231.466 18.2 231.12 17.1067 231.12 15.8C231.12 13.8267 231.84 12.28 233.28 11.16C234.746 10.0133 236.56 9.44 238.72 9.44C240.346 9.44 241.826 9.81333 243.16 10.56C244.493 11.28 245.546 12.32 246.32 13.68L241.92 16.08C241.28 14.72 240.213 14.04 238.72 14.04C238.053 14.04 237.493 14.1867 237.04 14.48C236.613 14.7733 236.4 15.1733 236.4 15.68ZM262.758 9.44C264.945 9.44 266.745 10.1733 268.158 11.64C269.598 13.1067 270.318 15.1333 270.318 17.72V30H265.158V18.36C265.158 17.0267 264.798 16.0133 264.078 15.32C263.358 14.6 262.398 14.24 261.198 14.24C259.865 14.24 258.798 14.6533 257.998 15.48C257.198 16.3067 256.798 17.5467 256.798 19.2V30H251.638V2H256.798V12.24C258.051 10.3733 260.038 9.44 262.758 9.44ZM278.884 7.6C278.031 7.6 277.284 7.29333 276.644 6.68C276.031 6.04 275.724 5.29333 275.724 4.44C275.724 3.58667 276.031 2.84 276.644 2.2C277.284 1.56 278.031 1.24 278.884 1.24C279.764 1.24 280.511 1.56 281.124 2.2C281.764 2.84 282.084 3.58667 282.084 4.44C282.084 5.29333 281.764 6.04 281.124 6.68C280.511 7.29333 279.764 7.6 278.884 7.6ZM276.324 30V10H281.484V30H276.324ZM299.447 9.44C302.14 9.44 304.434 10.4667 306.327 12.52C308.247 14.5467 309.207 17.04 309.207 20C309.207 22.96 308.247 25.4667 306.327 27.52C304.434 29.5467 302.14 30.56 299.447 30.56C296.647 30.56 294.487 29.5867 292.967 27.64V38H287.807V10H292.967V12.36C294.487 10.4133 296.647 9.44 299.447 9.44ZM294.527 24.08C295.567 25.12 296.887 25.64 298.487 25.64C300.087 25.64 301.407 25.12 302.447 24.08C303.514 23.0133 304.047 21.6533 304.047 20C304.047 18.3467 303.514 17 302.447 15.96C301.407 14.8933 300.087 14.36 298.487 14.36C296.887 14.36 295.567 14.8933 294.527 15.96C293.487 17 292.967 18.3467 292.967 20C292.967 21.6533 293.487 23.0133 294.527 24.08ZM336.726 2C339.419 2 341.686 2.90667 343.526 4.72C345.366 6.53333 346.286 8.76 346.286 11.4C346.286 14.04 345.366 16.2667 343.526 18.08C341.686 19.8933 339.419 20.8 336.726 20.8H331.806V30H326.286V2H336.726ZM336.726 15.64C337.899 15.64 338.873 15.24 339.646 14.44C340.419 13.6133 340.806 12.6 340.806 11.4C340.806 10.1733 340.419 9.16 339.646 8.36C338.873 7.56 337.899 7.16 336.726 7.16H331.806V15.64H336.726ZM355.97 13.44C356.45 12.16 357.237 11.2 358.33 10.56C359.45 9.92 360.69 9.6 362.05 9.6V15.36C360.477 15.1733 359.063 15.4933 357.81 16.32C356.583 17.1467 355.97 18.52 355.97 20.44V30H350.81V10H355.97V13.44ZM382.966 27.52C380.912 29.5467 378.406 30.56 375.446 30.56C372.486 30.56 369.979 29.5467 367.926 27.52C365.899 25.4667 364.886 22.96 364.886 20C364.886 17.04 365.899 14.5467 367.926 12.52C369.979 10.4667 372.486 9.44 375.446 9.44C378.406 9.44 380.912 10.4667 382.966 12.52C385.019 14.5467 386.046 17.04 386.046 20C386.046 22.96 385.019 25.4667 382.966 27.52ZM371.566 23.96C372.606 25 373.899 25.52 375.446 25.52C376.992 25.52 378.286 25 379.326 23.96C380.366 22.92 380.886 21.6 380.886 20C380.886 18.4 380.366 17.08 379.326 16.04C378.286 15 376.992 14.48 375.446 14.48C373.899 14.48 372.606 15 371.566 16.04C370.552 17.08 370.046 18.4 370.046 20C370.046 21.6 370.552 22.92 371.566 23.96ZM406.596 10H411.636V29.04C411.636 32.1333 410.609 34.4933 408.556 36.12C406.529 37.7467 404.076 38.56 401.196 38.56C399.036 38.56 397.129 38.1467 395.476 37.32C393.849 36.4933 392.596 35.28 391.716 33.68L396.116 31.16C397.129 33.0267 398.876 33.96 401.356 33.96C402.982 33.96 404.262 33.5333 405.196 32.68C406.129 31.8267 406.596 30.6133 406.596 29.04V26.88C405.076 28.9067 402.942 29.92 400.196 29.92C397.369 29.92 394.996 28.9333 393.076 26.96C391.182 24.96 390.236 22.5333 390.236 19.68C390.236 16.8533 391.196 14.44 393.116 12.44C395.036 10.44 397.396 9.44 400.196 9.44C402.942 9.44 405.076 10.4533 406.596 12.48V10ZM396.956 23.64C398.022 24.6533 399.369 25.16 400.996 25.16C402.622 25.16 403.956 24.6533 404.996 23.64C406.062 22.6 406.596 21.28 406.596 19.68C406.596 18.1067 406.062 16.8133 404.996 15.8C403.956 14.76 402.622 14.24 400.996 14.24C399.369 14.24 398.022 14.76 396.956 15.8C395.916 16.8133 395.396 18.1067 395.396 19.68C395.396 21.28 395.916 22.6 396.956 23.64ZM423.075 13.44C423.555 12.16 424.341 11.2 425.435 10.56C426.555 9.92 427.795 9.6 429.155 9.6V15.36C427.581 15.1733 426.168 15.4933 424.915 16.32C423.688 17.1467 423.075 18.52 423.075 20.44V30H417.915V10H423.075V13.44ZM448.23 10H453.39V30H448.23V27.64C446.684 29.5867 444.51 30.56 441.71 30.56C439.044 30.56 436.75 29.5467 434.83 27.52C432.937 25.4667 431.99 22.96 431.99 20C431.99 17.04 432.937 14.5467 434.83 12.52C436.75 10.4667 439.044 9.44 441.71 9.44C444.51 9.44 446.684 10.4133 448.23 12.36V10ZM438.71 24.08C439.75 25.12 441.07 25.64 442.67 25.64C444.27 25.64 445.59 25.12 446.63 24.08C447.697 23.0133 448.23 21.6533 448.23 20C448.23 18.3467 447.697 17 446.63 15.96C445.59 14.8933 444.27 14.36 442.67 14.36C441.07 14.36 439.75 14.8933 438.71 15.96C437.67 17 437.15 18.3467 437.15 20C437.15 21.6533 437.67 23.0133 438.71 24.08ZM481.789 9.44C484.083 9.44 485.909 10.1867 487.269 11.68C488.656 13.1733 489.349 15.1733 489.349 17.68V30H484.189V18.04C484.189 16.84 483.896 15.9067 483.309 15.24C482.723 14.5733 481.896 14.24 480.829 14.24C479.656 14.24 478.736 14.6267 478.069 15.4C477.429 16.1733 477.109 17.2933 477.109 18.76V30H471.949V18.04C471.949 16.84 471.656 15.9067 471.069 15.24C470.483 14.5733 469.656 14.24 468.589 14.24C467.443 14.24 466.523 14.6267 465.829 15.4C465.163 16.1733 464.829 17.2933 464.829 18.76V30H459.669V10H464.829V12.12C466.029 10.3333 467.883 9.44 470.389 9.44C472.843 9.44 474.656 10.4 475.829 12.32C477.163 10.4 479.149 9.44 481.789 9.44Z" fill="#F8FAFC"/>
</svg>
