<svg width="247" height="157" viewBox="0 0 247 157" fill="none" xmlns="http://www.w3.org/2000/svg">
<path d="M25.344 0.399998V6.736H16.272V34H9.648V6.736H0.624V0.399998H25.344ZM31.5465 24.544C32.3785 27.552 34.6345 29.056 38.3145 29.056C40.6825 29.056 42.4745 28.256 43.6905 26.656L48.6825 29.536C46.3145 32.96 42.8265 34.672 38.2185 34.672C34.2505 34.672 31.0665 33.472 28.6665 31.072C26.2665 28.672 25.0665 25.648 25.0665 22C25.0665 18.384 26.2505 15.376 28.6185 12.976C30.9865 10.544 34.0265 9.328 37.7385 9.328C41.2585 9.328 44.1545 10.544 46.4265 12.976C48.7305 15.408 49.8825 18.416 49.8825 22C49.8825 22.8 49.8025 23.648 49.6425 24.544H31.5465ZM31.4505 19.744H43.6905C43.3385 18.112 42.6025 16.896 41.4825 16.096C40.3945 15.296 39.1465 14.896 37.7385 14.896C36.0745 14.896 34.6985 15.328 33.6105 16.192C32.5225 17.024 31.8025 18.208 31.4505 19.744ZM67.3616 34.672C63.7456 34.672 60.7216 33.456 58.2896 31.024C55.8896 28.592 54.6896 25.584 54.6896 22C54.6896 18.416 55.8896 15.408 58.2896 12.976C60.7216 10.544 63.7456 9.328 67.3616 9.328C69.6976 9.328 71.8256 9.888 73.7456 11.008C75.6656 12.128 77.1216 13.632 78.1136 15.52L72.7856 18.64C72.3056 17.648 71.5696 16.864 70.5776 16.288C69.6176 15.712 68.5296 15.424 67.3136 15.424C65.4576 15.424 63.9216 16.048 62.7056 17.296C61.4896 18.512 60.8816 20.08 60.8816 22C60.8816 23.888 61.4896 25.456 62.7056 26.704C63.9216 27.92 65.4576 28.528 67.3136 28.528C68.5616 28.528 69.6656 28.256 70.6256 27.712C71.6176 27.136 72.3536 26.352 72.8336 25.36L78.2096 28.432C77.1536 30.32 75.6656 31.84 73.7456 32.992C71.8256 34.112 69.6976 34.672 67.3616 34.672ZM96.7485 9.328C99.3725 9.328 101.533 10.208 103.229 11.968C104.957 13.728 105.821 16.16 105.821 19.264V34H99.6285V20.032C99.6285 18.432 99.1965 17.216 98.3325 16.384C97.4685 15.52 96.3165 15.088 94.8765 15.088C93.2765 15.088 91.9965 15.584 91.0365 16.576C90.0765 17.568 89.5965 19.056 89.5965 21.04V34H83.4045V0.399998H89.5965V12.688C91.1005 10.448 93.4845 9.328 96.7485 9.328ZM23.184 62.736H9.744V70.704H22.8V77.04H9.744V90H3.12V56.4H23.184V62.736ZM34.8746 80.544C35.7066 83.552 37.9626 85.056 41.6426 85.056C44.0106 85.056 45.8026 84.256 47.0186 82.656L52.0106 85.536C49.6426 88.96 46.1546 90.672 41.5466 90.672C37.5786 90.672 34.3946 89.472 31.9946 87.072C29.5946 84.672 28.3946 81.648 28.3946 78C28.3946 74.384 29.5786 71.376 31.9466 68.976C34.3146 66.544 37.3546 65.328 41.0666 65.328C44.5866 65.328 47.4826 66.544 49.7546 68.976C52.0586 71.408 53.2106 74.416 53.2106 78C53.2106 78.8 53.1306 79.648 52.9706 80.544H34.8746ZM34.7786 75.744H47.0186C46.6666 74.112 45.9306 72.896 44.8106 72.096C43.7226 71.296 42.4746 70.896 41.0666 70.896C39.4026 70.896 38.0266 71.328 36.9386 72.192C35.8506 73.024 35.1306 74.208 34.7786 75.744ZM59.4533 90V54.96H65.6453V90H59.4533ZM73.2326 90V54.96H79.4246V90H73.2326ZM107.46 87.024C104.996 89.456 101.988 90.672 98.436 90.672C94.884 90.672 91.876 89.456 89.412 87.024C86.98 84.56 85.764 81.552 85.764 78C85.764 74.448 86.98 71.456 89.412 69.024C91.876 66.56 94.884 65.328 98.436 65.328C101.988 65.328 104.996 66.56 107.46 69.024C109.924 71.456 111.156 74.448 111.156 78C111.156 81.552 109.924 84.56 107.46 87.024ZM93.78 82.752C95.028 84 96.58 84.624 98.436 84.624C100.292 84.624 101.844 84 103.092 82.752C104.34 81.504 104.964 79.92 104.964 78C104.964 76.08 104.34 74.496 103.092 73.248C101.844 72 100.292 71.376 98.436 71.376C96.58 71.376 95.028 72 93.78 73.248C92.564 74.496 91.956 76.08 91.956 78C91.956 79.92 92.564 81.504 93.78 82.752ZM143.519 66H150.095L142.462 90H136.558L132.142 75.456L127.726 90H121.822L114.19 66H120.766L124.846 80.736L129.214 66H135.07L139.438 80.784L143.519 66ZM159.564 72.816C159.564 73.456 159.98 73.984 160.812 74.4C161.676 74.784 162.716 75.136 163.932 75.456C165.148 75.744 166.364 76.128 167.58 76.608C168.796 77.056 169.82 77.824 170.652 78.912C171.516 80 171.948 81.36 171.948 82.992C171.948 85.456 171.02 87.36 169.164 88.704C167.34 90.016 165.052 90.672 162.3 90.672C157.372 90.672 154.012 88.768 152.22 84.96L157.596 81.936C158.3 84.016 159.868 85.056 162.3 85.056C164.508 85.056 165.612 84.368 165.612 82.992C165.612 82.352 165.18 81.84 164.316 81.456C163.484 81.04 162.46 80.672 161.244 80.352C160.028 80.032 158.812 79.632 157.596 79.152C156.38 78.672 155.34 77.92 154.476 76.896C153.644 75.84 153.228 74.528 153.228 72.96C153.228 70.592 154.092 68.736 155.82 67.392C157.58 66.016 159.756 65.328 162.348 65.328C164.3 65.328 166.076 65.776 167.676 66.672C169.276 67.536 170.54 68.784 171.468 70.416L166.188 73.296C165.42 71.664 164.14 70.848 162.348 70.848C161.548 70.848 160.876 71.024 160.332 71.376C159.82 71.728 159.564 72.208 159.564 72.816ZM191.194 65.328C193.818 65.328 195.978 66.208 197.674 67.968C199.402 69.728 200.266 72.16 200.266 75.264V90H194.074V76.032C194.074 74.432 193.642 73.216 192.778 72.384C191.914 71.52 190.762 71.088 189.322 71.088C187.722 71.088 186.442 71.584 185.482 72.576C184.522 73.568 184.042 75.056 184.042 77.04V90H177.85V56.4H184.042V68.688C185.546 66.448 187.93 65.328 191.194 65.328ZM210.545 63.12C209.521 63.12 208.625 62.752 207.857 62.016C207.121 61.248 206.753 60.352 206.753 59.328C206.753 58.304 207.121 57.408 207.857 56.64C208.625 55.872 209.521 55.488 210.545 55.488C211.601 55.488 212.497 55.872 213.233 56.64C214.001 57.408 214.385 58.304 214.385 59.328C214.385 60.352 214.001 61.248 213.233 62.016C212.497 62.752 211.601 63.12 210.545 63.12ZM207.473 90V66H213.665V90H207.473ZM235.221 65.328C238.453 65.328 241.205 66.56 243.477 69.024C245.781 71.456 246.933 74.448 246.933 78C246.933 81.552 245.781 84.56 243.477 87.024C241.205 89.456 238.453 90.672 235.221 90.672C231.861 90.672 229.269 89.504 227.445 87.168V99.6H221.253V66H227.445V68.832C229.269 66.496 231.861 65.328 235.221 65.328ZM229.317 82.896C230.565 84.144 232.149 84.768 234.069 84.768C235.989 84.768 237.573 84.144 238.821 82.896C240.101 81.616 240.741 79.984 240.741 78C240.741 76.016 240.101 74.4 238.821 73.152C237.573 71.872 235.989 71.232 234.069 71.232C232.149 71.232 230.565 71.872 229.317 73.152C228.069 74.4 227.445 76.016 227.445 78C227.445 79.984 228.069 81.616 229.317 82.896ZM15.648 112.4C18.88 112.4 21.6 113.488 23.808 115.664C26.016 117.84 27.12 120.512 27.12 123.68C27.12 126.848 26.016 129.52 23.808 131.696C21.6 133.872 18.88 134.96 15.648 134.96H9.744V146H3.12V112.4H15.648ZM15.648 128.768C17.056 128.768 18.224 128.288 19.152 127.328C20.08 126.336 20.544 125.12 20.544 123.68C20.544 122.208 20.08 120.992 19.152 120.032C18.224 119.072 17.056 118.592 15.648 118.592H9.744V128.768H15.648ZM38.7409 126.128C39.3169 124.592 40.2609 123.44 41.5729 122.672C42.9169 121.904 44.4049 121.52 46.0369 121.52V128.432C44.1489 128.208 42.4529 128.592 40.9489 129.584C39.4769 130.576 38.7409 132.224 38.7409 134.528V146H32.5489V122H38.7409V126.128ZM71.1356 143.024C68.6716 145.456 65.6636 146.672 62.1116 146.672C58.5596 146.672 55.5516 145.456 53.0876 143.024C50.6556 140.56 49.4396 137.552 49.4396 134C49.4396 130.448 50.6556 127.456 53.0876 125.024C55.5516 122.56 58.5596 121.328 62.1116 121.328C65.6636 121.328 68.6716 122.56 71.1356 125.024C73.5996 127.456 74.8316 130.448 74.8316 134C74.8316 137.552 73.5996 140.56 71.1356 143.024ZM57.4556 138.752C58.7036 140 60.2556 140.624 62.1116 140.624C63.9676 140.624 65.5196 140 66.7676 138.752C68.0156 137.504 68.6396 135.92 68.6396 134C68.6396 132.08 68.0156 130.496 66.7676 129.248C65.5196 128 63.9676 127.376 62.1116 127.376C60.2556 127.376 58.7036 128 57.4556 129.248C56.2396 130.496 55.6316 132.08 55.6316 134C55.6316 135.92 56.2396 137.504 57.4556 138.752ZM99.4916 122H105.54V144.848C105.54 148.56 104.308 151.392 101.844 153.344C99.4116 155.296 96.4676 156.272 93.0116 156.272C90.4196 156.272 88.1316 155.776 86.1476 154.784C84.1956 153.792 82.6916 152.336 81.6356 150.416L86.9156 147.392C88.1316 149.632 90.2276 150.752 93.2036 150.752C95.1556 150.752 96.6916 150.24 97.8116 149.216C98.9316 148.192 99.4916 146.736 99.4916 144.848V142.256C97.6676 144.688 95.1076 145.904 91.8116 145.904C88.4196 145.904 85.5716 144.72 83.2676 142.352C80.9956 139.952 79.8596 137.04 79.8596 133.616C79.8596 130.224 81.0116 127.328 83.3156 124.928C85.6196 122.528 88.4516 121.328 91.8116 121.328C95.1076 121.328 97.6676 122.544 99.4916 124.976V122ZM87.9236 138.368C89.2036 139.584 90.8196 140.192 92.7716 140.192C94.7236 140.192 96.3236 139.584 97.5716 138.368C98.8516 137.12 99.4916 135.536 99.4916 133.616C99.4916 131.728 98.8516 130.176 97.5716 128.96C96.3236 127.712 94.7236 127.088 92.7716 127.088C90.8196 127.088 89.2036 127.712 87.9236 128.96C86.6756 130.176 86.0516 131.728 86.0516 133.616C86.0516 135.536 86.6756 137.12 87.9236 138.368ZM119.267 126.128C119.843 124.592 120.787 123.44 122.099 122.672C123.443 121.904 124.931 121.52 126.563 121.52V128.432C124.675 128.208 122.979 128.592 121.475 129.584C120.003 130.576 119.267 132.224 119.267 134.528V146H113.075V122H119.267V126.128ZM149.453 122H155.645V146H149.453V143.168C147.597 145.504 144.989 146.672 141.629 146.672C138.429 146.672 135.677 145.456 133.373 143.024C131.101 140.56 129.965 137.552 129.965 134C129.965 130.448 131.101 127.456 133.373 125.024C135.677 122.56 138.429 121.328 141.629 121.328C144.989 121.328 147.597 122.496 149.453 124.832V122ZM138.029 138.896C139.277 140.144 140.861 140.768 142.781 140.768C144.701 140.768 146.285 140.144 147.533 138.896C148.813 137.616 149.453 135.984 149.453 134C149.453 132.016 148.813 130.4 147.533 129.152C146.285 127.872 144.701 127.232 142.781 127.232C140.861 127.232 139.277 127.872 138.029 129.152C136.781 130.4 136.157 132.016 136.157 134C136.157 135.984 136.781 137.616 138.029 138.896ZM189.724 121.328C192.476 121.328 194.668 122.224 196.3 124.016C197.964 125.808 198.796 128.208 198.796 131.216V146H192.604V131.648C192.604 130.208 192.252 129.088 191.548 128.288C190.844 127.488 189.852 127.088 188.572 127.088C187.164 127.088 186.06 127.552 185.26 128.48C184.492 129.408 184.108 130.752 184.108 132.512V146H177.916V131.648C177.916 130.208 177.564 129.088 176.86 128.288C176.156 127.488 175.164 127.088 173.884 127.088C172.508 127.088 171.404 127.552 170.572 128.48C169.772 129.408 169.372 130.752 169.372 132.512V146H163.18V122H169.372V124.544C170.812 122.4 173.036 121.328 176.044 121.328C178.988 121.328 181.164 122.48 182.572 124.784C184.172 122.48 186.556 121.328 189.724 121.328Z" fill="#F8FAFC"/>
</svg>
